<svg width="46" height="46" viewBox="0 0 46 46" fill="none" xmlns="http://www.w3.org/2000/svg">
<g id="Map Marker / Light / Duotone">
<path id="Shape" opacity="0.25" d="M40.25 19.1667C40.25 29.6925 31.0014 38.6768 26.0483 42.7336C24.2524 44.2044 21.7476 44.2044 19.9517 42.7336C14.9986 38.6768 5.75 29.6925 5.75 19.1667C5.75 9.63984 13.4731 1.91675 23 1.91675C32.5269 1.91675 40.25 9.63984 40.25 19.1667Z" fill="white"/>
<path id="Shape_2" d="M28.75 17.25C28.75 20.4256 26.1756 23 23 23C19.8244 23 17.25 20.4256 17.25 17.25C17.25 14.0744 19.8244 11.5 23 11.5C26.1756 11.5 28.75 14.0744 28.75 17.25Z" fill="white"/>
</g>
</svg>
