<svg width="234" height="220" viewBox="0 0 234 220" fill="none" xmlns="http://www.w3.org/2000/svg">
<path d="M233.703 109.903L210.717 96.627V123.18L233.703 109.903Z" fill="#359CEF"/>
<path d="M179.713 -0.00976562H107.832V5.59585V11.2015V208.605V214.211V219.816H179.713C200.687 219.816 217.745 202.758 217.745 181.784V38.0226C217.745 17.0485 200.687 -0.00976562 179.713 -0.00976562Z" fill="#359CEF"/>
<path d="M4.8929 92.8722H2.10352V37.9425C2.10352 19.275 17.2843 4.06738 35.9786 4.06738H107.913V6.85678H35.9786C18.8399 6.85678 4.91974 20.8038 4.91974 37.9157V92.8722H4.8929Z" fill="#359CEF"/>
<path d="M6.63642 92.7381C6.63642 94.4815 5.21491 95.903 3.47153 95.903C1.72816 95.903 0.306641 94.4815 0.306641 92.7381C0.306641 90.9948 1.72816 89.5732 3.47153 89.5732C5.21491 89.5732 6.63642 90.9679 6.63642 92.7381Z" fill="#359CEF"/>
<path d="M4.86558 126.908H2.07617V181.838H4.86558V126.908Z" fill="#359CEF"/>
<path d="M6.63642 127.069C6.63642 125.326 5.21491 123.904 3.47153 123.904C1.72816 123.904 0.306641 125.326 0.306641 127.069C0.306641 128.813 1.72816 130.234 3.47153 130.234C5.21491 130.234 6.63642 128.813 6.63642 127.069Z" fill="#359CEF"/>
<path d="M107.887 215.982H107.19C106.251 215.982 105.5 215.231 105.5 214.292C105.5 213.353 106.251 212.602 107.19 212.602H107.887C108.826 212.602 109.577 213.353 109.577 214.292C109.577 215.231 108.826 215.982 107.887 215.982Z" fill="#359CEF"/>
<path d="M93.215 215.981H91.8203C90.8815 215.981 90.1306 215.23 90.1306 214.292C90.1306 213.353 90.8815 212.602 91.8203 212.602H93.215C94.1537 212.602 94.9047 213.353 94.9047 214.292C94.9047 215.23 94.1537 215.981 93.215 215.981ZM77.8465 215.981H76.4518C75.513 215.981 74.762 215.23 74.762 214.292C74.762 213.353 75.513 212.602 76.4518 212.602H77.8465C78.7852 212.602 79.5362 213.353 79.5362 214.292C79.5362 215.23 78.7852 215.981 77.8465 215.981ZM62.478 215.981H61.0833C60.1445 215.981 59.3935 215.23 59.3935 214.292C59.3935 213.353 60.1445 212.602 61.0833 212.602H62.478C63.4167 212.602 64.1677 213.353 64.1677 214.292C64.1677 215.23 63.4167 215.981 62.478 215.981ZM47.1094 215.981H45.7148C44.776 215.981 44.025 215.23 44.025 214.292C44.025 213.353 44.776 212.602 45.7148 212.602H47.1094C48.0482 212.602 48.7992 213.353 48.7992 214.292C48.7992 215.23 48.0482 215.981 47.1094 215.981ZM31.7677 215.713C31.6873 215.713 31.6336 215.713 31.5532 215.686C31.0704 215.633 30.5876 215.552 30.1048 215.472C29.1929 215.311 28.576 214.452 28.737 213.541C28.8979 212.629 29.7562 212.012 30.6681 212.173C31.0972 212.253 31.5532 212.307 31.9823 212.36C32.8942 212.468 33.5648 213.326 33.4307 214.238C33.3234 215.096 32.5992 215.713 31.7677 215.713ZM17.5525 210.268C17.2307 210.268 16.882 210.161 16.587 209.973C16.1847 209.705 15.7823 209.41 15.4068 209.115C14.6559 208.552 14.5217 207.506 15.085 206.755C15.6482 206.004 16.6943 205.87 17.4453 206.433C17.7939 206.701 18.1694 206.969 18.5181 207.211C19.2691 207.747 19.4837 208.793 18.9472 209.544C18.5986 210.027 18.089 210.268 17.5525 210.268ZM7.38734 198.95C6.79727 198.95 6.20721 198.628 5.91217 198.065C5.67078 197.636 5.45621 197.206 5.24164 196.751C4.83933 195.919 5.18799 194.9 6.01945 194.498C6.8509 194.095 7.87011 194.444 8.27243 195.275C8.46018 195.678 8.67474 196.08 8.88931 196.455C9.31845 197.26 9.02342 198.279 8.21878 198.735C7.92375 198.869 7.65555 198.95 7.38734 198.95Z" fill="#359CEF"/>
<path d="M3.49834 184.225C2.58642 184.225 1.83541 183.501 1.80859 182.589C1.80859 182.347 1.80859 182.106 1.80859 181.865C1.80859 180.926 2.5596 180.175 3.49834 180.175C4.43708 180.175 5.18807 180.926 5.18807 181.865C5.18807 182.079 5.18807 182.32 5.18807 182.535C5.21489 183.474 4.46389 184.225 3.55197 184.252C3.52515 184.225 3.49834 184.225 3.49834 184.225Z" fill="#359CEF"/>
<path d="M203.743 43.8163V175.964C203.743 192.432 190.386 205.789 173.918 205.789H41.7704C25.3022 205.789 11.9453 192.432 11.9453 175.964V43.8163C11.9453 27.3481 25.3022 13.9912 41.7704 13.9912H173.918C190.386 13.9912 203.743 27.3481 203.743 43.8163Z" fill="#F7F7F7"/>
<path d="M110.561 70.1312H105.117C104.822 70.1312 104.527 69.9703 104.366 69.7021L101.791 65.3839C99.2966 63.4796 97.8214 60.4756 97.8214 57.3375C97.8214 51.7587 102.354 47.226 107.933 47.226C113.512 47.226 118.045 51.7587 118.045 57.3375C118.045 60.5829 116.489 63.6137 113.887 65.518L111.312 69.7021C111.152 69.9703 110.883 70.1312 110.561 70.1312ZM105.331 68.8974H110.374L112.975 64.6597L113.083 64.5792C115.443 62.9163 116.838 60.1806 116.838 57.3107C116.838 52.4024 112.841 48.4061 107.96 48.4061C103.052 48.4061 99.082 52.4024 99.082 57.3107C99.082 60.1001 100.423 62.7822 102.676 64.4451L102.783 64.5256L105.331 68.8974Z" fill="#636363"/>
<path d="M105.09 71.177L106.055 74.7442H106.109C106.109 75.7366 106.914 76.5412 107.906 76.5412C108.898 76.5412 109.703 75.7366 109.703 74.7442H109.757L110.83 71.177H105.09Z" fill="#636363"/>
<path d="M107.96 45.7505C107.826 45.7505 107.691 45.6432 107.691 45.4823V41.4323C107.691 41.2982 107.799 41.1641 107.96 41.1641C108.094 41.1641 108.228 41.2713 108.228 41.4323V45.4823C108.228 45.6432 108.094 45.7505 107.96 45.7505Z" fill="#636363"/>
<path d="M116.972 49.3714C116.891 49.3714 116.837 49.3446 116.784 49.2909C116.677 49.1837 116.677 49.0227 116.784 48.9154L119.627 46.0724C119.734 45.9651 119.895 45.9651 120.002 46.0724C120.11 46.1797 120.11 46.3406 120.002 46.4479L117.159 49.2909C117.106 49.3446 117.025 49.3714 116.972 49.3714Z" fill="#636363"/>
<path d="M99.0283 49.452C98.9479 49.452 98.8943 49.4252 98.8406 49.3715L95.9975 46.5285C95.8903 46.4212 95.8903 46.2603 95.9975 46.153C96.1048 46.0457 96.2658 46.0457 96.373 46.153L99.2161 48.996C99.3234 49.1033 99.3234 49.2642 99.2161 49.3715C99.1624 49.4252 99.082 49.452 99.0283 49.452Z" fill="#636363"/>
<path d="M115.711 57.1227C115.711 52.6972 111.983 49.1569 107.504 49.4251C103.641 49.6665 100.503 52.8314 100.289 56.7204C100.128 59.6171 101.603 62.1919 103.856 63.6403C104.875 64.284 105.653 65.2764 106.002 66.4028L106.029 66.4833H106.082C106.082 67.3416 106.887 68.0121 107.879 68.0121C108.872 68.0121 109.676 67.3148 109.676 66.4833H109.73L109.757 66.4028C110.159 65.2764 110.964 64.3376 111.983 63.6939C114.236 62.3529 115.711 59.9121 115.711 57.1227Z" fill="#359CEF"/>
<path d="M74.3973 100.266H70.8462C70.7989 99.901 70.7018 99.5719 70.555 99.2784C70.4082 98.9848 70.2141 98.7338 69.9726 98.5255C69.7311 98.3172 69.4447 98.1586 69.1132 98.0497C68.7865 97.936 68.4243 97.8792 68.0266 97.8792C67.3211 97.8792 66.7127 98.052 66.2013 98.3977C65.6947 98.7433 65.3041 99.2428 65.0294 99.8963C64.7596 100.55 64.6246 101.34 64.6246 102.268C64.6246 103.234 64.7619 104.044 65.0365 104.697C65.3159 105.346 65.7065 105.836 66.2084 106.168C66.715 106.494 67.314 106.658 68.0053 106.658C68.3936 106.658 68.7463 106.608 69.0635 106.508C69.3855 106.409 69.6672 106.265 69.9087 106.075C70.1549 105.881 70.3561 105.647 70.5124 105.372C70.6734 105.093 70.7846 104.778 70.8462 104.428L74.3973 104.449C74.3358 105.093 74.1488 105.727 73.8363 106.352C73.5285 106.977 73.1047 107.548 72.565 108.064C72.0252 108.575 71.367 108.982 70.5905 109.285C69.8187 109.588 68.9333 109.74 67.9343 109.74C66.618 109.74 65.439 109.451 64.3973 108.874C63.3604 108.291 62.5413 107.444 61.94 106.331C61.3386 105.218 61.038 103.864 61.038 102.268C61.038 100.668 61.3434 99.3115 61.9542 98.1988C62.565 97.0861 63.3912 96.2409 64.4328 95.6633C65.4745 95.0856 66.6417 94.7968 67.9343 94.7968C68.815 94.7968 69.6293 94.9199 70.3775 95.1661C71.1256 95.4076 71.7837 95.7627 72.3519 96.2315C72.9201 96.6955 73.3817 97.266 73.7368 97.9431C74.0919 98.6202 74.3121 99.3944 74.3973 100.266ZM83.0474 104.832V98.632H86.5133V109.541H83.2037V107.51H83.09C82.8485 108.178 82.4366 108.708 81.8542 109.101C81.2766 109.489 80.5782 109.683 79.7591 109.683C79.0157 109.683 78.3623 109.513 77.7988 109.172C77.2354 108.831 76.7974 108.355 76.4849 107.744C76.1724 107.129 76.0138 106.409 76.0091 105.585V98.632H79.4821V104.903C79.4868 105.495 79.6431 105.962 79.9508 106.303C80.2586 106.643 80.6776 106.814 81.2079 106.814C81.5536 106.814 81.8637 106.738 82.1383 106.587C82.4177 106.43 82.6378 106.205 82.7988 105.912C82.9646 105.614 83.0474 105.254 83.0474 104.832ZM97.848 101.963L94.6591 102.048C94.626 101.821 94.536 101.62 94.3892 101.445C94.2425 101.265 94.0507 101.125 93.814 101.026C93.582 100.921 93.3121 100.869 93.0043 100.869C92.6018 100.869 92.2586 100.95 91.9745 101.111C91.6951 101.272 91.5578 101.49 91.5625 101.764C91.5578 101.977 91.643 102.162 91.8182 102.318C91.9981 102.474 92.3177 102.6 92.777 102.695L94.8793 103.092C95.9683 103.301 96.778 103.646 97.3083 104.129C97.8433 104.612 98.1132 105.251 98.1179 106.047C98.1132 106.795 97.8907 107.446 97.4503 108C97.0147 108.554 96.4181 108.985 95.6605 109.293C94.903 109.596 94.0365 109.747 93.0611 109.747C91.5034 109.747 90.2747 109.428 89.375 108.788C88.4802 108.144 87.9688 107.283 87.8409 106.203L91.2713 106.118C91.3471 106.516 91.5436 106.819 91.8608 107.027C92.1781 107.235 92.5829 107.339 93.0753 107.339C93.5204 107.339 93.8826 107.257 94.162 107.091C94.4413 106.925 94.5834 106.705 94.5881 106.43C94.5834 106.184 94.4745 105.988 94.2614 105.841C94.0483 105.689 93.7145 105.571 93.26 105.486L91.3566 105.124C90.2628 104.925 89.4484 104.558 88.9134 104.023C88.3784 103.483 88.1132 102.796 88.1179 101.963C88.1132 101.234 88.3073 100.611 88.7003 100.095C89.0933 99.5743 89.652 99.1766 90.3765 98.9019C91.1009 98.6273 91.9555 98.49 92.9404 98.49C94.4177 98.49 95.5824 98.8001 96.4347 99.4204C97.287 100.036 97.7581 100.883 97.848 101.963ZM105.585 98.632V101.189H98.7034V98.632H105.585ZM100.145 96.0184H103.618V106.111C103.618 106.324 103.651 106.497 103.718 106.629C103.789 106.757 103.89 106.849 104.023 106.906C104.156 106.958 104.314 106.984 104.499 106.984C104.631 106.984 104.771 106.972 104.918 106.949C105.069 106.92 105.183 106.897 105.259 106.878L105.784 109.385C105.619 109.432 105.384 109.491 105.081 109.562C104.783 109.633 104.425 109.678 104.009 109.697C103.194 109.735 102.496 109.641 101.914 109.413C101.336 109.181 100.893 108.821 100.585 108.334C100.282 107.846 100.136 107.233 100.145 106.494V96.0184ZM111.933 109.747C110.787 109.747 109.802 109.513 108.978 109.044C108.159 108.57 107.527 107.912 107.082 107.07C106.641 106.222 106.421 105.24 106.421 104.122C106.421 103 106.641 102.017 107.082 101.175C107.527 100.327 108.159 99.669 108.978 99.2002C109.802 98.7267 110.787 98.49 111.933 98.49C113.078 98.49 114.061 98.7267 114.88 99.2002C115.704 99.669 116.336 100.327 116.776 101.175C117.221 102.017 117.444 103 117.444 104.122C117.444 105.24 117.221 106.222 116.776 107.07C116.336 107.912 115.704 108.57 114.88 109.044C114.061 109.513 113.078 109.747 111.933 109.747ZM111.954 107.126C112.371 107.126 112.723 106.999 113.012 106.743C113.301 106.487 113.521 106.132 113.673 105.678C113.829 105.223 113.907 104.697 113.907 104.101C113.907 103.495 113.829 102.964 113.673 102.51C113.521 102.055 113.301 101.7 113.012 101.445C112.723 101.189 112.371 101.061 111.954 101.061C111.523 101.061 111.158 101.189 110.86 101.445C110.567 101.7 110.342 102.055 110.185 102.51C110.034 102.964 109.958 103.495 109.958 104.101C109.958 104.697 110.034 105.223 110.185 105.678C110.342 106.132 110.567 106.487 110.86 106.743C111.158 106.999 111.523 107.126 111.954 107.126ZM118.823 109.541V98.632H122.126V100.635H122.246C122.474 99.972 122.857 99.4488 123.397 99.0653C123.937 98.6818 124.581 98.49 125.329 98.49C126.086 98.49 126.735 98.6841 127.275 99.0724C127.815 99.4606 128.158 99.9815 128.305 100.635H128.418C128.622 99.9862 129.02 99.4677 129.611 99.0795C130.203 98.6865 130.902 98.49 131.707 98.49C132.739 98.49 133.577 98.8214 134.221 99.4843C134.865 100.142 135.187 101.047 135.187 102.197V109.541H131.714V102.993C131.714 102.448 131.574 102.034 131.295 101.75C131.015 101.461 130.653 101.317 130.208 101.317C129.73 101.317 129.353 101.473 129.079 101.785C128.809 102.093 128.674 102.508 128.674 103.028V109.541H125.336V102.957C125.336 102.451 125.199 102.051 124.924 101.757C124.649 101.463 124.287 101.317 123.837 101.317C123.534 101.317 123.267 101.39 123.035 101.537C122.803 101.679 122.62 101.883 122.488 102.148C122.36 102.413 122.296 102.725 122.296 103.085V109.541H118.823ZM142.038 109.747C140.897 109.747 139.912 109.522 139.084 109.072C138.26 108.618 137.625 107.972 137.18 107.133C136.74 106.291 136.52 105.289 136.52 104.129C136.52 103.002 136.742 102.017 137.187 101.175C137.632 100.327 138.26 99.669 139.069 99.2002C139.879 98.7267 140.833 98.49 141.932 98.49C142.708 98.49 143.418 98.6107 144.062 98.8522C144.706 99.0937 145.263 99.4512 145.731 99.9247C146.2 100.398 146.565 100.983 146.825 101.679C147.086 102.37 147.216 103.163 147.216 104.058V104.925H137.734V102.908H143.984C143.979 102.538 143.892 102.209 143.721 101.92C143.551 101.632 143.317 101.407 143.018 101.246C142.725 101.08 142.386 100.997 142.003 100.997C141.614 100.997 141.266 101.085 140.959 101.26C140.651 101.43 140.407 101.665 140.227 101.963C140.047 102.257 139.952 102.59 139.943 102.964V105.017C139.943 105.462 140.031 105.853 140.206 106.189C140.381 106.52 140.63 106.778 140.952 106.963C141.273 107.148 141.657 107.24 142.102 107.24C142.41 107.24 142.689 107.197 142.94 107.112C143.191 107.027 143.407 106.901 143.586 106.736C143.766 106.57 143.901 106.366 143.991 106.125L147.18 106.217C147.048 106.932 146.756 107.555 146.307 108.085C145.862 108.611 145.277 109.02 144.552 109.314C143.828 109.603 142.99 109.747 142.038 109.747ZM148.59 109.541V98.632H151.963V100.621H152.077C152.276 99.901 152.6 99.3659 153.05 99.0156C153.5 98.6605 154.023 98.4829 154.619 98.4829C154.78 98.4829 154.946 98.4947 155.117 98.5184C155.287 98.5373 155.446 98.5681 155.592 98.6107V101.629C155.427 101.572 155.209 101.527 154.939 101.494C154.674 101.461 154.437 101.445 154.229 101.445C153.817 101.445 153.445 101.537 153.114 101.722C152.787 101.901 152.529 102.155 152.34 102.481C152.155 102.803 152.063 103.182 152.063 103.618V109.541H148.59ZM80.1841 133.541V118.996H90.113V121.851H83.6997V124.834H89.4809V127.696H83.6997V133.541H80.1841ZM95.7748 133.747C94.629 133.747 93.6441 133.513 92.8203 133.044C92.0011 132.57 91.369 131.912 90.924 131.07C90.4836 130.222 90.2635 129.24 90.2635 128.122C90.2635 127 90.4836 126.017 90.924 125.175C91.369 124.327 92.0011 123.669 92.8203 123.2C93.6441 122.727 94.629 122.49 95.7748 122.49C96.9207 122.49 97.9031 122.727 98.7223 123.2C99.5461 123.669 100.178 124.327 100.619 125.175C101.064 126.017 101.286 127 101.286 128.122C101.286 129.24 101.064 130.222 100.619 131.07C100.178 131.912 99.5461 132.57 98.7223 133.044C97.9031 133.513 96.9207 133.747 95.7748 133.747ZM95.7961 131.126C96.2128 131.126 96.5655 130.999 96.8544 130.743C97.1432 130.487 97.3634 130.132 97.5149 129.678C97.6711 129.223 97.7493 128.697 97.7493 128.101C97.7493 127.495 97.6711 126.964 97.5149 126.51C97.3634 126.055 97.1432 125.7 96.8544 125.445C96.5655 125.189 96.2128 125.061 95.7961 125.061C95.3653 125.061 95.0007 125.189 94.7024 125.445C94.4088 125.7 94.1839 126.055 94.0277 126.51C93.8761 126.964 93.8004 127.495 93.8004 128.101C93.8004 128.697 93.8761 129.223 94.0277 129.678C94.1839 130.132 94.4088 130.487 94.7024 130.743C95.0007 130.999 95.3653 131.126 95.7961 131.126ZM107.758 133.747C106.607 133.747 105.62 133.51 104.796 133.037C103.977 132.563 103.347 131.905 102.907 131.062C102.466 130.215 102.246 129.235 102.246 128.122C102.246 127.005 102.466 126.025 102.907 125.182C103.352 124.334 103.984 123.674 104.803 123.2C105.627 122.727 106.609 122.49 107.751 122.49C108.759 122.49 109.637 122.672 110.385 123.037C111.138 123.401 111.725 123.918 112.147 124.585C112.573 125.248 112.798 126.027 112.822 126.922H109.576C109.51 126.363 109.32 125.925 109.008 125.608C108.7 125.291 108.297 125.132 107.8 125.132C107.398 125.132 107.045 125.246 106.742 125.473C106.439 125.695 106.202 126.027 106.032 126.467C105.866 126.903 105.783 127.443 105.783 128.087C105.783 128.731 105.866 129.275 106.032 129.72C106.202 130.16 106.439 130.494 106.742 130.722C107.045 130.944 107.398 131.055 107.8 131.055C108.122 131.055 108.406 130.987 108.653 130.849C108.903 130.712 109.109 130.511 109.27 130.246C109.431 129.976 109.533 129.649 109.576 129.266H112.822C112.788 130.165 112.564 130.951 112.147 131.624C111.735 132.296 111.155 132.819 110.407 133.193C109.663 133.562 108.78 133.747 107.758 133.747ZM121.237 128.832V122.632H124.703V133.541H121.394V131.51H121.28C121.038 132.178 120.626 132.708 120.044 133.101C119.466 133.489 118.768 133.683 117.949 133.683C117.206 133.683 116.552 133.513 115.989 133.172C115.425 132.831 114.987 132.355 114.675 131.744C114.362 131.129 114.204 130.409 114.199 129.585V122.632H117.672V128.903C117.677 129.495 117.833 129.962 118.141 130.303C118.448 130.643 118.867 130.814 119.398 130.814C119.743 130.814 120.054 130.738 120.328 130.587C120.608 130.43 120.828 130.205 120.989 129.912C121.154 129.614 121.237 129.254 121.237 128.832ZM136.038 125.963L132.849 126.048C132.816 125.821 132.726 125.62 132.579 125.445C132.432 125.265 132.241 125.125 132.004 125.026C131.772 124.921 131.502 124.869 131.194 124.869C130.792 124.869 130.448 124.95 130.164 125.111C129.885 125.272 129.748 125.49 129.752 125.764C129.748 125.977 129.833 126.162 130.008 126.318C130.188 126.474 130.508 126.6 130.967 126.695L133.069 127.092C134.158 127.301 134.968 127.646 135.498 128.129C136.033 128.612 136.303 129.251 136.308 130.047C136.303 130.795 136.081 131.446 135.64 132C135.205 132.554 134.608 132.985 133.85 133.293C133.093 133.596 132.226 133.747 131.251 133.747C129.693 133.747 128.464 133.428 127.565 132.788C126.67 132.144 126.159 131.283 126.031 130.203L129.461 130.118C129.537 130.516 129.733 130.819 130.051 131.027C130.368 131.235 130.773 131.339 131.265 131.339C131.71 131.339 132.072 131.257 132.352 131.091C132.631 130.925 132.773 130.705 132.778 130.43C132.773 130.184 132.664 129.988 132.451 129.841C132.238 129.689 131.904 129.571 131.45 129.486L129.546 129.124C128.453 128.925 127.638 128.558 127.103 128.023C126.568 127.483 126.303 126.796 126.308 125.963C126.303 125.234 126.497 124.611 126.89 124.095C127.283 123.574 127.842 123.177 128.566 122.902C129.291 122.627 130.145 122.49 131.13 122.49C132.607 122.49 133.772 122.8 134.625 123.42C135.477 124.036 135.948 124.883 136.038 125.963Z" fill="black"/>
<path d="M69.8836 149.814H70.7699L71.8864 151.293L72.0739 151.54L73.4461 153.359H72.5597L71.554 152.017L71.3751 151.778L69.8836 149.814ZM73.7699 148.178C73.7699 149.087 73.608 149.878 73.2841 150.551C72.9603 151.222 72.5143 151.741 71.9461 152.111C71.3807 152.477 70.7302 152.66 69.9944 152.66C69.2586 152.66 68.6066 152.477 68.0384 152.111C67.4731 151.741 67.0285 151.222 66.7046 150.551C66.3836 149.878 66.2231 149.087 66.2231 148.178C66.2231 147.268 66.3836 146.479 66.7046 145.808C67.0285 145.135 67.4745 144.615 68.0427 144.249C68.6108 143.879 69.2614 143.695 69.9944 143.695C70.7302 143.695 71.3807 143.879 71.9461 144.249C72.5143 144.615 72.9603 145.135 73.2841 145.808C73.608 146.479 73.7699 147.268 73.7699 148.178ZM72.9944 148.178C72.9944 147.396 72.8637 146.727 72.6023 146.17C72.341 145.611 71.9844 145.183 71.5327 144.888C71.081 144.592 70.5682 144.445 69.9944 144.445C69.4233 144.445 68.912 144.592 68.4603 144.888C68.0086 145.183 67.6506 145.609 67.3864 146.166C67.1251 146.723 66.9944 147.393 66.9944 148.178C66.9944 148.959 67.1251 149.628 67.3864 150.185C67.6478 150.741 68.0043 151.169 68.456 151.467C68.9077 151.763 69.4205 151.91 69.9944 151.91C70.5682 151.91 71.081 151.763 71.5327 151.467C71.9873 151.172 72.3452 150.746 72.6066 150.189C72.8679 149.629 72.9972 148.959 72.9944 148.178ZM79.4586 150.04V145.996H80.2171V152.541H79.4586V151.454H79.3989C79.2455 151.79 79.0026 152.07 78.6702 152.294C78.3378 152.516 77.9316 152.626 77.4515 152.626C77.0338 152.626 76.6631 152.535 76.3392 152.354C76.0154 152.169 75.7611 151.899 75.5765 151.544C75.3918 151.189 75.2995 150.753 75.2995 150.236V145.996H76.058V150.189C76.058 150.7 76.2086 151.112 76.5097 151.425C76.8108 151.734 77.1972 151.889 77.6688 151.889C77.9642 151.889 78.2483 151.818 78.5211 151.676C78.7938 151.534 79.0182 151.327 79.1944 151.054C79.3705 150.778 79.4586 150.44 79.4586 150.04ZM83.8134 152.69C83.4185 152.69 83.0577 152.614 82.731 152.46C82.4043 152.304 82.1443 152.079 81.9512 151.787C81.758 151.491 81.6614 151.133 81.6614 150.713C81.6614 150.389 81.7225 150.116 81.8446 149.895C81.9668 149.673 82.1401 149.491 82.3645 149.349C82.5889 149.207 82.8546 149.095 83.1614 149.013C83.4682 148.93 83.8063 148.866 84.1756 148.821C84.5421 148.776 84.8517 148.736 85.1046 148.702C85.3603 148.668 85.5549 148.614 85.6884 148.54C85.8219 148.466 85.8887 148.347 85.8887 148.182V148.028C85.8887 147.582 85.7551 147.231 85.4881 146.976C85.2239 146.717 84.8432 146.588 84.346 146.588C83.8745 146.588 83.4895 146.692 83.1912 146.899C82.8958 147.106 82.6884 147.351 82.5691 147.632L81.8489 147.372C81.9966 147.014 82.2012 146.729 82.4625 146.516C82.7239 146.3 83.0165 146.145 83.3404 146.051C83.6642 145.954 83.9924 145.906 84.3247 145.906C84.5747 145.906 84.8347 145.939 85.1046 146.004C85.3773 146.07 85.6301 146.183 85.8631 146.345C86.096 146.504 86.285 146.727 86.4299 147.014C86.5747 147.298 86.6472 147.659 86.6472 148.097V152.541H85.8887V151.506H85.8418C85.7509 151.699 85.6159 151.886 85.437 152.068C85.258 152.25 85.0335 152.399 84.7637 152.516C84.4938 152.632 84.177 152.69 83.8134 152.69ZM83.9156 151.996C84.3191 151.996 84.6685 151.906 84.9639 151.727C85.2594 151.548 85.4867 151.311 85.6458 151.016C85.8077 150.717 85.8887 150.389 85.8887 150.031V149.085C85.8318 149.139 85.7367 149.187 85.6031 149.23C85.4725 149.273 85.3205 149.311 85.1472 149.345C84.9767 149.376 84.8063 149.403 84.6358 149.426C84.4654 149.449 84.312 149.469 84.1756 149.486C83.8063 149.531 83.4909 149.602 83.2296 149.699C82.9682 149.795 82.7679 149.929 82.6287 150.099C82.4895 150.267 82.4199 150.483 82.4199 150.747C82.4199 151.145 82.562 151.453 82.846 151.672C83.1301 151.888 83.4867 151.996 83.9156 151.996ZM89.1835 143.814V152.541H88.4249V143.814H89.1835ZM90.9591 152.541V145.996H91.7219V152.541H90.9591ZM91.3469 144.871C91.1906 144.871 91.0571 144.818 90.9463 144.713C90.8355 144.605 90.7801 144.476 90.7801 144.325C90.7801 144.175 90.8355 144.047 90.9463 143.942C91.0571 143.834 91.1906 143.78 91.3469 143.78C91.5031 143.78 91.6366 143.834 91.7474 143.942C91.8582 144.047 91.9136 144.175 91.9136 144.325C91.9136 144.476 91.8582 144.605 91.7474 144.713C91.6366 144.818 91.5031 144.871 91.3469 144.871ZM96.066 145.996V146.656H92.9425V145.996H96.066ZM93.9183 144.428H94.6811V150.832C94.6811 151.105 94.728 151.32 94.8217 151.476C94.9155 151.629 95.0376 151.739 95.1882 151.804C95.3388 151.866 95.4993 151.898 95.6697 151.898C95.7692 151.898 95.8544 151.892 95.9254 151.881C95.9964 151.866 96.0589 151.852 96.1129 151.838L96.2748 152.524C96.201 152.553 96.1101 152.578 96.0021 152.601C95.8942 152.626 95.7606 152.639 95.6015 152.639C95.3231 152.639 95.0547 152.578 94.7961 152.456C94.5405 152.334 94.3302 152.152 94.1655 151.91C94.0007 151.669 93.9183 151.369 93.9183 151.011V144.428ZM98.0771 154.996C97.9265 154.996 97.7859 154.981 97.6552 154.953C97.5245 154.925 97.4208 154.893 97.3441 154.859L97.5487 154.19C97.8072 154.27 98.0373 154.298 98.239 154.276C98.4407 154.256 98.6197 154.165 98.776 154.003C98.9322 153.844 99.0714 153.599 99.1936 153.27L99.4322 152.605L97.0245 145.996H97.847L99.7902 151.54H99.8498L101.793 145.996H102.615L99.8456 153.577C99.7291 153.892 99.5856 154.155 99.4152 154.365C99.2447 154.578 99.0473 154.736 98.8228 154.838C98.6012 154.943 98.3527 154.996 98.0771 154.996ZM104.711 151.348L104.634 151.804C104.586 152.111 104.517 152.449 104.429 152.818C104.341 153.187 104.25 153.538 104.157 153.871C104.063 154.203 103.982 154.47 103.914 154.672H103.33C103.367 154.479 103.414 154.233 103.471 153.935C103.53 153.636 103.591 153.305 103.654 152.942C103.716 152.581 103.773 152.209 103.824 151.825L103.884 151.348H104.711ZM114.012 147.432L113.317 147.628C113.249 147.432 113.152 147.254 113.027 147.095C112.902 146.936 112.739 146.81 112.537 146.716C112.338 146.622 112.091 146.575 111.796 146.575C111.352 146.575 110.989 146.68 110.705 146.891C110.421 147.101 110.279 147.372 110.279 147.704C110.279 147.986 110.375 148.214 110.568 148.391C110.764 148.564 111.066 148.702 111.472 148.804L112.46 149.047C113.009 149.18 113.419 149.392 113.692 149.682C113.968 149.972 114.105 150.335 114.105 150.773C114.105 151.142 114.003 151.47 113.799 151.757C113.594 152.044 113.308 152.27 112.942 152.435C112.578 152.597 112.156 152.678 111.676 152.678C111.037 152.678 110.51 152.534 110.095 152.247C109.681 151.957 109.415 151.54 109.299 150.994L110.027 150.815C110.121 151.204 110.304 151.499 110.577 151.697C110.852 151.896 111.215 151.996 111.664 151.996C112.166 151.996 112.568 151.883 112.87 151.659C113.171 151.432 113.321 151.148 113.321 150.807C113.321 150.543 113.233 150.321 113.057 150.142C112.881 149.96 112.614 149.827 112.256 149.741L111.186 149.486C110.618 149.349 110.198 149.133 109.925 148.838C109.652 148.543 109.516 148.176 109.516 147.739C109.516 147.378 109.614 147.061 109.81 146.788C110.006 146.513 110.276 146.297 110.62 146.141C110.963 145.984 111.355 145.906 111.796 145.906C112.395 145.906 112.874 146.043 113.232 146.315C113.593 146.585 113.852 146.957 114.012 147.432ZM118.172 152.678C117.562 152.678 117.033 152.535 116.587 152.251C116.141 151.964 115.796 151.568 115.552 151.062C115.31 150.554 115.19 149.969 115.19 149.307C115.19 148.648 115.31 148.062 115.552 147.551C115.796 147.037 116.133 146.635 116.562 146.345C116.994 146.053 117.492 145.906 118.057 145.906C118.413 145.906 118.755 145.972 119.084 146.102C119.414 146.23 119.709 146.428 119.971 146.695C120.235 146.959 120.444 147.293 120.597 147.696C120.751 148.097 120.827 148.571 120.827 149.119V149.494H115.714V148.825H120.052C120.052 148.405 119.967 148.027 119.796 147.692C119.628 147.354 119.394 147.087 119.093 146.891C118.795 146.695 118.449 146.597 118.057 146.597C117.643 146.597 117.278 146.707 116.962 146.929C116.647 147.151 116.4 147.443 116.221 147.807C116.045 148.17 115.955 148.568 115.952 149V149.401C115.952 149.92 116.042 150.375 116.221 150.764C116.403 151.151 116.66 151.45 116.992 151.663C117.324 151.876 117.718 151.983 118.172 151.983C118.482 151.983 118.753 151.935 118.986 151.838C119.222 151.741 119.42 151.612 119.579 151.45C119.741 151.285 119.863 151.105 119.945 150.909L120.665 151.143C120.566 151.419 120.403 151.673 120.175 151.906C119.951 152.139 119.67 152.327 119.332 152.469C118.996 152.608 118.61 152.678 118.172 152.678ZM122.259 152.541V145.996H122.996V147.001H123.051C123.182 146.672 123.409 146.406 123.733 146.204C124.06 146 124.429 145.898 124.841 145.898C124.904 145.898 124.973 145.899 125.05 145.902C125.127 145.905 125.191 145.908 125.242 145.91V146.682C125.208 146.676 125.148 146.668 125.063 146.656C124.978 146.645 124.885 146.639 124.786 146.639C124.445 146.639 124.141 146.712 123.874 146.856C123.61 146.999 123.401 147.196 123.247 147.449C123.094 147.702 123.017 147.99 123.017 148.314V152.541H122.259ZM131.562 145.996L129.172 152.541H128.362L125.971 145.996H126.794L128.737 151.54H128.797L130.74 145.996H131.562ZM132.815 152.541V145.996H133.577V152.541H132.815ZM133.202 144.871C133.046 144.871 132.913 144.818 132.802 144.713C132.691 144.605 132.636 144.476 132.636 144.325C132.636 144.175 132.691 144.047 132.802 143.942C132.913 143.834 133.046 143.78 133.202 143.78C133.359 143.78 133.492 143.834 133.603 143.942C133.714 144.047 133.769 144.175 133.769 144.325C133.769 144.476 133.714 144.605 133.603 144.713C133.492 144.818 133.359 144.871 133.202 144.871ZM137.9 152.678C137.315 152.678 136.805 152.531 136.371 152.239C135.939 151.946 135.603 151.545 135.365 151.037C135.126 150.528 135.007 149.949 135.007 149.298C135.007 148.642 135.128 148.058 135.369 147.547C135.613 147.035 135.951 146.635 136.383 146.345C136.815 146.053 137.317 145.906 137.888 145.906C138.325 145.906 138.721 145.991 139.076 146.162C139.432 146.329 139.724 146.567 139.954 146.874C140.187 147.178 140.334 147.533 140.393 147.939H139.626C139.547 147.57 139.355 147.254 139.051 146.993C138.75 146.729 138.366 146.597 137.9 146.597C137.483 146.597 137.113 146.71 136.792 146.937C136.471 147.162 136.22 147.476 136.038 147.879C135.859 148.28 135.77 148.744 135.77 149.273C135.77 149.804 135.858 150.274 136.034 150.683C136.21 151.089 136.457 151.408 136.775 151.638C137.096 151.868 137.471 151.983 137.9 151.983C138.19 151.983 138.454 151.929 138.693 151.821C138.934 151.71 139.136 151.554 139.298 151.352C139.463 151.151 139.574 150.91 139.63 150.632H140.398C140.341 151.027 140.2 151.379 139.976 151.689C139.754 151.996 139.466 152.237 139.111 152.413C138.758 152.589 138.355 152.678 137.9 152.678ZM144.43 152.678C143.819 152.678 143.29 152.535 142.844 152.251C142.398 151.964 142.053 151.568 141.809 151.062C141.567 150.554 141.447 149.969 141.447 149.307C141.447 148.648 141.567 148.062 141.809 147.551C142.053 147.037 142.39 146.635 142.819 146.345C143.251 146.053 143.749 145.906 144.314 145.906C144.67 145.906 145.012 145.972 145.341 146.102C145.671 146.23 145.966 146.428 146.228 146.695C146.492 146.959 146.701 147.293 146.854 147.696C147.008 148.097 147.084 148.571 147.084 149.119V149.494H141.971V148.825H146.309C146.309 148.405 146.224 148.027 146.053 147.692C145.885 147.354 145.651 147.087 145.35 146.891C145.052 146.695 144.707 146.597 144.314 146.597C143.9 146.597 143.535 146.707 143.219 146.929C142.904 147.151 142.657 147.443 142.478 147.807C142.302 148.17 142.212 148.568 142.209 149V149.401C142.209 149.92 142.299 150.375 142.478 150.764C142.66 151.151 142.917 151.45 143.249 151.663C143.582 151.876 143.975 151.983 144.43 151.983C144.739 151.983 145.01 151.935 145.243 151.838C145.479 151.741 145.677 151.612 145.836 151.45C145.998 151.285 146.12 151.105 146.202 150.909L146.922 151.143C146.823 151.419 146.66 151.673 146.432 151.906C146.208 152.139 145.927 152.327 145.589 152.469C145.253 152.608 144.867 152.678 144.43 152.678ZM149.777 151.348L149.701 151.804C149.652 152.111 149.584 152.449 149.496 152.818C149.408 153.187 149.317 153.538 149.223 153.871C149.13 154.203 149.049 154.47 148.98 154.672H148.397C148.433 154.479 148.48 154.233 148.537 153.935C148.597 153.636 148.658 153.305 148.72 152.942C148.783 152.581 148.84 152.209 148.891 151.825L148.951 151.348H149.777ZM49.2971 167.541V158.814H50.0599V162.244H50.1281C50.2133 162.048 50.3355 161.847 50.4946 161.639C50.6565 161.432 50.8682 161.258 51.1295 161.119C51.3937 160.977 51.7261 160.906 52.1267 160.906C52.6636 160.906 53.1352 161.048 53.5415 161.332C53.9477 161.614 54.2645 162.008 54.4917 162.517C54.719 163.023 54.8326 163.612 54.8326 164.285C54.8326 164.962 54.719 165.554 54.4917 166.062C54.2673 166.571 53.952 166.967 53.5457 167.251C53.1423 167.535 52.6736 167.678 52.1395 167.678C51.7417 167.678 51.4094 167.606 51.1423 167.464C50.8781 167.322 50.665 167.148 50.5031 166.94C50.3412 166.73 50.2162 166.526 50.1281 166.327H50.0344V167.541H49.2971ZM50.0471 164.273C50.0471 164.801 50.1253 165.27 50.2815 165.679C50.4406 166.085 50.6679 166.405 50.9633 166.638C51.2616 166.868 51.6224 166.983 52.0457 166.983C52.4804 166.983 52.8483 166.864 53.1494 166.625C53.4505 166.383 53.6792 166.058 53.8355 165.649C53.9917 165.24 54.0699 164.781 54.0699 164.273C54.0699 163.77 53.9917 163.317 53.8355 162.913C53.6821 162.51 53.4548 162.19 53.1537 161.954C52.8525 161.716 52.4832 161.597 52.0457 161.597C51.6196 161.597 51.2574 161.712 50.9591 161.942C50.6636 162.169 50.4378 162.484 50.2815 162.888C50.1253 163.288 50.0471 163.75 50.0471 164.273ZM58.9051 167.678C58.2944 167.678 57.7659 167.535 57.3199 167.251C56.8739 166.964 56.5287 166.568 56.2844 166.062C56.0429 165.554 55.9222 164.969 55.9222 164.307C55.9222 163.648 56.0429 163.062 56.2844 162.551C56.5287 162.037 56.8654 161.635 57.2944 161.345C57.7262 161.053 58.2248 160.906 58.7901 160.906C59.1452 160.906 59.4875 160.972 59.8171 161.102C60.1466 161.23 60.4421 161.428 60.7034 161.695C60.9676 161.959 61.1765 162.293 61.3299 162.696C61.4833 163.097 61.56 163.571 61.56 164.119V164.494H56.4463V163.825H60.7844C60.7844 163.405 60.6992 163.027 60.5287 162.692C60.3611 162.354 60.1267 162.087 59.8256 161.891C59.5273 161.695 59.1821 161.597 58.7901 161.597C58.3753 161.597 58.0103 161.707 57.6949 161.929C57.3796 162.151 57.1324 162.443 56.9534 162.807C56.7773 163.17 56.6878 163.568 56.685 164V164.401C56.685 164.92 56.7745 165.375 56.9534 165.764C57.1353 166.151 57.3924 166.45 57.7248 166.663C58.0571 166.876 58.4506 166.983 58.9051 166.983C59.2148 166.983 59.4861 166.935 59.7191 166.838C59.9549 166.741 60.1523 166.612 60.3114 166.45C60.4733 166.285 60.5955 166.105 60.6779 165.909L61.398 166.143C61.2986 166.419 61.1353 166.673 60.908 166.906C60.6836 167.139 60.4023 167.327 60.0642 167.469C59.729 167.608 59.3426 167.678 58.9051 167.678ZM63.75 163.45V167.541H62.9915V160.996H63.7287V162.023H63.7969C63.9503 161.687 64.1889 161.419 64.5128 161.217C64.8395 161.013 65.2429 160.91 65.723 160.91C66.1634 160.91 66.5497 161.003 66.8821 161.187C67.2174 161.369 67.4773 161.638 67.662 161.993C67.8495 162.348 67.9432 162.784 67.9432 163.301V167.541H67.1847V163.348C67.1847 162.811 67.0341 162.386 66.733 162.074C66.4347 161.761 66.0341 161.605 65.5313 161.605C65.1875 161.605 64.8821 161.679 64.6151 161.827C64.348 161.974 64.1364 162.187 63.9801 162.466C63.8267 162.741 63.75 163.07 63.75 163.45ZM72.347 167.678C71.7362 167.678 71.2078 167.535 70.7618 167.251C70.3158 166.964 69.9706 166.568 69.7263 166.062C69.4848 165.554 69.3641 164.969 69.3641 164.307C69.3641 163.648 69.4848 163.062 69.7263 162.551C69.9706 162.037 70.3073 161.635 70.7362 161.345C71.168 161.053 71.6666 160.906 72.232 160.906C72.5871 160.906 72.9294 160.972 73.259 161.102C73.5885 161.23 73.884 161.428 74.1453 161.695C74.4095 161.959 74.6183 162.293 74.7717 162.696C74.9251 163.097 75.0019 163.571 75.0019 164.119V164.494H69.8882V163.825H74.2263C74.2263 163.405 74.1411 163.027 73.9706 162.692C73.803 162.354 73.5686 162.087 73.2675 161.891C72.9692 161.695 72.624 161.597 72.232 161.597C71.8172 161.597 71.4521 161.707 71.1368 161.929C70.8215 162.151 70.5743 162.443 70.3953 162.807C70.2192 163.17 70.1297 163.568 70.1269 164V164.401C70.1269 164.92 70.2163 165.375 70.3953 165.764C70.5771 166.151 70.8342 166.45 71.1666 166.663C71.499 166.876 71.8925 166.983 72.347 166.983C72.6567 166.983 72.928 166.935 73.1609 166.838C73.3967 166.741 73.5942 166.612 73.7533 166.45C73.9152 166.285 74.0374 166.105 74.1198 165.909L74.8399 166.143C74.7405 166.419 74.5771 166.673 74.3499 166.906C74.1254 167.139 73.8442 167.327 73.5061 167.469C73.1709 167.608 72.7845 167.678 72.347 167.678ZM79.1266 160.996V161.656H75.9092V160.996H79.1266ZM76.9149 167.541V160.037C76.9149 159.685 76.9959 159.388 77.1578 159.146C77.3226 158.905 77.5371 158.722 77.8013 158.597C78.0655 158.472 78.3453 158.409 78.6408 158.409C78.8396 158.409 79.0044 158.426 79.1351 158.46C79.2686 158.491 79.3737 158.523 79.4504 158.554L79.2288 159.219C79.172 159.202 79.1024 159.182 79.02 159.159C78.9376 159.136 78.8339 159.125 78.7089 159.125C78.3794 159.125 78.1251 159.217 77.9462 159.402C77.7672 159.587 77.6777 159.851 77.6777 160.195L77.6734 167.541H76.9149ZM80.4089 167.541V160.996H81.1717V167.541H80.4089ZM80.7967 159.871C80.6405 159.871 80.5069 159.818 80.3961 159.713C80.2853 159.605 80.2299 159.476 80.2299 159.325C80.2299 159.175 80.2853 159.047 80.3961 158.942C80.5069 158.834 80.6405 158.78 80.7967 158.78C80.953 158.78 81.0865 158.834 81.1973 158.942C81.3081 159.047 81.3635 159.175 81.3635 159.325C81.3635 159.476 81.3081 159.605 81.1973 159.713C81.0865 159.818 80.953 159.871 80.7967 159.871ZM85.5159 160.996V161.656H82.3923V160.996H85.5159ZM83.3681 159.428H84.1309V165.832C84.1309 166.105 84.1778 166.32 84.2716 166.476C84.3653 166.629 84.4875 166.739 84.638 166.804C84.7886 166.866 84.9491 166.898 85.1196 166.898C85.219 166.898 85.3042 166.892 85.3752 166.881C85.4463 166.866 85.5088 166.852 85.5627 166.838L85.7247 167.524C85.6508 167.553 85.5599 167.578 85.452 167.601C85.344 167.626 85.2105 167.639 85.0514 167.639C84.773 167.639 84.5045 167.578 84.246 167.456C83.9903 167.334 83.7801 167.152 83.6153 166.91C83.4505 166.669 83.3681 166.369 83.3681 166.011V159.428ZM91.2791 162.432L90.5845 162.628C90.5163 162.432 90.4197 162.254 90.2947 162.095C90.1697 161.936 90.0063 161.81 89.8046 161.716C89.6058 161.622 89.3586 161.575 89.0632 161.575C88.62 161.575 88.2563 161.68 87.9723 161.891C87.6882 162.101 87.5461 162.372 87.5461 162.704C87.5461 162.986 87.6427 163.214 87.8359 163.391C88.0319 163.564 88.333 163.702 88.7393 163.804L89.7279 164.047C90.2762 164.18 90.6867 164.392 90.9595 164.682C91.235 164.972 91.3728 165.335 91.3728 165.773C91.3728 166.142 91.2705 166.47 91.066 166.757C90.8615 167.044 90.5759 167.27 90.2095 167.435C89.8458 167.597 89.424 167.678 88.9438 167.678C88.3046 167.678 87.7776 167.534 87.3629 167.247C86.9481 166.957 86.6825 166.54 86.566 165.994L87.2947 165.815C87.3884 166.204 87.5717 166.499 87.8444 166.697C88.12 166.896 88.4822 166.996 88.9311 166.996C89.4339 166.996 89.8359 166.883 90.137 166.659C90.4382 166.432 90.5887 166.148 90.5887 165.807C90.5887 165.543 90.5007 165.321 90.3245 165.142C90.1484 164.96 89.8813 164.827 89.5234 164.741L88.4538 164.486C87.8856 164.349 87.4651 164.133 87.1924 163.838C86.9197 163.543 86.7833 163.176 86.7833 162.739C86.7833 162.378 86.8813 162.061 87.0774 161.788C87.2734 161.513 87.5433 161.297 87.887 161.141C88.2308 160.984 88.6228 160.906 89.0632 160.906C89.6626 160.906 90.1413 161.043 90.4992 161.315C90.86 161.585 91.12 161.957 91.2791 162.432ZM97.7568 167.69C97.3619 167.69 97.0011 167.614 96.6744 167.46C96.3477 167.304 96.0878 167.079 95.8946 166.787C95.7014 166.491 95.6048 166.133 95.6048 165.713C95.6048 165.389 95.6659 165.116 95.7881 164.895C95.9102 164.673 96.0835 164.491 96.3079 164.349C96.5324 164.207 96.798 164.095 97.1048 164.013C97.4116 163.93 97.7497 163.866 98.119 163.821C98.4855 163.776 98.7952 163.736 99.048 163.702C99.3037 163.668 99.4983 163.614 99.6318 163.54C99.7653 163.466 99.8321 163.347 99.8321 163.182V163.028C99.8321 162.582 99.6986 162.231 99.4315 161.976C99.1673 161.717 98.7866 161.588 98.2895 161.588C97.8179 161.588 97.4329 161.692 97.1347 161.899C96.8392 162.106 96.6318 162.351 96.5125 162.632L95.7923 162.372C95.94 162.014 96.1446 161.729 96.406 161.516C96.6673 161.3 96.9599 161.145 97.2838 161.051C97.6077 160.954 97.9358 160.906 98.2682 160.906C98.5182 160.906 98.7781 160.939 99.048 161.004C99.3207 161.07 99.5736 161.183 99.8065 161.345C100.039 161.504 100.228 161.727 100.373 162.014C100.518 162.298 100.591 162.659 100.591 163.097V167.541H99.8321V166.506H99.7852C99.6943 166.699 99.5594 166.886 99.3804 167.068C99.2014 167.25 98.977 167.399 98.7071 167.516C98.4372 167.632 98.1204 167.69 97.7568 167.69ZM97.8591 166.996C98.2625 166.996 98.6119 166.906 98.9074 166.727C99.2028 166.548 99.4301 166.311 99.5892 166.016C99.7511 165.717 99.8321 165.389 99.8321 165.031V164.085C99.7753 164.139 99.6801 164.187 99.5466 164.23C99.4159 164.273 99.2639 164.311 99.0906 164.345C98.9202 164.376 98.7497 164.403 98.5793 164.426C98.4088 164.449 98.2554 164.469 98.119 164.486C97.7497 164.531 97.4344 164.602 97.173 164.699C96.9116 164.795 96.7114 164.929 96.5722 165.099C96.4329 165.267 96.3633 165.483 96.3633 165.747C96.3633 166.145 96.5054 166.453 96.7895 166.672C97.0736 166.888 97.4301 166.996 97.8591 166.996ZM104.946 160.996V161.656H101.823V160.996H104.946ZM102.799 159.428H103.562V165.832C103.562 166.105 103.608 166.32 103.702 166.476C103.796 166.629 103.918 166.739 104.069 166.804C104.219 166.866 104.38 166.898 104.55 166.898C104.65 166.898 104.735 166.892 104.806 166.881C104.877 166.866 104.939 166.852 104.993 166.838L105.155 167.524C105.081 167.553 104.991 167.578 104.883 167.601C104.775 167.626 104.641 167.639 104.482 167.639C104.204 167.639 103.935 167.578 103.677 167.456C103.421 167.334 103.211 167.152 103.046 166.91C102.881 166.669 102.799 166.369 102.799 166.011V159.428ZM109.564 167.541V160.996H110.301V162.001H110.357C110.487 161.672 110.715 161.406 111.039 161.204C111.365 161 111.735 160.898 112.147 160.898C112.209 160.898 112.279 160.899 112.355 160.902C112.432 160.905 112.496 160.908 112.547 160.91V161.682C112.513 161.676 112.453 161.668 112.368 161.656C112.283 161.645 112.191 161.639 112.091 161.639C111.75 161.639 111.446 161.712 111.179 161.856C110.915 161.999 110.706 162.196 110.553 162.449C110.399 162.702 110.323 162.99 110.323 163.314V167.541H109.564ZM116.049 167.678C115.438 167.678 114.909 167.535 114.463 167.251C114.017 166.964 113.672 166.568 113.428 166.062C113.186 165.554 113.066 164.969 113.066 164.307C113.066 163.648 113.186 163.062 113.428 162.551C113.672 162.037 114.009 161.635 114.438 161.345C114.87 161.053 115.368 160.906 115.934 160.906C116.289 160.906 116.631 160.972 116.961 161.102C117.29 161.23 117.586 161.428 117.847 161.695C118.111 161.959 118.32 162.293 118.473 162.696C118.627 163.097 118.703 163.571 118.703 164.119V164.494H113.59V163.825H117.928C117.928 163.405 117.843 163.027 117.672 162.692C117.505 162.354 117.27 162.087 116.969 161.891C116.671 161.695 116.326 161.597 115.934 161.597C115.519 161.597 115.154 161.707 114.838 161.929C114.523 162.151 114.276 162.443 114.097 162.807C113.921 163.17 113.831 163.568 113.828 164V164.401C113.828 164.92 113.918 165.375 114.097 165.764C114.279 166.151 114.536 166.45 114.868 166.663C115.201 166.876 115.594 166.983 116.049 166.983C116.358 166.983 116.63 166.935 116.863 166.838C117.098 166.741 117.296 166.612 117.455 166.45C117.617 166.285 117.739 166.105 117.821 165.909L118.541 166.143C118.442 166.419 118.279 166.673 118.051 166.906C117.827 167.139 117.546 167.327 117.208 167.469C116.872 167.608 116.486 167.678 116.049 167.678ZM121.963 167.69C121.568 167.69 121.207 167.614 120.881 167.46C120.554 167.304 120.294 167.079 120.101 166.787C119.908 166.491 119.811 166.133 119.811 165.713C119.811 165.389 119.872 165.116 119.994 164.895C120.116 164.673 120.29 164.491 120.514 164.349C120.739 164.207 121.004 164.095 121.311 164.013C121.618 163.93 121.956 163.866 122.325 163.821C122.692 163.776 123.001 163.736 123.254 163.702C123.51 163.668 123.705 163.614 123.838 163.54C123.972 163.466 124.038 163.347 124.038 163.182V163.028C124.038 162.582 123.905 162.231 123.638 161.976C123.374 161.717 122.993 161.588 122.496 161.588C122.024 161.588 121.639 161.692 121.341 161.899C121.045 162.106 120.838 162.351 120.719 162.632L119.999 162.372C120.146 162.014 120.351 161.729 120.612 161.516C120.874 161.3 121.166 161.145 121.49 161.051C121.814 160.954 122.142 160.906 122.474 160.906C122.724 160.906 122.984 160.939 123.254 161.004C123.527 161.07 123.78 161.183 124.013 161.345C124.246 161.504 124.435 161.727 124.58 162.014C124.724 162.298 124.797 162.659 124.797 163.097V167.541H124.038V166.506H123.991C123.901 166.699 123.766 166.886 123.587 167.068C123.408 167.25 123.183 167.399 122.913 167.516C122.643 167.632 122.327 167.69 121.963 167.69ZM122.065 166.996C122.469 166.996 122.818 166.906 123.114 166.727C123.409 166.548 123.636 166.311 123.795 166.016C123.957 165.717 124.038 165.389 124.038 165.031V164.085C123.982 164.139 123.886 164.187 123.753 164.23C123.622 164.273 123.47 164.311 123.297 164.345C123.126 164.376 122.956 164.403 122.786 164.426C122.615 164.449 122.462 164.469 122.325 164.486C121.956 164.531 121.641 164.602 121.379 164.699C121.118 164.795 120.918 164.929 120.778 165.099C120.639 165.267 120.57 165.483 120.57 165.747C120.57 166.145 120.712 166.453 120.996 166.672C121.28 166.888 121.636 166.996 122.065 166.996ZM130.972 162.432L130.278 162.628C130.21 162.432 130.113 162.254 129.988 162.095C129.863 161.936 129.7 161.81 129.498 161.716C129.299 161.622 129.052 161.575 128.756 161.575C128.313 161.575 127.95 161.68 127.666 161.891C127.381 162.101 127.239 162.372 127.239 162.704C127.239 162.986 127.336 163.214 127.529 163.391C127.725 163.564 128.026 163.702 128.433 163.804L129.421 164.047C129.97 164.18 130.38 164.392 130.653 164.682C130.928 164.972 131.066 165.335 131.066 165.773C131.066 166.142 130.964 166.47 130.759 166.757C130.555 167.044 130.269 167.27 129.903 167.435C129.539 167.597 129.117 167.678 128.637 167.678C127.998 167.678 127.471 167.534 127.056 167.247C126.641 166.957 126.376 166.54 126.259 165.994L126.988 165.815C127.082 166.204 127.265 166.499 127.538 166.697C127.813 166.896 128.175 166.996 128.624 166.996C129.127 166.996 129.529 166.883 129.83 166.659C130.131 166.432 130.282 166.148 130.282 165.807C130.282 165.543 130.194 165.321 130.018 165.142C129.842 164.96 129.575 164.827 129.217 164.741L128.147 164.486C127.579 164.349 127.158 164.133 126.886 163.838C126.613 163.543 126.477 163.176 126.477 162.739C126.477 162.378 126.575 162.061 126.771 161.788C126.967 161.513 127.237 161.297 127.58 161.141C127.924 160.984 128.316 160.906 128.756 160.906C129.356 160.906 129.835 161.043 130.193 161.315C130.553 161.585 130.813 161.957 130.972 162.432ZM135.031 167.678C134.466 167.678 133.966 167.534 133.531 167.247C133.099 166.96 132.761 166.564 132.517 166.058C132.272 165.55 132.15 164.963 132.15 164.298C132.15 163.628 132.272 163.038 132.517 162.53C132.761 162.018 133.099 161.621 133.531 161.337C133.966 161.05 134.466 160.906 135.031 160.906C135.596 160.906 136.095 161.05 136.527 161.337C136.959 161.624 137.297 162.021 137.541 162.53C137.788 163.038 137.912 163.628 137.912 164.298C137.912 164.963 137.79 165.55 137.545 166.058C137.301 166.564 136.961 166.96 136.527 167.247C136.095 167.534 135.596 167.678 135.031 167.678ZM135.031 166.983C135.486 166.983 135.87 166.861 136.186 166.616C136.501 166.372 136.74 166.047 136.902 165.641C137.067 165.234 137.149 164.787 137.149 164.298C137.149 163.81 137.067 163.361 136.902 162.952C136.74 162.543 136.501 162.214 136.186 161.967C135.87 161.72 135.486 161.597 135.031 161.597C134.579 161.597 134.194 161.72 133.876 161.967C133.561 162.214 133.321 162.543 133.156 162.952C132.994 163.361 132.913 163.81 132.913 164.298C132.913 164.787 132.994 165.234 133.156 165.641C133.321 166.047 133.561 166.372 133.876 166.616C134.192 166.861 134.576 166.983 135.031 166.983ZM140.095 163.45V167.541H139.337V160.996H140.074V162.023H140.142C140.296 161.687 140.534 161.419 140.858 161.217C141.185 161.013 141.588 160.91 142.068 160.91C142.509 160.91 142.895 161.003 143.227 161.187C143.563 161.369 143.823 161.638 144.007 161.993C144.195 162.348 144.289 162.784 144.289 163.301V167.541H143.53V163.348C143.53 162.811 143.379 162.386 143.078 162.074C142.78 161.761 142.379 161.605 141.877 161.605C141.533 161.605 141.227 161.679 140.96 161.827C140.693 161.974 140.482 162.187 140.325 162.466C140.172 162.741 140.095 163.07 140.095 163.45ZM147.874 167.69C147.479 167.69 147.118 167.614 146.792 167.46C146.465 167.304 146.205 167.079 146.012 166.787C145.819 166.491 145.722 166.133 145.722 165.713C145.722 165.389 145.783 165.116 145.905 164.895C146.028 164.673 146.201 164.491 146.425 164.349C146.65 164.207 146.915 164.095 147.222 164.013C147.529 163.93 147.867 163.866 148.236 163.821C148.603 163.776 148.913 163.736 149.165 163.702C149.421 163.668 149.616 163.614 149.749 163.54C149.883 163.466 149.949 163.347 149.949 163.182V163.028C149.949 162.582 149.816 162.231 149.549 161.976C149.285 161.717 148.904 161.588 148.407 161.588C147.935 161.588 147.55 161.692 147.252 161.899C146.957 162.106 146.749 162.351 146.63 162.632L145.91 162.372C146.057 162.014 146.262 161.729 146.523 161.516C146.785 161.3 147.077 161.145 147.401 161.051C147.725 160.954 148.053 160.906 148.386 160.906C148.636 160.906 148.895 160.939 149.165 161.004C149.438 161.07 149.691 161.183 149.924 161.345C150.157 161.504 150.346 161.727 150.491 162.014C150.636 162.298 150.708 162.659 150.708 163.097V167.541H149.949V166.506H149.903C149.812 166.699 149.677 166.886 149.498 167.068C149.319 167.25 149.094 167.399 148.824 167.516C148.555 167.632 148.238 167.69 147.874 167.69ZM147.976 166.996C148.38 166.996 148.729 166.906 149.025 166.727C149.32 166.548 149.547 166.311 149.707 166.016C149.868 165.717 149.949 165.389 149.949 165.031V164.085C149.893 164.139 149.797 164.187 149.664 164.23C149.533 164.273 149.381 164.311 149.208 164.345C149.038 164.376 148.867 164.403 148.697 164.426C148.526 164.449 148.373 164.469 148.236 164.486C147.867 164.531 147.552 164.602 147.29 164.699C147.029 164.795 146.829 164.929 146.689 165.099C146.55 165.267 146.481 165.483 146.481 165.747C146.481 166.145 146.623 166.453 146.907 166.672C147.191 166.888 147.547 166.996 147.976 166.996ZM152.643 167.541V158.814H153.406V162.244H153.474C153.56 162.048 153.682 161.847 153.841 161.639C154.003 161.432 154.214 161.258 154.476 161.119C154.74 160.977 155.072 160.906 155.473 160.906C156.01 160.906 156.481 161.048 156.888 161.332C157.294 161.614 157.611 162.008 157.838 162.517C158.065 163.023 158.179 163.612 158.179 164.285C158.179 164.962 158.065 165.554 157.838 166.062C157.614 166.571 157.298 166.967 156.892 167.251C156.489 167.535 156.02 167.678 155.486 167.678C155.088 167.678 154.756 167.606 154.489 167.464C154.224 167.322 154.011 167.148 153.849 166.94C153.687 166.73 153.562 166.526 153.474 166.327H153.381V167.541H152.643ZM153.393 164.273C153.393 164.801 153.472 165.27 153.628 165.679C153.787 166.085 154.014 166.405 154.31 166.638C154.608 166.868 154.969 166.983 155.392 166.983C155.827 166.983 156.195 166.864 156.496 166.625C156.797 166.383 157.025 166.058 157.182 165.649C157.338 165.24 157.416 164.781 157.416 164.273C157.416 163.77 157.338 163.317 157.182 162.913C157.028 162.51 156.801 162.19 156.5 161.954C156.199 161.716 155.829 161.597 155.392 161.597C154.966 161.597 154.604 161.712 154.305 161.942C154.01 162.169 153.784 162.484 153.628 162.888C153.472 163.288 153.393 163.75 153.393 164.273ZM160.364 158.814V167.541H159.605V158.814H160.364ZM164.777 167.678C164.166 167.678 163.638 167.535 163.192 167.251C162.746 166.964 162.401 166.568 162.156 166.062C161.915 165.554 161.794 164.969 161.794 164.307C161.794 163.648 161.915 163.062 162.156 162.551C162.401 162.037 162.737 161.635 163.166 161.345C163.598 161.053 164.097 160.906 164.662 160.906C165.017 160.906 165.359 160.972 165.689 161.102C166.018 161.23 166.314 161.428 166.575 161.695C166.84 161.959 167.048 162.293 167.202 162.696C167.355 163.097 167.432 163.571 167.432 164.119V164.494H162.318V163.825H166.656C166.656 163.405 166.571 163.027 166.401 162.692C166.233 162.354 165.999 162.087 165.697 161.891C165.399 161.695 165.054 161.597 164.662 161.597C164.247 161.597 163.882 161.707 163.567 161.929C163.251 162.151 163.004 162.443 162.825 162.807C162.649 163.17 162.56 163.568 162.557 164V164.401C162.557 164.92 162.646 165.375 162.825 165.764C163.007 166.151 163.264 166.45 163.597 166.663C163.929 166.876 164.322 166.983 164.777 166.983C165.087 166.983 165.358 166.935 165.591 166.838C165.827 166.741 166.024 166.612 166.183 166.45C166.345 166.285 166.467 166.105 166.55 165.909L167.27 166.143C167.17 166.419 167.007 166.673 166.78 166.906C166.555 167.139 166.274 167.327 165.936 167.469C165.601 167.608 165.215 167.678 164.777 167.678ZM91.0827 184.996V175.996H91.82V177.244H91.9095C92.0004 177.048 92.1254 176.848 92.2845 176.643C92.4435 176.436 92.6538 176.261 92.9151 176.119C93.1793 175.977 93.5117 175.906 93.9123 175.906C94.4521 175.906 94.9237 176.048 95.3271 176.332C95.7333 176.614 96.0487 177.008 96.2731 177.517C96.5004 178.023 96.614 178.612 96.614 179.285C96.614 179.962 96.5004 180.554 96.2731 181.062C96.0487 181.571 95.7333 181.967 95.3271 182.251C94.9237 182.535 94.4549 182.678 93.9208 182.678C93.5259 182.678 93.195 182.606 92.9279 182.464C92.6637 182.322 92.4492 182.148 92.2845 181.94C92.1225 181.73 91.9975 181.526 91.9095 181.327H91.8413V184.996H91.0827ZM91.8327 179.273C91.8327 179.801 91.9109 180.27 92.0671 180.679C92.2262 181.085 92.4535 181.405 92.7489 181.638C93.0472 181.868 93.408 181.983 93.8313 181.983C94.266 181.983 94.6325 181.864 94.9308 181.625C95.2319 181.383 95.4606 181.058 95.6168 180.649C95.7759 180.24 95.8555 179.781 95.8555 179.273C95.8555 178.77 95.7774 178.317 95.6211 177.913C95.4677 177.51 95.2404 177.19 94.9393 176.954C94.6381 176.716 94.2688 176.597 93.8313 176.597C93.4052 176.597 93.043 176.712 92.7447 176.942C92.4464 177.169 92.2191 177.484 92.0629 177.888C91.9095 178.288 91.8327 178.75 91.8327 179.273ZM98.0381 182.541V175.996H98.7753V177.001H98.8307C98.9614 176.672 99.1886 176.406 99.5125 176.204C99.8392 176 100.209 175.898 100.62 175.898C100.683 175.898 100.753 175.899 100.829 175.902C100.906 175.905 100.97 175.908 101.021 175.91V176.682C100.987 176.676 100.927 176.668 100.842 176.656C100.757 176.645 100.664 176.639 100.565 176.639C100.224 176.639 99.9202 176.712 99.6531 176.856C99.3889 176.999 99.1801 177.196 99.0267 177.449C98.8733 177.702 98.7966 177.99 98.7966 178.314V182.541H98.0381ZM102.084 182.541V175.996H102.847V182.541H102.084ZM102.472 174.871C102.315 174.871 102.182 174.818 102.071 174.713C101.96 174.605 101.905 174.476 101.905 174.325C101.905 174.175 101.96 174.047 102.071 173.942C102.182 173.834 102.315 173.78 102.472 173.78C102.628 173.78 102.761 173.834 102.872 173.942C102.983 174.047 103.038 174.175 103.038 174.325C103.038 174.476 102.983 174.605 102.872 174.713C102.761 174.818 102.628 174.871 102.472 174.871ZM107.17 182.678C106.584 182.678 106.074 182.531 105.64 182.239C105.208 181.946 104.873 181.545 104.634 181.037C104.395 180.528 104.276 179.949 104.276 179.298C104.276 178.642 104.397 178.058 104.638 177.547C104.883 177.035 105.221 176.635 105.653 176.345C106.084 176.053 106.586 175.906 107.157 175.906C107.594 175.906 107.991 175.991 108.346 176.162C108.701 176.329 108.993 176.567 109.224 176.874C109.456 177.178 109.603 177.533 109.662 177.939H108.895C108.816 177.57 108.624 177.254 108.32 176.993C108.019 176.729 107.635 176.597 107.17 176.597C106.752 176.597 106.383 176.71 106.062 176.937C105.741 177.162 105.489 177.476 105.307 177.879C105.128 178.28 105.039 178.744 105.039 179.273C105.039 179.804 105.127 180.274 105.303 180.683C105.479 181.089 105.726 181.408 106.045 181.638C106.366 181.868 106.741 181.983 107.17 181.983C107.459 181.983 107.724 181.929 107.962 181.821C108.204 181.71 108.405 181.554 108.567 181.352C108.732 181.151 108.843 180.91 108.9 180.632H109.667C109.61 181.027 109.469 181.379 109.245 181.689C109.023 181.996 108.735 182.237 108.38 182.413C108.028 182.589 107.624 182.678 107.17 182.678ZM113.699 182.678C113.088 182.678 112.56 182.535 112.114 182.251C111.667 181.964 111.322 181.568 111.078 181.062C110.837 180.554 110.716 179.969 110.716 179.307C110.716 178.648 110.837 178.062 111.078 177.551C111.322 177.037 111.659 176.635 112.088 176.345C112.52 176.053 113.018 175.906 113.584 175.906C113.939 175.906 114.281 175.972 114.611 176.102C114.94 176.23 115.236 176.428 115.497 176.695C115.761 176.959 115.97 177.293 116.123 177.696C116.277 178.097 116.354 178.571 116.354 179.119V179.494H111.24V178.825H115.578C115.578 178.405 115.493 178.027 115.322 177.692C115.155 177.354 114.92 177.087 114.619 176.891C114.321 176.695 113.976 176.597 113.584 176.597C113.169 176.597 112.804 176.707 112.489 176.929C112.173 177.151 111.926 177.443 111.747 177.807C111.571 178.17 111.481 178.568 111.479 179V179.401C111.479 179.92 111.568 180.375 111.747 180.764C111.929 181.151 112.186 181.45 112.518 181.663C112.851 181.876 113.244 181.983 113.699 181.983C114.008 181.983 114.28 181.935 114.513 181.838C114.748 181.741 114.946 181.612 115.105 181.45C115.267 181.285 115.389 181.105 115.471 180.909L116.192 181.143C116.092 181.419 115.929 181.673 115.702 181.906C115.477 182.139 115.196 182.327 114.858 182.469C114.523 182.608 114.136 182.678 113.699 182.678ZM122.183 177.432L121.488 177.628C121.42 177.432 121.323 177.254 121.198 177.095C121.073 176.936 120.91 176.81 120.708 176.716C120.51 176.622 120.262 176.575 119.967 176.575C119.524 176.575 119.16 176.68 118.876 176.891C118.592 177.101 118.45 177.372 118.45 177.704C118.45 177.986 118.546 178.214 118.74 178.391C118.936 178.564 119.237 178.702 119.643 178.804L120.632 179.047C121.18 179.18 121.59 179.392 121.863 179.682C122.139 179.972 122.277 180.335 122.277 180.773C122.277 181.142 122.174 181.47 121.97 181.757C121.765 182.044 121.48 182.27 121.113 182.435C120.75 182.597 120.328 182.678 119.848 182.678C119.208 182.678 118.681 182.534 118.267 182.247C117.852 181.957 117.586 181.54 117.47 180.994L118.198 180.815C118.292 181.204 118.475 181.499 118.748 181.697C119.024 181.896 119.386 181.996 119.835 181.996C120.338 181.996 120.74 181.883 121.041 181.659C121.342 181.432 121.492 181.148 121.492 180.807C121.492 180.543 121.404 180.321 121.228 180.142C121.052 179.96 120.785 179.827 120.427 179.741L119.358 179.486C118.789 179.349 118.369 179.133 118.096 178.838C117.823 178.543 117.687 178.176 117.687 177.739C117.687 177.378 117.785 177.061 117.981 176.788C118.177 176.513 118.447 176.297 118.791 176.141C119.135 175.984 119.527 175.906 119.967 175.906C120.566 175.906 121.045 176.043 121.403 176.315C121.764 176.585 122.024 176.957 122.183 177.432ZM124.303 182.605C124.135 182.605 123.99 182.545 123.868 182.426C123.749 182.304 123.689 182.159 123.689 181.991C123.689 181.821 123.749 181.676 123.868 181.557C123.99 181.437 124.135 181.378 124.303 181.378C124.473 181.378 124.618 181.437 124.737 181.557C124.857 181.676 124.916 181.821 124.916 181.991C124.916 182.102 124.888 182.204 124.831 182.298C124.777 182.392 124.703 182.467 124.609 182.524C124.518 182.578 124.416 182.605 124.303 182.605Z" fill="black"/>
</svg>
