<svg width="46" height="46" viewBox="0 0 46 46" fill="none" xmlns="http://www.w3.org/2000/svg">
<g id="Phone / Light / Duotone" clip-path="url(#clip0_237_5670)">
<path id="Shape" opacity="0.25" d="M40.9978 37.529L37.3467 41.1802C37.3467 41.1802 27.8597 45.246 14.3068 31.6931C0.753911 18.1403 4.81977 8.65325 4.81977 8.65325L8.47089 5.00213C10.1204 3.35261 12.8485 3.54649 14.2481 5.41271L17.7332 10.0594C18.8778 11.5855 18.726 13.7211 17.3771 15.07L14.3068 18.1403C14.3068 18.1403 14.3068 20.8508 19.7279 26.272C25.1491 31.6931 27.8597 31.6931 27.8597 31.6931L30.93 28.6229C32.2789 27.2739 34.4144 27.1222 35.9405 28.2668L40.5872 31.7518C42.4534 33.1515 42.6473 35.8795 40.9978 37.529Z" fill="white"/>
<path id="Shape_2" d="M8.47086 5.00231L7.53032 5.94285L15.662 16.7852L17.377 15.0702C18.726 13.7212 18.8777 11.5857 17.7331 10.0596L14.2481 5.41289C12.8484 3.54667 10.1204 3.35279 8.47086 5.00231Z" fill="white"/>
<path id="Shape_3" d="M40.9978 37.5291L40.0572 38.4696L29.2149 30.3379L30.9299 28.6229C32.2788 27.274 34.4143 27.1222 35.9405 28.2668L40.5872 31.7518C42.4534 33.1515 42.6473 35.8796 40.9978 37.5291Z" fill="white"/>
</g>
<defs>
<clipPath id="clip0_237_5670">
<rect width="46" height="46" fill="white"/>
</clipPath>
</defs>
</svg>
