<svg width="235" height="220" viewBox="0 0 235 220" fill="none" xmlns="http://www.w3.org/2000/svg">
<path d="M234.638 109.903L211.625 96.627V123.18L234.638 109.903Z" fill="#005FAC"/>
<path d="M179.789 -0.00976562H107.908V5.59585V11.2015V208.605V214.211V219.816H179.789C200.763 219.816 217.821 202.758 217.821 181.784V38.0226C217.821 17.0485 200.763 -0.00976562 179.789 -0.00976562Z" fill="#005FAC"/>
<path d="M3.57451 39.6319C2.63577 39.6319 1.88477 38.8809 1.88477 37.9421C1.88477 37.4594 1.88479 36.9498 1.91161 36.467C1.93843 35.5282 2.74307 34.8309 3.65499 34.8577C4.59373 34.8845 5.29108 35.6892 5.26426 36.6011C5.23743 37.0302 5.23741 37.4862 5.23741 37.9421C5.23741 38.8809 4.48643 39.6319 3.57451 39.6319ZM7.14174 24.7998C6.87352 24.7998 6.63213 24.7461 6.36392 24.612C5.53246 24.1829 5.21059 23.1637 5.63973 22.3591C5.8543 21.9299 6.09571 21.5008 6.3371 21.0716C6.79306 20.267 7.81226 19.972 8.6169 20.4548C9.42153 20.9107 9.71655 21.9299 9.23377 22.7346C9.0192 23.1101 8.80462 23.5124 8.59005 23.9147C8.34866 24.4511 7.75862 24.7998 7.14174 24.7998ZM17.1192 13.2399C16.6096 13.2399 16.0732 12.9985 15.7513 12.5425C15.2149 11.7915 15.3758 10.7455 16.1268 10.2091C16.5291 9.91405 16.9315 9.64584 17.3338 9.37763C18.1116 8.86802 19.1576 9.08259 19.6672 9.86041C20.1768 10.6382 19.9622 11.6842 19.1844 12.1938C18.8089 12.4352 18.4602 12.6766 18.0847 12.9448C17.8165 13.1326 17.4679 13.2399 17.1192 13.2399ZM31.2539 7.52697C30.4225 7.52697 29.7251 6.9369 29.591 6.07863C29.4569 5.16671 30.1006 4.30843 31.0126 4.17432C31.4953 4.09386 31.9781 4.04022 32.4609 3.98658C33.3728 3.87929 34.2043 4.54982 34.3115 5.48856C34.4188 6.40048 33.7483 7.23193 32.8096 7.33922C32.3804 7.39286 31.9245 7.4465 31.4953 7.50015C31.4149 7.50015 31.3344 7.52697 31.2539 7.52697ZM94.2836 7.17829H92.8889C91.9502 7.17829 91.1992 6.4273 91.1992 5.48856C91.1992 4.54982 91.9502 3.79883 92.8889 3.79883H94.2836C95.2224 3.79883 95.9734 4.54982 95.9734 5.48856C95.9734 6.4273 95.1955 7.17829 94.2836 7.17829ZM78.8615 7.17829H77.4668C76.528 7.17829 75.777 6.4273 75.777 5.48856C75.777 4.54982 76.528 3.79883 77.4668 3.79883H78.8615C79.8002 3.79883 80.5512 4.54982 80.5512 5.48856C80.5512 6.4273 79.8002 7.17829 78.8615 7.17829ZM63.4661 7.17829H62.0714C61.1327 7.17829 60.3817 6.4273 60.3817 5.48856C60.3817 4.54982 61.1327 3.79883 62.0714 3.79883H63.4661C64.4049 3.79883 65.1559 4.54982 65.1559 5.48856C65.1559 6.4273 64.3781 7.17829 63.4661 7.17829ZM48.044 7.17829H46.6493C45.7105 7.17829 44.9596 6.4273 44.9596 5.48856C44.9596 4.54982 45.7105 3.79883 46.6493 3.79883H48.044C48.9827 3.79883 49.7337 4.54982 49.7337 5.48856C49.7337 6.4273 48.9827 7.17829 48.044 7.17829Z" fill="#005FAC"/>
<path d="M4.96711 37.9419H2.17773V93.5958H4.96711V37.9419Z" fill="#005FAC"/>
<path d="M6.73802 93.4616C6.73802 95.205 5.31649 96.6265 3.57311 96.6265C1.82974 96.6265 0.408203 95.205 0.408203 93.4616C0.408203 91.7183 1.82974 90.2968 3.57311 90.2968C5.31649 90.2968 6.73802 91.7183 6.73802 93.4616Z" fill="#005FAC"/>
<path d="M107.987 215.713H36.0528C17.3853 215.713 2.17773 200.532 2.17773 181.838V126.908H4.96711V181.838C4.96711 198.977 18.9141 212.897 36.026 212.897H107.96V215.713H107.987Z" fill="#005FAC"/>
<path d="M6.73802 127.069C6.73802 125.326 5.31649 123.904 3.57311 123.904C1.82974 123.904 0.408203 125.326 0.408203 127.069C0.408203 128.813 1.82974 130.234 3.57311 130.234C5.31649 130.234 6.73802 128.813 6.73802 127.069Z" fill="#005FAC"/>
<path d="M203.798 43.8163V175.964C203.798 192.432 190.441 205.789 173.973 205.789H41.8251C25.3569 205.789 12 192.432 12 175.964V43.8163C12 27.3481 25.3569 13.9912 41.8251 13.9912H173.973C190.441 13.9912 203.798 27.3481 203.798 43.8163Z" fill="#F7F7F7"/>
<g clip-path="url(#clip0_411_5981)">
<path d="M103.783 53.293C106.696 53.293 109.057 50.932 109.057 48.0195C109.057 45.1071 106.696 42.7461 103.783 42.7461C100.871 42.7461 98.5098 45.1071 98.5098 48.0195C98.5098 50.932 100.871 53.293 103.783 53.293Z" fill="#005FAC"/>
<path d="M104.409 58.0391H103.156L102.502 62.9242L103.782 64.5248L105.063 62.9242L104.409 58.0391Z" fill="#005FAC"/>
<path d="M103.135 56.457H104.431L104.695 54.875H102.871L103.135 56.457Z" fill="#005FAC"/>
<path d="M100.89 63.0493L101.665 57.2609L101.267 54.875H99.8281C96.3332 54.875 93.5 57.7082 93.5 61.2031V65.791C93.5 66.2279 93.8542 66.582 94.291 66.582H103.403L101.056 63.6484C100.921 63.4798 100.861 63.2634 100.89 63.0493Z" fill="#005FAC"/>
<path d="M109.192 55.0438C108.726 54.9339 108.239 54.875 107.739 54.875H106.3L105.902 57.2609L106.677 63.0493C106.706 63.2634 106.646 63.4798 106.511 63.6485L104.164 66.582H108.268C107.771 65.9205 107.475 65.0987 107.475 64.209V58.3027C107.475 56.952 108.156 55.7576 109.192 55.0438Z" fill="#005FAC"/>
<path d="M118.127 55.9297H117.679V54.6113C117.679 53.5936 116.851 52.7656 115.833 52.7656H113.724C112.706 52.7656 111.878 53.5936 111.878 54.6113V55.9297H111.43C110.119 55.9297 109.057 56.9921 109.057 58.3027V58.8301H120.5V58.3027C120.5 56.9921 119.438 55.9297 118.127 55.9297ZM116.097 55.9297H113.46V54.6113C113.46 54.4659 113.578 54.3477 113.724 54.3477H115.833C115.978 54.3477 116.097 54.4659 116.097 54.6113V55.9297Z" fill="#005FAC"/>
<path d="M109.057 64.209C109.057 65.5196 110.119 66.582 111.43 66.582H118.127C119.438 66.582 120.5 65.5196 120.5 64.209V60.4121H109.057V64.209Z" fill="#005FAC"/>
</g>
<path d="M60.9852 108.164V93.6186H71.1273V96.4737H64.5009V99.4567H70.6088V102.319H64.5009V105.309H71.1273V108.164H60.9852ZM72.929 108.164V97.255H76.2315V99.2578H76.3523C76.5795 98.5949 76.9631 98.0717 77.5028 97.6882C78.0426 97.3047 78.6866 97.1129 79.4347 97.1129C80.1922 97.1129 80.8409 97.3071 81.3807 97.6953C81.9205 98.0836 82.2637 98.6044 82.4105 99.2578H82.5241C82.7277 98.6091 83.1255 98.0907 83.7173 97.7024C84.3092 97.3094 85.0076 97.1129 85.8125 97.1129C86.8447 97.1129 87.6828 97.4444 88.3267 98.1072C88.9706 98.7654 89.2926 99.6697 89.2926 100.82V108.164H85.8196V101.616C85.8196 101.071 85.6799 100.657 85.4006 100.373C85.1212 100.084 84.759 99.9396 84.3139 99.9396C83.8357 99.9396 83.4593 100.096 83.1847 100.408C82.9148 100.716 82.7798 101.13 82.7798 101.651V108.164H79.4418V101.58C79.4418 101.074 79.3045 100.674 79.0298 100.38C78.7552 100.086 78.393 99.9396 77.9432 99.9396C77.6402 99.9396 77.3726 100.013 77.1406 100.16C76.9086 100.302 76.7263 100.505 76.5938 100.771C76.4659 101.036 76.402 101.348 76.402 101.708V108.164H72.929ZM91.0446 112.255V97.255H94.4821V99.1229H94.5886C94.7307 98.7914 94.9319 98.4718 95.1923 98.1641C95.4575 97.8563 95.7937 97.6054 96.2009 97.4112C96.6128 97.2124 97.1052 97.1129 97.6781 97.1129C98.4357 97.1129 99.1436 97.3118 99.8017 97.7095C100.465 98.1072 101 98.7204 101.407 99.549C101.814 100.378 102.018 101.433 102.018 102.717C102.018 103.952 101.821 104.987 101.428 105.82C101.04 106.654 100.514 107.279 99.8514 107.695C99.1933 108.112 98.4617 108.32 97.6568 108.32C97.1076 108.32 96.6317 108.23 96.2293 108.05C95.8268 107.871 95.4883 107.634 95.2136 107.34C94.9438 107.047 94.7354 106.732 94.5886 106.396H94.5176V112.255H91.0446ZM94.4466 102.71C94.4466 103.297 94.5247 103.808 94.681 104.244C94.842 104.679 95.0716 105.018 95.3699 105.259C95.6729 105.496 96.0351 105.614 96.4565 105.614C96.8827 105.614 97.2449 105.496 97.5432 105.259C97.8415 105.018 98.0664 104.679 98.2179 104.244C98.3742 103.808 98.4523 103.297 98.4523 102.71C98.4523 102.122 98.3742 101.613 98.2179 101.183C98.0664 100.752 97.8415 100.418 97.5432 100.181C97.2496 99.9444 96.8874 99.826 96.4565 99.826C96.0304 99.826 95.6682 99.942 95.3699 100.174C95.0716 100.406 94.842 100.737 94.681 101.168C94.5247 101.599 94.4466 102.113 94.4466 102.71ZM106.911 93.6186V108.164H103.438V93.6186H106.911ZM113.813 108.37C112.668 108.37 111.683 108.136 110.859 107.667C110.04 107.193 109.408 106.535 108.963 105.692C108.522 104.845 108.302 103.862 108.302 102.745C108.302 101.623 108.522 100.64 108.963 99.7976C109.408 98.95 110.04 98.2919 110.859 97.8232C111.683 97.3497 112.668 97.1129 113.813 97.1129C114.959 97.1129 115.942 97.3497 116.761 97.8232C117.585 98.2919 118.217 98.95 118.657 99.7976C119.102 100.64 119.325 101.623 119.325 102.745C119.325 103.862 119.102 104.845 118.657 105.692C118.217 106.535 117.585 107.193 116.761 107.667C115.942 108.136 114.959 108.37 113.813 108.37ZM113.835 105.749C114.251 105.749 114.604 105.621 114.893 105.366C115.182 105.11 115.402 104.755 115.554 104.3C115.71 103.846 115.788 103.32 115.788 102.724C115.788 102.118 115.71 101.587 115.554 101.133C115.402 100.678 115.182 100.323 114.893 100.067C114.604 99.8118 114.251 99.6839 113.835 99.6839C113.404 99.6839 113.039 99.8118 112.741 100.067C112.447 100.323 112.223 100.678 112.066 101.133C111.915 101.587 111.839 102.118 111.839 102.724C111.839 103.32 111.915 103.846 112.066 104.3C112.223 104.755 112.447 105.11 112.741 105.366C113.039 105.621 113.404 105.749 113.835 105.749ZM122.476 112.255C122.059 112.255 121.666 112.222 121.297 112.156C120.928 112.094 120.61 112.011 120.345 111.907L121.112 109.386C121.453 109.499 121.761 109.566 122.036 109.585C122.315 109.603 122.554 109.558 122.753 109.45C122.957 109.345 123.113 109.158 123.222 108.888L123.357 108.562L119.479 97.255H123.115L125.125 105.039H125.239L127.277 97.255H130.935L126.823 109.208C126.624 109.805 126.342 110.33 125.977 110.785C125.618 111.244 125.151 111.604 124.578 111.864C124.01 112.125 123.309 112.255 122.476 112.255ZM136.614 108.37C135.473 108.37 134.488 108.145 133.66 107.695C132.836 107.241 132.201 106.594 131.756 105.756C131.316 104.914 131.096 103.912 131.096 102.752C131.096 101.625 131.318 100.64 131.763 99.7976C132.209 98.95 132.836 98.2919 133.646 97.8232C134.455 97.3497 135.409 97.1129 136.508 97.1129C137.284 97.1129 137.995 97.2337 138.638 97.4751C139.282 97.7166 139.839 98.0741 140.308 98.5476C140.776 99.0211 141.141 99.6058 141.401 100.302C141.662 100.993 141.792 101.786 141.792 102.681V103.548H132.31V101.531H138.56C138.556 101.161 138.468 100.832 138.298 100.543C138.127 100.254 137.893 100.03 137.594 99.8686C137.301 99.7029 136.962 99.62 136.579 99.62C136.191 99.62 135.843 99.7076 135.535 99.8828C135.227 100.053 134.983 100.288 134.803 100.586C134.623 100.879 134.529 101.213 134.519 101.587V103.64C134.519 104.085 134.607 104.476 134.782 104.812C134.957 105.143 135.206 105.401 135.528 105.586C135.85 105.771 136.233 105.863 136.678 105.863C136.986 105.863 137.265 105.82 137.516 105.735C137.767 105.65 137.983 105.524 138.163 105.359C138.343 105.193 138.478 104.989 138.567 104.748L141.756 104.84C141.624 105.555 141.333 106.178 140.883 106.708C140.438 107.234 139.853 107.643 139.129 107.937C138.404 108.226 137.566 108.37 136.614 108.37ZM148.265 108.37C147.124 108.37 146.139 108.145 145.311 107.695C144.487 107.241 143.852 106.594 143.407 105.756C142.967 104.914 142.747 103.912 142.747 102.752C142.747 101.625 142.969 100.64 143.414 99.7976C143.859 98.95 144.487 98.2919 145.296 97.8232C146.106 97.3497 147.06 97.1129 148.159 97.1129C148.935 97.1129 149.645 97.2337 150.289 97.4751C150.933 97.7166 151.49 98.0741 151.958 98.5476C152.427 99.0211 152.792 99.6058 153.052 100.302C153.312 100.993 153.443 101.786 153.443 102.681V103.548H143.961V101.531H150.211C150.206 101.161 150.119 100.832 149.948 100.543C149.778 100.254 149.544 100.03 149.245 99.8686C148.952 99.7029 148.613 99.62 148.23 99.62C147.841 99.62 147.493 99.7076 147.186 99.8828C146.878 100.053 146.634 100.288 146.454 100.586C146.274 100.879 146.179 101.213 146.17 101.587V103.64C146.17 104.085 146.258 104.476 146.433 104.812C146.608 105.143 146.857 105.401 147.178 105.586C147.5 105.771 147.884 105.863 148.329 105.863C148.637 105.863 148.916 105.82 149.167 105.735C149.418 105.65 149.633 105.524 149.813 105.359C149.993 105.193 150.128 104.989 150.218 104.748L153.407 104.84C153.275 105.555 152.983 106.178 152.534 106.708C152.089 107.234 151.504 107.643 150.779 107.937C150.055 108.226 149.217 108.37 148.265 108.37ZM85.4239 122.888H81.8728C81.8254 122.524 81.7284 122.195 81.5816 121.901C81.4348 121.608 81.2407 121.357 80.9992 121.148C80.7577 120.94 80.4712 120.781 80.1398 120.673C79.8131 120.559 79.4509 120.502 79.0532 120.502C78.3477 120.502 77.7392 120.675 77.2279 121.021C76.7212 121.366 76.3306 121.866 76.056 122.519C75.7861 123.173 75.6512 123.963 75.6512 124.891C75.6512 125.857 75.7885 126.667 76.0631 127.32C76.3425 127.969 76.7331 128.459 77.235 128.79C77.7416 129.117 78.3406 129.281 79.0319 129.281C79.4201 129.281 79.7729 129.231 80.0901 129.131C80.4121 129.032 80.6938 128.888 80.9353 128.698C81.1815 128.504 81.3827 128.27 81.539 127.995C81.6999 127.716 81.8112 127.401 81.8728 127.05L85.4239 127.072C85.3623 127.716 85.1753 128.35 84.8628 128.975C84.5551 129.6 84.1313 130.171 83.5915 130.687C83.0517 131.198 82.3936 131.605 81.6171 131.908C80.8453 132.211 79.9599 132.363 78.9608 132.363C77.6445 132.363 76.4656 132.074 75.4239 131.496C74.387 130.914 73.5678 130.067 72.9665 128.954C72.3652 127.841 72.0645 126.487 72.0645 124.891C72.0645 123.291 72.3699 121.934 72.9807 120.822C73.5915 119.709 74.4177 118.864 75.4594 118.286C76.5011 117.709 77.6682 117.42 78.9608 117.42C79.8415 117.42 80.6559 117.543 81.404 117.789C82.1521 118.031 82.8103 118.386 83.3784 118.854C83.9466 119.318 84.4083 119.889 84.7634 120.566C85.1185 121.243 85.3387 122.017 85.4239 122.888ZM94.074 127.455V121.255H97.5399V132.164H94.2302V130.133H94.1166C93.8751 130.8 93.4632 131.331 92.8808 131.724C92.3031 132.112 91.6047 132.306 90.7856 132.306C90.0422 132.306 89.3888 132.136 88.8254 131.795C88.2619 131.454 87.824 130.978 87.5115 130.367C87.199 129.752 87.0404 129.032 87.0356 128.208V121.255H90.5086V127.526C90.5134 128.118 90.6696 128.585 90.9774 128.925C91.2851 129.266 91.7042 129.437 92.2345 129.437C92.5801 129.437 92.8903 129.361 93.1649 129.21C93.4442 129.053 93.6644 128.828 93.8254 128.535C93.9911 128.237 94.074 127.877 94.074 127.455ZM102.823 117.619V132.164H99.3505V117.619H102.823ZM110.792 121.255V123.812H103.91V121.255H110.792ZM105.351 118.641H108.824V128.734C108.824 128.947 108.858 129.12 108.924 129.252C108.995 129.38 109.097 129.472 109.229 129.529C109.362 129.581 109.52 129.607 109.705 129.607C109.838 129.607 109.977 129.595 110.124 129.572C110.276 129.543 110.389 129.52 110.465 129.501L110.991 132.008C110.825 132.055 110.59 132.114 110.287 132.185C109.989 132.256 109.632 132.301 109.215 132.32C108.401 132.358 107.702 132.263 107.12 132.036C106.542 131.804 106.099 131.444 105.792 130.957C105.489 130.469 105.342 129.856 105.351 129.117V118.641ZM119.202 127.455V121.255H122.668V132.164H119.358V130.133H119.245C119.003 130.8 118.591 131.331 118.009 131.724C117.431 132.112 116.733 132.306 115.914 132.306C115.17 132.306 114.517 132.136 113.954 131.795C113.39 131.454 112.952 130.978 112.64 130.367C112.327 129.752 112.168 129.032 112.164 128.208V121.255H115.637V127.526C115.641 128.118 115.798 128.585 116.106 128.925C116.413 129.266 116.832 129.437 117.363 129.437C117.708 129.437 118.018 129.361 118.293 129.21C118.572 129.053 118.793 128.828 118.954 128.535C119.119 128.237 119.202 127.877 119.202 127.455ZM124.479 132.164V121.255H127.852V123.244H127.966C128.165 122.524 128.489 121.989 128.939 121.638C129.389 121.283 129.912 121.106 130.508 121.106C130.669 121.106 130.835 121.118 131.006 121.141C131.176 121.16 131.335 121.191 131.481 121.234V124.252C131.316 124.195 131.098 124.15 130.828 124.117C130.563 124.084 130.326 124.067 130.118 124.067C129.706 124.067 129.334 124.16 129.003 124.344C128.676 124.524 128.418 124.778 128.229 125.104C128.044 125.426 127.952 125.805 127.952 126.241V132.164H124.479ZM137.03 132.37C135.888 132.37 134.904 132.145 134.075 131.695C133.251 131.241 132.617 130.594 132.172 129.756C131.731 128.914 131.511 127.912 131.511 126.752C131.511 125.625 131.734 124.64 132.179 123.798C132.624 122.95 133.251 122.292 134.061 121.823C134.87 121.35 135.825 121.113 136.923 121.113C137.7 121.113 138.41 121.234 139.054 121.475C139.698 121.717 140.254 122.074 140.723 122.548C141.192 123.021 141.556 123.606 141.817 124.302C142.077 124.993 142.207 125.786 142.207 126.681V127.548H132.726V125.531H138.976C138.971 125.161 138.883 124.832 138.713 124.543C138.542 124.254 138.308 124.03 138.01 123.869C137.716 123.703 137.378 123.62 136.994 123.62C136.606 123.62 136.258 123.708 135.95 123.883C135.642 124.053 135.398 124.288 135.219 124.586C135.039 124.879 134.944 125.213 134.934 125.587V127.64C134.934 128.085 135.022 128.476 135.197 128.812C135.372 129.143 135.621 129.401 135.943 129.586C136.265 129.771 136.648 129.863 137.094 129.863C137.401 129.863 137.681 129.82 137.932 129.735C138.183 129.65 138.398 129.524 138.578 129.359C138.758 129.193 138.893 128.989 138.983 128.748L142.172 128.84C142.039 129.555 141.748 130.178 141.298 130.708C140.853 131.234 140.268 131.643 139.544 131.937C138.819 132.226 137.981 132.37 137.03 132.37Z" fill="black"/>
<path d="M56.9714 151.164H54.4146V142.437H57.1248C57.9572 142.437 58.6688 142.61 59.2597 142.957C59.8535 143.303 60.308 143.8 60.6234 144.448C60.9387 145.096 61.0964 145.873 61.0964 146.779C61.0964 147.694 60.9344 148.479 60.6106 149.136C60.2896 149.789 59.8208 150.29 59.2043 150.64C58.5907 150.989 57.8464 151.164 56.9714 151.164ZM55.2114 150.448H56.9245C57.6745 150.448 58.3023 150.3 58.808 150.005C59.3137 149.71 59.693 149.288 59.9458 148.739C60.1987 148.191 60.3251 147.538 60.3251 146.779C60.3222 146.026 60.1972 145.379 59.9501 144.836C59.7058 144.293 59.3421 143.877 58.8592 143.587C58.3791 143.298 57.7853 143.153 57.0779 143.153H55.2114V150.448ZM62.6387 151.164V144.619H63.4015V151.164H62.6387ZM63.0265 143.494C62.8702 143.494 62.7367 143.441 62.6259 143.336C62.5151 143.228 62.4597 143.099 62.4597 142.948C62.4597 142.798 62.5151 142.67 62.6259 142.565C62.7367 142.457 62.8702 142.403 63.0265 142.403C63.1827 142.403 63.3163 142.457 63.427 142.565C63.5378 142.67 63.5932 142.798 63.5932 142.948C63.5932 143.099 63.5378 143.228 63.427 143.336C63.3163 143.441 63.1827 143.494 63.0265 143.494ZM67.6647 153.755C67.2187 153.755 66.828 153.697 66.4928 153.58C66.1576 153.467 65.8749 153.31 65.6448 153.112C65.4147 152.913 65.2357 152.69 65.1079 152.442L65.73 152.033C65.8238 152.198 65.9488 152.36 66.105 152.519C66.2641 152.678 66.4701 152.81 66.7229 152.915C66.9786 153.021 67.2925 153.073 67.6647 153.073C68.2442 153.073 68.7116 152.928 69.0667 152.638C69.4246 152.349 69.6036 151.898 69.6036 151.288V149.813H69.5354C69.4473 150.012 69.3209 150.211 69.1562 150.41C68.9914 150.606 68.7755 150.769 68.5084 150.9C68.2442 151.031 67.9161 151.096 67.5241 151.096C67.0013 151.096 66.5368 150.967 66.1306 150.708C65.7272 150.45 65.409 150.08 65.176 149.6C64.9459 149.117 64.8309 148.542 64.8309 147.874C64.8309 147.212 64.9431 146.63 65.1675 146.127C65.3948 145.624 65.7116 145.232 66.1178 144.951C66.5241 144.67 66.9971 144.529 67.5368 144.529C67.9374 144.529 68.2698 144.6 68.534 144.742C68.7982 144.881 69.0098 145.055 69.1689 145.262C69.3309 145.469 69.4573 145.671 69.5482 145.867H69.6249V144.619H70.3664V151.335C70.3664 151.888 70.2485 152.344 70.0127 152.702C69.7769 153.06 69.4559 153.325 69.0496 153.495C68.6434 153.668 68.1817 153.755 67.6647 153.755ZM67.6135 150.401C68.034 150.401 68.3934 150.3 68.6917 150.099C68.99 149.894 69.2187 149.602 69.3777 149.221C69.5368 148.84 69.6164 148.387 69.6164 147.862C69.6164 147.35 69.5383 146.897 69.382 146.502C69.2258 146.104 68.9985 145.792 68.7002 145.565C68.4047 145.335 68.0425 145.219 67.6135 145.219C67.176 145.219 66.8067 145.337 66.5056 145.573C66.2044 145.809 65.9772 146.127 65.8238 146.528C65.6704 146.925 65.5937 147.37 65.5937 147.862C65.5937 148.362 65.6718 148.803 65.828 149.187C65.9843 149.567 66.213 149.866 66.5141 150.082C66.8152 150.295 67.1817 150.401 67.6135 150.401ZM72.8931 147.073V151.164H72.1345V144.619H72.8718V145.646H72.9399C73.0934 145.31 73.332 145.042 73.6559 144.84C73.9826 144.636 74.386 144.533 74.8661 144.533C75.3064 144.533 75.6928 144.626 76.0252 144.81C76.3604 144.992 76.6203 145.261 76.805 145.616C76.9925 145.971 77.0863 146.407 77.0863 146.924V151.164H76.3277V146.971C76.3277 146.434 76.1772 146.009 75.876 145.697C75.5777 145.384 75.1772 145.228 74.6743 145.228C74.3306 145.228 74.0252 145.302 73.7581 145.45C73.4911 145.597 73.2794 145.81 73.1232 146.089C72.9698 146.364 72.8931 146.692 72.8931 147.073ZM78.8523 151.164V144.619H79.6151V151.164H78.8523ZM79.2401 143.494C79.0838 143.494 78.9503 143.441 78.8395 143.336C78.7287 143.228 78.6733 143.099 78.6733 142.948C78.6733 142.798 78.7287 142.67 78.8395 142.565C78.9503 142.457 79.0838 142.403 79.2401 142.403C79.3963 142.403 79.5298 142.457 79.6406 142.565C79.7514 142.67 79.8068 142.798 79.8068 142.948C79.8068 143.099 79.7514 143.228 79.6406 143.336C79.5298 143.441 79.3963 143.494 79.2401 143.494ZM83.9592 144.619V145.279H80.8357V144.619H83.9592ZM81.8115 143.05H82.5743V149.455C82.5743 149.728 82.6212 149.942 82.7149 150.099C82.8087 150.252 82.9308 150.362 83.0814 150.427C83.232 150.489 83.3925 150.521 83.5629 150.521C83.6624 150.521 83.7476 150.515 83.8186 150.504C83.8896 150.489 83.9521 150.475 84.0061 150.461L84.168 151.147C84.0942 151.175 84.0033 151.201 83.8953 151.224C83.7874 151.249 83.6538 151.262 83.4947 151.262C83.2163 151.262 82.9479 151.201 82.6893 151.079C82.4337 150.957 82.2234 150.775 82.0587 150.533C81.8939 150.292 81.8115 149.992 81.8115 149.634V143.05ZM85.9703 153.619C85.8197 153.619 85.6791 153.604 85.5484 153.576C85.4177 153.548 85.314 153.516 85.2373 153.482L85.4419 152.813C85.7004 152.893 85.9305 152.921 86.1322 152.898C86.3339 152.879 86.5129 152.788 86.6692 152.626C86.8254 152.467 86.9646 152.222 87.0868 151.893L87.3254 151.228L84.9177 144.619H85.7402L87.6834 150.163H87.743L89.6862 144.619H90.5086L87.7388 152.2C87.6223 152.515 87.4788 152.778 87.3084 152.988C87.1379 153.201 86.9405 153.359 86.716 153.461C86.4944 153.566 86.2459 153.619 85.9703 153.619ZM92.6039 149.971L92.5272 150.427C92.4789 150.734 92.4107 151.072 92.3226 151.441C92.2346 151.81 92.1437 152.161 92.0499 152.494C91.9562 152.826 91.8752 153.093 91.807 153.295H91.2232C91.2601 153.102 91.307 152.856 91.3638 152.558C91.4235 152.259 91.4846 151.928 91.5471 151.565C91.6096 151.204 91.6664 150.832 91.7175 150.448L91.7772 149.971H92.6039ZM100.004 153.755C99.5582 153.755 99.1676 153.697 98.8323 153.58C98.4971 153.467 98.2144 153.31 97.9843 153.112C97.7542 152.913 97.5752 152.69 97.4474 152.442L98.0695 152.033C98.1633 152.198 98.2883 152.36 98.4445 152.519C98.6036 152.678 98.8096 152.81 99.0624 152.915C99.3181 153.021 99.632 153.073 100.004 153.073C100.584 153.073 101.051 152.928 101.406 152.638C101.764 152.349 101.943 151.898 101.943 151.288V149.813H101.875C101.787 150.012 101.66 150.211 101.496 150.41C101.331 150.606 101.115 150.769 100.848 150.9C100.584 151.031 100.256 151.096 99.8636 151.096C99.3409 151.096 98.8764 150.967 98.4701 150.708C98.0667 150.45 97.7485 150.08 97.5156 149.6C97.2855 149.117 97.1704 148.542 97.1704 147.874C97.1704 147.212 97.2826 146.63 97.507 146.127C97.7343 145.624 98.0511 145.232 98.4573 144.951C98.8636 144.67 99.3366 144.529 99.8764 144.529C100.277 144.529 100.609 144.6 100.874 144.742C101.138 144.881 101.349 145.055 101.508 145.262C101.67 145.469 101.797 145.671 101.888 145.867H101.964V144.619H102.706V151.335C102.706 151.888 102.588 152.344 102.352 152.702C102.116 153.06 101.795 153.325 101.389 153.495C100.983 153.668 100.521 153.755 100.004 153.755ZM99.9531 150.401C100.374 150.401 100.733 150.3 101.031 150.099C101.329 149.894 101.558 149.602 101.717 149.221C101.876 148.84 101.956 148.387 101.956 147.862C101.956 147.35 101.878 146.897 101.722 146.502C101.565 146.104 101.338 145.792 101.04 145.565C100.744 145.335 100.382 145.219 99.9531 145.219C99.5156 145.219 99.1463 145.337 98.8451 145.573C98.544 145.809 98.3167 146.127 98.1633 146.528C98.0099 146.925 97.9332 147.37 97.9332 147.862C97.9332 148.362 98.0113 148.803 98.1676 149.187C98.3238 149.567 98.5525 149.866 98.8536 150.082C99.1548 150.295 99.5213 150.401 99.9531 150.401ZM104.474 151.164V144.619H105.211V145.624H105.267C105.397 145.295 105.625 145.029 105.949 144.827C106.275 144.623 106.645 144.521 107.056 144.521C107.119 144.521 107.189 144.522 107.265 144.525C107.342 144.528 107.406 144.531 107.457 144.533V145.305C107.423 145.299 107.363 145.29 107.278 145.279C107.193 145.268 107.1 145.262 107.001 145.262C106.66 145.262 106.356 145.335 106.089 145.479C105.825 145.621 105.616 145.819 105.463 146.072C105.309 146.325 105.233 146.613 105.233 146.937V151.164H104.474ZM110.856 151.3C110.291 151.3 109.791 151.157 109.356 150.87C108.924 150.583 108.586 150.187 108.342 149.681C108.098 149.173 107.976 148.586 107.976 147.921C107.976 147.251 108.098 146.661 108.342 146.153C108.586 145.641 108.924 145.244 109.356 144.96C109.791 144.673 110.291 144.529 110.856 144.529C111.422 144.529 111.92 144.673 112.352 144.96C112.784 145.246 113.122 145.644 113.366 146.153C113.613 146.661 113.737 147.251 113.737 147.921C113.737 148.586 113.615 149.173 113.37 149.681C113.126 150.187 112.787 150.583 112.352 150.87C111.92 151.157 111.422 151.3 110.856 151.3ZM110.856 150.606C111.311 150.606 111.696 150.484 112.011 150.239C112.326 149.995 112.565 149.67 112.727 149.263C112.892 148.857 112.974 148.41 112.974 147.921C112.974 147.433 112.892 146.984 112.727 146.575C112.565 146.165 112.326 145.837 112.011 145.59C111.696 145.343 111.311 145.219 110.856 145.219C110.405 145.219 110.02 145.343 109.701 145.59C109.386 145.837 109.146 146.165 108.981 146.575C108.819 146.984 108.738 147.433 108.738 147.921C108.738 148.41 108.819 148.857 108.981 149.263C109.146 149.67 109.386 149.995 109.701 150.239C110.017 150.484 110.402 150.606 110.856 150.606ZM116.393 151.164L114.415 144.619H115.216L116.768 150.018H116.823L118.37 144.619H119.175L120.709 150.005H120.769L122.32 144.619H123.121L121.144 151.164H120.36L118.809 145.799H118.728L117.177 151.164H116.393ZM126.934 144.619V145.279H123.81V144.619H126.934ZM124.786 143.05H125.549V149.455C125.549 149.728 125.596 149.942 125.689 150.099C125.783 150.252 125.905 150.362 126.056 150.427C126.206 150.489 126.367 150.521 126.537 150.521C126.637 150.521 126.722 150.515 126.793 150.504C126.864 150.489 126.927 150.475 126.981 150.461L127.143 151.147C127.069 151.175 126.978 151.201 126.87 151.224C126.762 151.249 126.628 151.262 126.469 151.262C126.191 151.262 125.922 151.201 125.664 151.079C125.408 150.957 125.198 150.775 125.033 150.533C124.868 150.292 124.786 149.992 124.786 149.634V143.05ZM129.316 147.073V151.164H128.557V142.437H129.316V145.646H129.384C129.537 145.308 129.774 145.038 130.095 144.836C130.419 144.634 130.828 144.533 131.323 144.533C131.766 144.533 132.155 144.624 132.49 144.806C132.826 144.988 133.087 145.256 133.274 145.612C133.462 145.967 133.556 146.404 133.556 146.924V151.164H132.793V146.971C132.793 146.431 132.642 146.006 132.341 145.697C132.043 145.384 131.639 145.228 131.131 145.228C130.781 145.228 130.47 145.302 130.198 145.45C129.925 145.597 129.709 145.81 129.55 146.089C129.394 146.364 129.316 146.692 129.316 147.073ZM136.575 149.971L136.498 150.427C136.45 150.734 136.381 151.072 136.293 151.441C136.205 151.81 136.114 152.161 136.021 152.494C135.927 152.826 135.846 153.093 135.778 153.295H135.194C135.231 153.102 135.278 152.856 135.334 152.558C135.394 152.259 135.455 151.928 135.518 151.565C135.58 151.204 135.637 150.832 135.688 150.448L135.748 149.971H136.575ZM143.306 151.313C142.911 151.313 142.55 151.237 142.223 151.083C141.897 150.927 141.637 150.702 141.444 150.41C141.25 150.114 141.154 149.756 141.154 149.336C141.154 149.012 141.215 148.739 141.337 148.518C141.459 148.296 141.632 148.114 141.857 147.972C142.081 147.83 142.347 147.718 142.654 147.636C142.961 147.553 143.299 147.489 143.668 147.444C144.034 147.398 144.344 147.359 144.597 147.325C144.853 147.29 145.047 147.237 145.181 147.163C145.314 147.089 145.381 146.969 145.381 146.805V146.651C145.381 146.205 145.248 145.854 144.981 145.599C144.716 145.34 144.336 145.211 143.838 145.211C143.367 145.211 142.982 145.315 142.684 145.522C142.388 145.729 142.181 145.974 142.061 146.255L141.341 145.995C141.489 145.637 141.694 145.352 141.955 145.138C142.216 144.923 142.509 144.768 142.833 144.674C143.157 144.577 143.485 144.529 143.817 144.529C144.067 144.529 144.327 144.562 144.597 144.627C144.87 144.692 145.123 144.806 145.356 144.968C145.588 145.127 145.777 145.35 145.922 145.637C146.067 145.921 146.14 146.282 146.14 146.719V151.164H145.381V150.129H145.334C145.243 150.322 145.108 150.509 144.929 150.691C144.75 150.873 144.526 151.022 144.256 151.138C143.986 151.255 143.669 151.313 143.306 151.313ZM143.408 150.619C143.811 150.619 144.161 150.529 144.456 150.35C144.752 150.171 144.979 149.934 145.138 149.638C145.3 149.34 145.381 149.012 145.381 148.654V147.708C145.324 147.762 145.229 147.81 145.096 147.853C144.965 147.896 144.813 147.934 144.64 147.968C144.469 147.999 144.299 148.026 144.128 148.049C143.958 148.072 143.804 148.092 143.668 148.109C143.299 148.154 142.983 148.225 142.722 148.322C142.461 148.418 142.26 148.552 142.121 148.722C141.982 148.89 141.912 149.106 141.912 149.37C141.912 149.768 142.054 150.076 142.338 150.295C142.623 150.511 142.979 150.619 143.408 150.619ZM148.676 147.073V151.164H147.917V144.619H148.655V145.646H148.723C148.876 145.31 149.115 145.042 149.439 144.84C149.765 144.636 150.169 144.533 150.649 144.533C151.089 144.533 151.476 144.626 151.808 144.81C152.143 144.992 152.403 145.261 152.588 145.616C152.775 145.971 152.869 146.407 152.869 146.924V151.164H152.111V146.971C152.111 146.434 151.96 146.009 151.659 145.697C151.361 145.384 150.96 145.228 150.457 145.228C150.113 145.228 149.808 145.302 149.541 145.45C149.274 145.597 149.062 145.81 148.906 146.089C148.753 146.364 148.676 146.692 148.676 147.073ZM156.983 151.3C156.446 151.3 155.976 151.158 155.573 150.874C155.169 150.59 154.854 150.194 154.627 149.685C154.402 149.177 154.29 148.585 154.29 147.908C154.29 147.235 154.402 146.646 154.627 146.14C154.854 145.631 155.171 145.237 155.577 144.955C155.983 144.671 156.456 144.529 156.996 144.529C157.394 144.529 157.725 144.6 157.989 144.742C158.253 144.881 158.465 145.055 158.624 145.262C158.783 145.469 158.906 145.671 158.994 145.867H159.063V142.437H159.825V151.164H159.084V149.95H158.994C158.906 150.148 158.781 150.353 158.619 150.563C158.458 150.771 158.243 150.945 157.976 151.087C157.712 151.229 157.381 151.3 156.983 151.3ZM157.073 150.606C157.496 150.606 157.857 150.491 158.155 150.261C158.453 150.028 158.681 149.708 158.837 149.302C158.996 148.893 159.075 148.424 159.075 147.896C159.075 147.373 158.997 146.911 158.841 146.511C158.685 146.107 158.458 145.792 158.159 145.565C157.861 145.335 157.499 145.219 157.073 145.219C156.635 145.219 156.266 145.339 155.965 145.577C155.666 145.813 155.439 146.133 155.283 146.536C155.129 146.94 155.053 147.393 155.053 147.896C155.053 148.404 155.131 148.863 155.287 149.272C155.443 149.681 155.671 150.006 155.969 150.248C156.27 150.487 156.638 150.606 157.073 150.606ZM79.0364 166.3C78.4512 166.3 77.9413 166.154 77.5066 165.862C77.0748 165.569 76.7396 165.168 76.5009 164.66C76.2623 164.151 76.143 163.572 76.143 162.921C76.143 162.265 76.2637 161.681 76.5052 161.17C76.7495 160.658 77.0876 160.258 77.5194 159.968C77.9512 159.675 78.4526 159.529 79.0237 159.529C79.4612 159.529 79.8575 159.614 80.2126 159.785C80.5677 159.952 80.8603 160.19 81.0904 160.496C81.3234 160.8 81.4697 161.156 81.5293 161.562H80.7623C80.6827 161.192 80.491 160.877 80.187 160.616C79.8859 160.352 79.5024 160.219 79.0364 160.219C78.6188 160.219 78.2495 160.333 77.9285 160.56C77.6075 160.785 77.356 161.099 77.1742 161.502C76.9952 161.903 76.9058 162.367 76.9058 162.896C76.9058 163.427 76.9938 163.897 77.17 164.306C77.3461 164.712 77.5933 165.031 77.9114 165.261C78.2325 165.491 78.6075 165.606 79.0364 165.606C79.3262 165.606 79.5904 165.552 79.8291 165.444C80.0705 165.333 80.2722 165.177 80.4342 164.975C80.5989 164.773 80.7097 164.533 80.7666 164.255H81.5336C81.4768 164.65 81.3362 165.002 81.1117 165.312C80.8901 165.619 80.6018 165.86 80.2467 166.036C79.8944 166.212 79.491 166.3 79.0364 166.3ZM85.4633 166.3C84.898 166.3 84.398 166.157 83.9633 165.87C83.5315 165.583 83.1935 165.187 82.9491 164.681C82.7048 164.173 82.5827 163.586 82.5827 162.921C82.5827 162.251 82.7048 161.661 82.9491 161.153C83.1935 160.641 83.5315 160.244 83.9633 159.96C84.398 159.673 84.898 159.529 85.4633 159.529C86.0287 159.529 86.5273 159.673 86.9591 159.96C87.3909 160.246 87.729 160.644 87.9733 161.153C88.2204 161.661 88.344 162.251 88.344 162.921C88.344 163.586 88.2219 164.173 87.9776 164.681C87.7332 165.187 87.3937 165.583 86.9591 165.87C86.5273 166.157 86.0287 166.3 85.4633 166.3ZM85.4633 165.606C85.9179 165.606 86.3028 165.484 86.6182 165.239C86.9335 164.995 87.1722 164.67 87.3341 164.263C87.4989 163.857 87.5812 163.41 87.5812 162.921C87.5812 162.433 87.4989 161.984 87.3341 161.575C87.1722 161.165 86.9335 160.837 86.6182 160.59C86.3028 160.343 85.9179 160.219 85.4633 160.219C85.0116 160.219 84.6267 160.343 84.3085 160.59C83.9932 160.837 83.7531 161.165 83.5883 161.575C83.4264 161.984 83.3454 162.433 83.3454 162.921C83.3454 163.41 83.4264 163.857 83.5883 164.263C83.7531 164.67 83.9932 164.995 84.3085 165.239C84.6239 165.484 85.0088 165.606 85.4633 165.606ZM89.7692 166.164V159.619H90.5064V160.624H90.5746C90.7052 160.286 90.9226 160.021 91.2265 159.827C91.5334 159.631 91.9013 159.533 92.3302 159.533C92.7819 159.533 93.1527 159.64 93.4425 159.853C93.7351 160.063 93.9538 160.353 94.0987 160.722H94.1541C94.3018 160.359 94.5419 160.07 94.8743 159.857C95.2095 159.641 95.6157 159.533 96.093 159.533C96.701 159.533 97.1811 159.725 97.5334 160.109C97.8856 160.489 98.0618 161.046 98.0618 161.779V166.164H97.3032V161.779C97.3032 161.262 97.1711 160.874 96.9069 160.616C96.6427 160.357 96.2947 160.228 95.8629 160.228C95.3629 160.228 94.978 160.381 94.7081 160.688C94.4382 160.995 94.3032 161.384 94.3032 161.856V166.164H93.5277V161.711C93.5277 161.268 93.4041 160.91 93.1569 160.637C92.9098 160.364 92.5618 160.228 92.1129 160.228C91.8118 160.228 91.5405 160.302 91.299 160.45C91.0603 160.597 90.8714 160.803 90.7322 161.067C90.5959 161.329 90.5277 161.63 90.5277 161.971V166.164H89.7692ZM99.8299 168.619V159.619H100.567V160.867H100.657C100.748 160.671 100.873 160.471 101.032 160.266C101.191 160.059 101.401 159.884 101.662 159.742C101.927 159.6 102.259 159.529 102.659 159.529C103.199 159.529 103.671 159.671 104.074 159.955C104.481 160.237 104.796 160.631 105.02 161.14C105.248 161.646 105.361 162.235 105.361 162.908C105.361 163.585 105.248 164.177 105.02 164.685C104.796 165.194 104.481 165.59 104.074 165.874C103.671 166.158 103.202 166.3 102.668 166.3C102.273 166.3 101.942 166.229 101.675 166.087C101.411 165.945 101.196 165.771 101.032 165.563C100.87 165.353 100.745 165.148 100.657 164.95H100.588V168.619H99.8299ZM100.58 162.896C100.58 163.424 100.658 163.893 100.814 164.302C100.973 164.708 101.201 165.028 101.496 165.261C101.794 165.491 102.155 165.606 102.579 165.606C103.013 165.606 103.38 165.487 103.678 165.248C103.979 165.006 104.208 164.681 104.364 164.272C104.523 163.863 104.603 163.404 104.603 162.896C104.603 162.393 104.525 161.94 104.368 161.536C104.215 161.133 103.988 160.813 103.686 160.577C103.385 160.339 103.016 160.219 102.579 160.219C102.152 160.219 101.79 160.335 101.492 160.565C101.194 160.792 100.966 161.107 100.81 161.511C100.657 161.911 100.58 162.373 100.58 162.896ZM109.432 166.3C108.821 166.3 108.292 166.158 107.846 165.874C107.4 165.587 107.055 165.191 106.811 164.685C106.569 164.177 106.449 163.592 106.449 162.93C106.449 162.271 106.569 161.685 106.811 161.174C107.055 160.66 107.392 160.258 107.821 159.968C108.253 159.675 108.751 159.529 109.316 159.529C109.672 159.529 110.014 159.594 110.343 159.725C110.673 159.853 110.968 160.05 111.23 160.317C111.494 160.582 111.703 160.915 111.856 161.319C112.01 161.719 112.086 162.194 112.086 162.742V163.117H106.973V162.448H111.311C111.311 162.028 111.226 161.65 111.055 161.315C110.888 160.977 110.653 160.71 110.352 160.513C110.054 160.317 109.709 160.219 109.316 160.219C108.902 160.219 108.537 160.33 108.221 160.552C107.906 160.773 107.659 161.066 107.48 161.43C107.304 161.793 107.214 162.191 107.211 162.623V163.023C107.211 163.543 107.301 163.998 107.48 164.387C107.662 164.773 107.919 165.073 108.251 165.286C108.584 165.499 108.977 165.606 109.432 165.606C109.741 165.606 110.013 165.558 110.245 165.461C110.481 165.364 110.679 165.235 110.838 165.073C111 164.908 111.122 164.728 111.204 164.532L111.924 164.766C111.825 165.042 111.662 165.296 111.434 165.529C111.21 165.762 110.929 165.95 110.591 166.092C110.255 166.231 109.869 166.3 109.432 166.3ZM116.096 159.619V160.279H112.972V159.619H116.096ZM113.948 158.05H114.711V164.455C114.711 164.728 114.758 164.942 114.852 165.099C114.945 165.252 115.068 165.362 115.218 165.427C115.369 165.489 115.529 165.521 115.7 165.521C115.799 165.521 115.884 165.515 115.955 165.504C116.026 165.489 116.089 165.475 116.143 165.461L116.305 166.147C116.231 166.175 116.14 166.201 116.032 166.224C115.924 166.249 115.791 166.262 115.632 166.262C115.353 166.262 115.085 166.201 114.826 166.079C114.57 165.957 114.36 165.775 114.195 165.533C114.031 165.292 113.948 164.992 113.948 164.634V158.05ZM117.587 166.164V159.619H118.35V166.164H117.587ZM117.975 158.494C117.819 158.494 117.685 158.441 117.574 158.336C117.464 158.228 117.408 158.099 117.408 157.948C117.408 157.798 117.464 157.67 117.574 157.565C117.685 157.457 117.819 157.403 117.975 157.403C118.131 157.403 118.265 157.457 118.376 157.565C118.486 157.67 118.542 157.798 118.542 157.948C118.542 158.099 118.486 158.228 118.376 158.336C118.265 158.441 118.131 158.494 117.975 158.494ZM122.694 159.619V160.279H119.571V159.619H122.694ZM120.546 158.05H121.309V164.455C121.309 164.728 121.356 164.942 121.45 165.099C121.544 165.252 121.666 165.362 121.816 165.427C121.967 165.489 122.127 165.521 122.298 165.521C122.397 165.521 122.483 165.515 122.554 165.504C122.625 165.489 122.687 165.475 122.741 165.461L122.903 166.147C122.829 166.175 122.738 166.201 122.63 166.224C122.522 166.249 122.389 166.262 122.23 166.262C121.951 166.262 121.683 166.201 121.424 166.079C121.169 165.957 120.958 165.775 120.794 165.533C120.629 165.292 120.546 164.992 120.546 164.634V158.05ZM124.185 166.164V159.619H124.948V166.164H124.185ZM124.573 158.494C124.417 158.494 124.283 158.441 124.173 158.336C124.062 158.228 124.006 158.099 124.006 157.948C124.006 157.798 124.062 157.67 124.173 157.565C124.283 157.457 124.417 157.403 124.573 157.403C124.729 157.403 124.863 157.457 124.974 157.565C125.084 157.67 125.14 157.798 125.14 157.948C125.14 158.099 125.084 158.228 124.974 158.336C124.863 158.441 124.729 158.494 124.573 158.494ZM131.781 159.619L129.39 166.164H128.581L126.19 159.619H127.012L128.956 165.163H129.015L130.958 159.619H131.781ZM135.437 166.3C134.826 166.3 134.298 166.158 133.852 165.874C133.406 165.587 133.06 165.191 132.816 164.685C132.575 164.177 132.454 163.592 132.454 162.93C132.454 162.271 132.575 161.685 132.816 161.174C133.06 160.66 133.397 160.258 133.826 159.968C134.258 159.675 134.756 159.529 135.322 159.529C135.677 159.529 136.019 159.594 136.349 159.725C136.678 159.853 136.974 160.05 137.235 160.317C137.499 160.582 137.708 160.915 137.862 161.319C138.015 161.719 138.092 162.194 138.092 162.742V163.117H132.978V162.448H137.316C137.316 162.028 137.231 161.65 137.06 161.315C136.893 160.977 136.658 160.71 136.357 160.513C136.059 160.317 135.714 160.219 135.322 160.219C134.907 160.219 134.542 160.33 134.227 160.552C133.911 160.773 133.664 161.066 133.485 161.43C133.309 161.793 133.22 162.191 133.217 162.623V163.023C133.217 163.543 133.306 163.998 133.485 164.387C133.667 164.773 133.924 165.073 134.256 165.286C134.589 165.499 134.982 165.606 135.437 165.606C135.747 165.606 136.018 165.558 136.251 165.461C136.487 165.364 136.684 165.235 136.843 165.073C137.005 164.908 137.127 164.728 137.21 164.532L137.93 164.766C137.83 165.042 137.667 165.296 137.44 165.529C137.215 165.762 136.934 165.95 136.596 166.092C136.261 166.231 135.874 166.3 135.437 166.3ZM70.8185 181.3C70.2333 181.3 69.7234 181.154 69.2887 180.862C68.8569 180.569 68.5217 180.168 68.283 179.66C68.0444 179.151 67.9251 178.572 67.9251 177.921C67.9251 177.265 68.0458 176.681 68.2873 176.17C68.5316 175.658 68.8697 175.258 69.3015 174.968C69.7333 174.675 70.2347 174.529 70.8058 174.529C71.2433 174.529 71.6396 174.614 71.9947 174.785C72.3498 174.952 72.6424 175.19 72.8725 175.496C73.1055 175.8 73.2518 176.156 73.3114 176.562H72.5444C72.4649 176.192 72.2731 175.877 71.9691 175.616C71.668 175.352 71.2845 175.219 70.8185 175.219C70.4009 175.219 70.0316 175.333 69.7106 175.56C69.3896 175.785 69.1382 176.099 68.9563 176.502C68.7774 176.903 68.6879 177.367 68.6879 177.896C68.6879 178.427 68.7759 178.897 68.9521 179.306C69.1282 179.712 69.3754 180.031 69.6935 180.261C70.0146 180.491 70.3896 180.606 70.8185 180.606C71.1083 180.606 71.3725 180.552 71.6112 180.444C71.8526 180.333 72.0543 180.177 72.2163 179.975C72.381 179.773 72.4918 179.533 72.5487 179.255H73.3157C73.2589 179.65 73.1183 180.002 72.8938 180.312C72.6722 180.619 72.3839 180.86 72.0288 181.036C71.6765 181.212 71.2731 181.3 70.8185 181.3ZM77.2455 181.3C76.6801 181.3 76.1801 181.157 75.7455 180.87C75.3136 180.583 74.9756 180.187 74.7312 179.681C74.4869 179.173 74.3648 178.586 74.3648 177.921C74.3648 177.251 74.4869 176.661 74.7312 176.153C74.9756 175.641 75.3136 175.244 75.7455 174.96C76.1801 174.673 76.6801 174.529 77.2455 174.529C77.8108 174.529 78.3094 174.673 78.7412 174.96C79.173 175.246 79.5111 175.644 79.7554 176.153C80.0026 176.661 80.1261 177.251 80.1261 177.921C80.1261 178.586 80.004 179.173 79.7597 179.681C79.5153 180.187 79.1758 180.583 78.7412 180.87C78.3094 181.157 77.8108 181.3 77.2455 181.3ZM77.2455 180.606C77.7 180.606 78.0849 180.484 78.4003 180.239C78.7156 179.995 78.9543 179.67 79.1162 179.263C79.281 178.857 79.3633 178.41 79.3633 177.921C79.3633 177.433 79.281 176.984 79.1162 176.575C78.9543 176.165 78.7156 175.837 78.4003 175.59C78.0849 175.343 77.7 175.219 77.2455 175.219C76.7937 175.219 76.4088 175.343 76.0906 175.59C75.7753 175.837 75.5352 176.165 75.3705 176.575C75.2085 176.984 75.1276 177.433 75.1276 177.921C75.1276 178.41 75.2085 178.857 75.3705 179.263C75.5352 179.67 75.7753 179.995 76.0906 180.239C76.406 180.484 76.7909 180.606 77.2455 180.606ZM81.5513 181.164V174.619H82.2885V175.624H82.3567C82.4873 175.286 82.7047 175.021 83.0086 174.827C83.3155 174.631 83.6834 174.533 84.1123 174.533C84.564 174.533 84.9348 174.64 85.2246 174.853C85.5172 175.063 85.7359 175.353 85.8808 175.722H85.9362C86.0839 175.359 86.324 175.07 86.6564 174.857C86.9916 174.641 87.3979 174.533 87.8751 174.533C88.4831 174.533 88.9632 174.725 89.3155 175.109C89.6677 175.489 89.8439 176.046 89.8439 176.779V181.164H89.0854V176.779C89.0854 176.262 88.9533 175.874 88.689 175.616C88.4248 175.357 88.0768 175.228 87.645 175.228C87.145 175.228 86.7601 175.381 86.4902 175.688C86.2203 175.995 86.0854 176.384 86.0854 176.856V181.164H85.3098V176.711C85.3098 176.268 85.1862 175.91 84.939 175.637C84.6919 175.364 84.3439 175.228 83.895 175.228C83.5939 175.228 83.3226 175.302 83.0811 175.45C82.8425 175.597 82.6535 175.803 82.5143 176.067C82.378 176.329 82.3098 176.63 82.3098 176.971V181.164H81.5513ZM91.612 183.619V174.619H92.3493V175.867H92.4388C92.5297 175.671 92.6547 175.471 92.8138 175.266C92.9728 175.059 93.1831 174.884 93.4444 174.742C93.7086 174.6 94.041 174.529 94.4416 174.529C94.9814 174.529 95.453 174.671 95.8564 174.955C96.2626 175.237 96.578 175.631 96.8024 176.14C97.0297 176.646 97.1433 177.235 97.1433 177.908C97.1433 178.585 97.0297 179.177 96.8024 179.685C96.578 180.194 96.2626 180.59 95.8564 180.874C95.453 181.158 94.9842 181.3 94.4501 181.3C94.0552 181.3 93.7243 181.229 93.4572 181.087C93.193 180.945 92.9785 180.771 92.8138 180.563C92.6518 180.353 92.5268 180.148 92.4388 179.95H92.3706V183.619H91.612ZM92.362 177.896C92.362 178.424 92.4402 178.893 92.5964 179.302C92.7555 179.708 92.9828 180.028 93.2782 180.261C93.5765 180.491 93.9373 180.606 94.3606 180.606C94.7953 180.606 95.1618 180.487 95.4601 180.248C95.7612 180.006 95.9899 179.681 96.1461 179.272C96.3052 178.863 96.3848 178.404 96.3848 177.896C96.3848 177.393 96.3066 176.94 96.1504 176.536C95.997 176.133 95.7697 175.813 95.4686 175.577C95.1674 175.339 94.7981 175.219 94.3606 175.219C93.9345 175.219 93.5723 175.335 93.274 175.565C92.9757 175.792 92.7484 176.107 92.5922 176.511C92.4388 176.911 92.362 177.373 92.362 177.896ZM101.214 181.3C100.603 181.3 100.074 181.158 99.6284 180.874C99.1824 180.587 98.8372 180.191 98.5929 179.685C98.3514 179.177 98.2307 178.592 98.2307 177.93C98.2307 177.271 98.3514 176.685 98.5929 176.174C98.8372 175.66 99.1739 175.258 99.6029 174.968C100.035 174.675 100.533 174.529 101.099 174.529C101.454 174.529 101.796 174.594 102.126 174.725C102.455 174.853 102.751 175.05 103.012 175.317C103.276 175.582 103.485 175.915 103.638 176.319C103.792 176.719 103.868 177.194 103.868 177.742V178.117H98.7549V177.448H103.093C103.093 177.028 103.008 176.65 102.837 176.315C102.67 175.977 102.435 175.71 102.134 175.513C101.836 175.317 101.491 175.219 101.099 175.219C100.684 175.219 100.319 175.33 100.003 175.552C99.6881 175.773 99.4409 176.066 99.262 176.43C99.0858 176.793 98.9963 177.191 98.9935 177.623V178.023C98.9935 178.543 99.083 178.998 99.262 179.387C99.4438 179.773 99.7009 180.073 100.033 180.286C100.366 180.499 100.759 180.606 101.214 180.606C101.523 180.606 101.795 180.558 102.028 180.461C102.263 180.364 102.461 180.235 102.62 180.073C102.782 179.908 102.904 179.728 102.986 179.532L103.707 179.766C103.607 180.042 103.444 180.296 103.217 180.529C102.992 180.762 102.711 180.95 102.373 181.092C102.038 181.231 101.651 181.3 101.214 181.3ZM106.059 177.073V181.164H105.3V174.619H106.037V175.646H106.105C106.259 175.31 106.497 175.042 106.821 174.84C107.148 174.636 107.551 174.533 108.032 174.533C108.472 174.533 108.858 174.626 109.191 174.81C109.526 174.992 109.786 175.261 109.97 175.616C110.158 175.971 110.252 176.407 110.252 176.924V181.164H109.493V176.971C109.493 176.434 109.343 176.009 109.041 175.697C108.743 175.384 108.343 175.228 107.84 175.228C107.496 175.228 107.191 175.302 106.924 175.45C106.657 175.597 106.445 175.81 106.289 176.089C106.135 176.364 106.059 176.692 106.059 177.073ZM116.407 176.055L115.712 176.251C115.644 176.055 115.548 175.877 115.423 175.718C115.298 175.559 115.134 175.433 114.933 175.339C114.734 175.245 114.487 175.198 114.191 175.198C113.748 175.198 113.384 175.303 113.1 175.513C112.816 175.724 112.674 175.995 112.674 176.327C112.674 176.609 112.771 176.837 112.964 177.013C113.16 177.187 113.461 177.325 113.867 177.427L114.856 177.67C115.404 177.803 115.815 178.015 116.087 178.305C116.363 178.594 116.501 178.958 116.501 179.396C116.501 179.765 116.398 180.093 116.194 180.38C115.989 180.667 115.704 180.893 115.337 181.058C114.974 181.219 114.552 181.3 114.072 181.3C113.433 181.3 112.906 181.157 112.491 180.87C112.076 180.58 111.81 180.163 111.694 179.617L112.423 179.438C112.516 179.827 112.7 180.121 112.972 180.32C113.248 180.519 113.61 180.619 114.059 180.619C114.562 180.619 114.964 180.506 115.265 180.282C115.566 180.055 115.717 179.771 115.717 179.43C115.717 179.165 115.629 178.944 115.452 178.765C115.276 178.583 115.009 178.45 114.651 178.364L113.582 178.109C113.013 177.972 112.593 177.756 112.32 177.461C112.048 177.165 111.911 176.799 111.911 176.362C111.911 176.001 112.009 175.684 112.205 175.411C112.401 175.136 112.671 174.92 113.015 174.763C113.359 174.607 113.751 174.529 114.191 174.529C114.79 174.529 115.269 174.665 115.627 174.938C115.988 175.208 116.248 175.58 116.407 176.055ZM119.75 181.313C119.355 181.313 118.994 181.237 118.667 181.083C118.341 180.927 118.081 180.702 117.887 180.41C117.694 180.114 117.598 179.756 117.598 179.336C117.598 179.012 117.659 178.739 117.781 178.518C117.903 178.296 118.076 178.114 118.301 177.972C118.525 177.83 118.791 177.718 119.098 177.636C119.405 177.553 119.743 177.489 120.112 177.444C120.478 177.398 120.788 177.359 121.041 177.325C121.297 177.29 121.491 177.237 121.625 177.163C121.758 177.089 121.825 176.969 121.825 176.805V176.651C121.825 176.205 121.691 175.854 121.424 175.599C121.16 175.34 120.78 175.211 120.282 175.211C119.811 175.211 119.426 175.315 119.128 175.522C118.832 175.729 118.625 175.974 118.505 176.255L117.785 175.995C117.933 175.637 118.137 175.352 118.399 175.138C118.66 174.923 118.953 174.768 119.277 174.674C119.601 174.577 119.929 174.529 120.261 174.529C120.511 174.529 120.771 174.562 121.041 174.627C121.314 174.692 121.566 174.806 121.799 174.968C122.032 175.127 122.221 175.35 122.366 175.637C122.511 175.921 122.584 176.282 122.584 176.719V181.164H121.825V180.129H121.778C121.687 180.322 121.552 180.509 121.373 180.691C121.194 180.873 120.97 181.022 120.7 181.138C120.43 181.255 120.113 181.313 119.75 181.313ZM119.852 180.619C120.255 180.619 120.605 180.529 120.9 180.35C121.196 180.171 121.423 179.934 121.582 179.638C121.744 179.34 121.825 179.012 121.825 178.654V177.708C121.768 177.762 121.673 177.81 121.539 177.853C121.409 177.896 121.257 177.934 121.084 177.968C120.913 177.999 120.743 178.026 120.572 178.049C120.402 178.072 120.248 178.092 120.112 178.109C119.743 178.154 119.427 178.225 119.166 178.322C118.905 178.418 118.704 178.552 118.565 178.722C118.426 178.89 118.356 179.106 118.356 179.37C118.356 179.768 118.498 180.076 118.782 180.295C119.066 180.511 119.423 180.619 119.852 180.619ZM126.939 174.619V175.279H123.816V174.619H126.939ZM124.792 173.05H125.554V179.455C125.554 179.728 125.601 179.942 125.695 180.099C125.789 180.252 125.911 180.362 126.062 180.427C126.212 180.489 126.373 180.521 126.543 180.521C126.643 180.521 126.728 180.515 126.799 180.504C126.87 180.489 126.932 180.475 126.986 180.461L127.148 181.147C127.074 181.175 126.983 181.201 126.875 181.224C126.768 181.249 126.634 181.262 126.475 181.262C126.196 181.262 125.928 181.201 125.67 181.079C125.414 180.957 125.204 180.775 125.039 180.533C124.874 180.292 124.792 179.992 124.792 179.634V173.05ZM128.431 181.164V174.619H129.193V181.164H128.431ZM128.818 173.494C128.662 173.494 128.529 173.441 128.418 173.336C128.307 173.228 128.252 173.099 128.252 172.948C128.252 172.798 128.307 172.67 128.418 172.565C128.529 172.457 128.662 172.403 128.818 172.403C128.975 172.403 129.108 172.457 129.219 172.565C129.33 172.67 129.385 172.798 129.385 172.948C129.385 173.099 129.33 173.228 129.219 173.336C129.108 173.441 128.975 173.494 128.818 173.494ZM133.503 181.3C132.938 181.3 132.438 181.157 132.003 180.87C131.572 180.583 131.234 180.187 130.989 179.681C130.745 179.173 130.623 178.586 130.623 177.921C130.623 177.251 130.745 176.661 130.989 176.153C131.234 175.641 131.572 175.244 132.003 174.96C132.438 174.673 132.938 174.529 133.503 174.529C134.069 174.529 134.567 174.673 134.999 174.96C135.431 175.246 135.769 175.644 136.013 176.153C136.261 176.661 136.384 177.251 136.384 177.921C136.384 178.586 136.262 179.173 136.018 179.681C135.773 180.187 135.434 180.583 134.999 180.87C134.567 181.157 134.069 181.3 133.503 181.3ZM133.503 180.606C133.958 180.606 134.343 180.484 134.658 180.239C134.974 179.995 135.212 179.67 135.374 179.263C135.539 178.857 135.621 178.41 135.621 177.921C135.621 177.433 135.539 176.984 135.374 176.575C135.212 176.165 134.974 175.837 134.658 175.59C134.343 175.343 133.958 175.219 133.503 175.219C133.052 175.219 132.667 175.343 132.349 175.59C132.033 175.837 131.793 176.165 131.628 176.575C131.466 176.984 131.386 177.433 131.386 177.921C131.386 178.41 131.466 178.857 131.628 179.263C131.793 179.67 132.033 179.995 132.349 180.239C132.664 180.484 133.049 180.606 133.503 180.606ZM138.568 177.073V181.164H137.809V174.619H138.546V175.646H138.615C138.768 175.31 139.007 175.042 139.331 174.84C139.657 174.636 140.061 174.533 140.541 174.533C140.981 174.533 141.367 174.626 141.7 174.81C142.035 174.992 142.295 175.261 142.48 175.616C142.667 175.971 142.761 176.407 142.761 176.924V181.164H142.002V176.971C142.002 176.434 141.852 176.009 141.551 175.697C141.252 175.384 140.852 175.228 140.349 175.228C140.005 175.228 139.7 175.302 139.433 175.45C139.166 175.597 138.954 175.81 138.798 176.089C138.644 176.364 138.568 176.692 138.568 177.073ZM145.124 181.228C144.956 181.228 144.811 181.168 144.689 181.049C144.57 180.927 144.51 180.782 144.51 180.614C144.51 180.444 144.57 180.299 144.689 180.18C144.811 180.06 144.956 180.001 145.124 180.001C145.294 180.001 145.439 180.06 145.558 180.18C145.678 180.299 145.737 180.444 145.737 180.614C145.737 180.725 145.709 180.827 145.652 180.921C145.598 181.015 145.524 181.09 145.43 181.147C145.339 181.201 145.237 181.228 145.124 181.228Z" fill="black"/>
<defs>
<clipPath id="clip0_411_5981">
<rect width="27" height="27" fill="white" transform="translate(93.5 41.1641)"/>
</clipPath>
</defs>
</svg>
