<svg width="235" height="220" viewBox="0 0 235 220" fill="none" xmlns="http://www.w3.org/2000/svg">
<path d="M234.419 109.903L211.434 96.627V123.18L234.419 109.903Z" fill="#2248CE"/>
<path d="M179.865 -0.00976562H107.984V5.59585V11.2015V208.605V214.211V219.816H179.865C200.839 219.816 217.897 202.758 217.897 181.784V38.0226C217.897 17.0485 200.839 -0.00976562 179.865 -0.00976562Z" fill="#2248CE"/>
<path d="M5.04334 93.6232H2.25391V37.9425C2.25391 19.275 17.4347 4.06738 36.129 4.06738H108.063V6.85678H36.129C18.9903 6.85678 5.07013 20.8038 5.07013 37.9157V93.6232H5.04334Z" fill="#2248CE"/>
<path d="M6.81413 93.4623C6.81413 95.2056 5.39266 96.6271 3.64928 96.6271C1.90591 96.6271 0.484375 95.2056 0.484375 93.4623C0.484375 91.7189 1.90591 90.2974 3.64928 90.2974C5.39266 90.2974 6.81413 91.7189 6.81413 93.4623Z" fill="#2248CE"/>
<path d="M5.04334 126.908H2.25391V181.838H5.04334V126.908Z" fill="#2248CE"/>
<path d="M6.81413 127.069C6.81413 125.326 5.39266 123.904 3.64928 123.904C1.90591 123.904 0.484375 125.326 0.484375 127.069C0.484375 128.813 1.90591 130.234 3.64928 130.234C5.39266 130.207 6.81413 128.813 6.81413 127.069Z" fill="#2248CE"/>
<path d="M108.064 215.981H106.669C105.731 215.981 104.98 215.23 104.98 214.291C104.98 213.352 105.731 212.601 106.669 212.601H108.064C109.003 212.601 109.754 213.352 109.754 214.291C109.727 215.23 108.976 215.981 108.064 215.981ZM92.642 215.981H91.2473C90.3085 215.981 89.5575 215.23 89.5575 214.291C89.5575 213.352 90.3085 212.601 91.2473 212.601H92.642C93.5807 212.601 94.3317 213.352 94.3317 214.291C94.3317 215.23 93.5807 215.981 92.642 215.981ZM77.2466 215.981H75.852C74.9132 215.981 74.1622 215.23 74.1622 214.291C74.1622 213.352 74.9132 212.601 75.852 212.601H77.2466C78.1854 212.601 78.9364 213.352 78.9364 214.291C78.9364 215.23 78.1586 215.981 77.2466 215.981ZM61.8245 215.981H60.4298C59.4911 215.981 58.7401 215.23 58.7401 214.291C58.7401 213.352 59.4911 212.601 60.4298 212.601H61.8245C62.7632 212.601 63.5142 213.352 63.5142 214.291C63.5142 215.23 62.7632 215.981 61.8245 215.981ZM46.4292 215.981H45.0344C44.0957 215.981 43.3447 215.23 43.3447 214.291C43.3447 213.352 44.0957 212.601 45.0344 212.601H46.4292C47.3679 212.601 48.1189 213.352 48.1189 214.291C48.1189 215.23 47.3679 215.981 46.4292 215.981ZM31.0338 215.579C30.9533 215.579 30.8729 215.579 30.7656 215.552C30.2828 215.471 29.8001 215.391 29.3173 215.284C28.4054 215.096 27.8152 214.211 28.003 213.299C28.1907 212.387 29.0759 211.797 29.9878 211.985C30.4169 212.065 30.846 212.145 31.302 212.226C32.2139 212.36 32.8576 213.218 32.6967 214.157C32.5626 214.989 31.8653 215.579 31.0338 215.579ZM16.9527 209.732C16.604 209.732 16.2554 209.624 15.9603 209.41C15.558 209.115 15.1825 208.82 14.7802 208.525C14.0561 207.935 13.9488 206.889 14.512 206.164C15.1021 205.44 16.148 205.333 16.8722 205.896C17.2209 206.164 17.5696 206.433 17.9183 206.701C18.6693 207.237 18.8302 208.31 18.2938 209.061C17.9719 209.49 17.4623 209.732 16.9527 209.732ZM7.0825 198.091C6.46561 198.091 5.87559 197.743 5.58056 197.152C5.36599 196.723 5.15138 196.267 4.93681 195.811C4.56131 194.953 4.93684 193.961 5.76829 193.585C6.62657 193.21 7.61896 193.585 7.99446 194.417C8.18221 194.819 8.36992 195.221 8.55766 195.624C8.9868 196.455 8.63818 197.474 7.80672 197.877C7.59216 198.011 7.35071 198.091 7.0825 198.091Z" fill="#2248CE"/>
<path d="M203.798 43.9892V176.137C203.798 192.605 190.441 205.962 173.973 205.962H41.8251C25.3569 205.962 12 192.605 12 176.137V43.9892C12 27.521 25.3569 14.1641 41.8251 14.1641H173.973C190.441 14.1641 203.798 27.521 203.798 43.9892Z" fill="#F7F7F7"/>
<path d="M103.758 68.6284H102.98V52.5357H99.842V68.6284H99.0642V51.7579H103.758V68.6284Z" fill="#636363"/>
<path d="M109.766 68.6285H108.988V59.8312H105.823V68.6285H105.046V59.0533H109.766V68.6285Z" fill="#636363"/>
<path d="M115.747 68.6286H114.969V56.8273H111.831V68.6286H111.053V56.0494H115.747V68.6286Z" fill="#636363"/>
<path d="M121.916 70.1574H94.1025C93.8343 70.1574 93.6465 69.9428 93.6465 69.7014V48.62C93.6465 48.3518 93.8611 48.1641 94.1025 48.1641C94.3707 48.1641 94.5584 48.3786 94.5584 48.62V68.7627C94.5584 69.0309 94.773 69.2187 95.0144 69.2187H121.889C122.157 69.2187 122.345 69.4332 122.345 69.6746C122.399 69.9428 122.184 70.1574 121.916 70.1574Z" fill="#636363"/>
<path d="M103.195 52.509H99.8689V68.5749H103.195V52.509Z" fill="#2248CE"/>
<path d="M109.042 59.6699H105.716V68.6014H109.042V59.6699Z" fill="#2248CE"/>
<path d="M115.157 56.854H111.831V68.5748H115.157V56.854Z" fill="#2248CE"/>
<path d="M66.1645 100.882H62.6134C62.566 100.517 62.469 100.188 62.3222 99.8947C62.1754 99.6011 61.9813 99.3502 61.7398 99.1418C61.4983 98.9335 61.2119 98.7749 60.8804 98.666C60.5537 98.5524 60.1915 98.4955 59.7938 98.4955C59.0883 98.4955 58.4799 98.6684 57.9685 99.014C57.4619 99.3596 57.0712 99.8592 56.7966 100.513C56.5267 101.166 56.3918 101.957 56.3918 102.885C56.3918 103.851 56.5291 104.66 56.8037 105.314C57.0831 105.962 57.4737 106.452 57.9756 106.784C58.4822 107.111 59.0812 107.274 59.7725 107.274C60.1607 107.274 60.5135 107.224 60.8307 107.125C61.1527 107.025 61.4344 106.881 61.6759 106.692C61.9221 106.497 62.1233 106.263 62.2796 105.988C62.4406 105.709 62.5518 105.394 62.6134 105.044L66.1645 105.065C66.103 105.709 65.9159 106.344 65.6034 106.969C65.2957 107.594 64.8719 108.164 64.3321 108.68C63.7924 109.192 63.1342 109.599 62.3577 109.902C61.5859 110.205 60.7005 110.356 59.7015 110.356C58.3852 110.356 57.2062 110.068 56.1645 109.49C55.1276 108.907 54.3085 108.06 53.7071 106.947C53.1058 105.835 52.8051 104.48 52.8051 102.885C52.8051 101.284 53.1105 99.9278 53.7213 98.8151C54.3321 97.7025 55.1584 96.8573 56.2 96.2796C57.2417 95.702 58.4088 95.4132 59.7015 95.4132C60.5821 95.4132 61.3965 95.5363 62.1446 95.7825C62.8927 96.0239 63.5509 96.3791 64.1191 96.8478C64.6873 97.3118 65.1489 97.8824 65.504 98.5595C65.8591 99.2365 66.0793 100.011 66.1645 100.882ZM72.8686 110.363C71.7227 110.363 70.7379 110.129 69.914 109.66C69.0949 109.187 68.4628 108.529 68.0177 107.686C67.5774 106.838 67.3572 105.856 67.3572 104.738C67.3572 103.616 67.5774 102.634 68.0177 101.791C68.4628 100.943 69.0949 100.285 69.914 99.8166C70.7379 99.3431 71.7227 99.1063 72.8686 99.1063C74.0144 99.1063 74.9969 99.3431 75.816 99.8166C76.6399 100.285 77.272 100.943 77.7123 101.791C78.1574 102.634 78.3799 103.616 78.3799 104.738C78.3799 105.856 78.1574 106.838 77.7123 107.686C77.272 108.529 76.6399 109.187 75.816 109.66C74.9969 110.129 74.0144 110.363 72.8686 110.363ZM72.8899 107.743C73.3065 107.743 73.6593 107.615 73.9481 107.359C74.2369 107.103 74.4571 106.748 74.6086 106.294C74.7649 105.839 74.843 105.314 74.843 104.717C74.843 104.111 74.7649 103.581 74.6086 103.126C74.4571 102.672 74.2369 102.317 73.9481 102.061C73.6593 101.805 73.3065 101.677 72.8899 101.677C72.459 101.677 72.0944 101.805 71.7961 102.061C71.5026 102.317 71.2777 102.672 71.1214 103.126C70.9699 103.581 70.8941 104.111 70.8941 104.717C70.8941 105.314 70.9699 105.839 71.1214 106.294C71.2777 106.748 71.5026 107.103 71.7961 107.359C72.0944 107.615 72.459 107.743 72.8899 107.743ZM83.2321 103.936V110.157H79.7591V99.2484H83.0616V101.251H83.1824C83.4238 100.584 83.8358 100.06 84.4181 99.6816C85.0005 99.2981 85.6942 99.1063 86.4991 99.1063C87.2662 99.1063 87.9314 99.2792 88.4949 99.6248C89.063 99.9657 89.5034 100.444 89.8159 101.059C90.1331 101.67 90.2894 102.385 90.2846 103.204V110.157H86.8116V103.886C86.8163 103.28 86.6625 102.807 86.35 102.466C86.0422 102.125 85.6137 101.954 85.0645 101.954C84.6999 101.954 84.3779 102.035 84.0985 102.196C83.8239 102.352 83.6109 102.577 83.4593 102.871C83.3126 103.164 83.2368 103.519 83.2321 103.936ZM98.1925 99.2484V101.805H91.3104V99.2484H98.1925ZM92.7522 96.6347H96.2252V106.727C96.2252 106.94 96.2583 107.113 96.3246 107.246C96.3956 107.373 96.4974 107.466 96.63 107.523C96.7626 107.575 96.9212 107.601 97.1059 107.601C97.2384 107.601 97.3781 107.589 97.5249 107.565C97.6764 107.537 97.79 107.513 97.8658 107.494L98.3914 110.001C98.2256 110.049 97.9913 110.108 97.6882 110.179C97.3899 110.25 97.0325 110.295 96.6158 110.314C95.8014 110.352 95.103 110.257 94.5206 110.03C93.943 109.798 93.5003 109.438 93.1925 108.95C92.8895 108.462 92.7427 107.849 92.7522 107.111V96.6347ZM99.5645 110.157V99.2484H103.038V110.157H99.5645ZM101.305 97.9771C100.817 97.9771 100.398 97.8161 100.047 97.4941C99.6971 97.1674 99.5219 96.7744 99.5219 96.3151C99.5219 95.8606 99.6971 95.4723 100.047 95.1504C100.398 94.8237 100.817 94.6603 101.305 94.6603C101.797 94.6603 102.216 94.8237 102.562 95.1504C102.912 95.4723 103.087 95.8606 103.087 96.3151C103.087 96.7744 102.912 97.1674 102.562 97.4941C102.216 97.8161 101.797 97.9771 101.305 97.9771ZM108.321 103.936V110.157H104.848V99.2484H108.151V101.251H108.271C108.513 100.584 108.925 100.06 109.507 99.6816C110.09 99.2981 110.783 99.1063 111.588 99.1063C112.355 99.1063 113.02 99.2792 113.584 99.6248C114.152 99.9657 114.592 100.444 114.905 101.059C115.222 101.67 115.378 102.385 115.374 103.204V110.157H111.901V103.886C111.905 103.28 111.752 102.807 111.439 102.466C111.131 102.125 110.703 101.954 110.154 101.954C109.789 101.954 109.467 102.035 109.188 102.196C108.913 102.352 108.7 102.577 108.548 102.871C108.402 103.164 108.326 103.519 108.321 103.936ZM124.162 105.449V99.2484H127.628V110.157H124.318V108.126H124.205C123.963 108.794 123.551 109.324 122.969 109.717C122.391 110.105 121.693 110.3 120.874 110.3C120.131 110.3 119.477 110.129 118.914 109.788C118.35 109.447 117.912 108.971 117.6 108.361C117.287 107.745 117.129 107.025 117.124 106.202V99.2484H120.597V105.52C120.602 106.112 120.758 106.578 121.066 106.919C121.373 107.26 121.792 107.43 122.323 107.43C122.668 107.43 122.979 107.354 123.253 107.203C123.533 107.047 123.753 106.822 123.914 106.528C124.079 106.23 124.162 105.87 124.162 105.449ZM134.531 110.363C133.385 110.363 132.4 110.129 131.577 109.66C130.757 109.187 130.125 108.529 129.68 107.686C129.24 106.838 129.02 105.856 129.02 104.738C129.02 103.616 129.24 102.634 129.68 101.791C130.125 100.943 130.757 100.285 131.577 99.8166C132.4 99.3431 133.385 99.1063 134.531 99.1063C135.677 99.1063 136.659 99.3431 137.479 99.8166C138.302 100.285 138.934 100.943 139.375 101.791C139.82 102.634 140.042 103.616 140.042 104.738C140.042 105.856 139.82 106.838 139.375 107.686C138.934 108.529 138.302 109.187 137.479 109.66C136.659 110.129 135.677 110.363 134.531 110.363ZM134.552 107.743C134.969 107.743 135.322 107.615 135.611 107.359C135.899 107.103 136.12 106.748 136.271 106.294C136.427 105.839 136.506 105.314 136.506 104.717C136.506 104.111 136.427 103.581 136.271 103.126C136.12 102.672 135.899 102.317 135.611 102.061C135.322 101.805 134.969 101.677 134.552 101.677C134.122 101.677 133.757 101.805 133.459 102.061C133.165 102.317 132.94 102.672 132.784 103.126C132.632 103.581 132.557 104.111 132.557 104.717C132.557 105.314 132.632 105.839 132.784 106.294C132.94 106.748 133.165 107.103 133.459 107.359C133.757 107.615 134.122 107.743 134.552 107.743ZM148.46 105.449V99.2484H151.926V110.157H148.616V108.126H148.503C148.261 108.794 147.849 109.324 147.267 109.717C146.689 110.105 145.991 110.3 145.172 110.3C144.428 110.3 143.775 110.129 143.211 109.788C142.648 109.447 142.21 108.971 141.897 108.361C141.585 107.745 141.426 107.025 141.422 106.202V99.2484H144.895V105.52C144.899 106.112 145.056 106.578 145.363 106.919C145.671 107.26 146.09 107.43 146.62 107.43C146.966 107.43 147.276 107.354 147.551 107.203C147.83 107.047 148.05 106.822 148.211 106.528C148.377 106.23 148.46 105.87 148.46 105.449ZM163.261 102.579L160.072 102.665C160.038 102.437 159.949 102.236 159.802 102.061C159.655 101.881 159.463 101.741 159.226 101.642C158.994 101.538 158.725 101.486 158.417 101.486C158.014 101.486 157.671 101.566 157.387 101.727C157.108 101.888 156.97 102.106 156.975 102.38C156.97 102.594 157.056 102.778 157.231 102.934C157.411 103.091 157.73 103.216 158.19 103.311L160.292 103.709C161.381 103.917 162.19 104.263 162.721 104.746C163.256 105.228 163.526 105.868 163.53 106.663C163.526 107.411 163.303 108.062 162.863 108.616C162.427 109.17 161.831 109.601 161.073 109.909C160.315 110.212 159.449 110.363 158.474 110.363C156.916 110.363 155.687 110.044 154.788 109.405C153.893 108.761 153.381 107.899 153.253 106.819L156.684 106.734C156.76 107.132 156.956 107.435 157.273 107.643C157.591 107.852 157.995 107.956 158.488 107.956C158.933 107.956 159.295 107.873 159.574 107.707C159.854 107.541 159.996 107.321 160.001 107.047C159.996 106.8 159.887 106.604 159.674 106.457C159.461 106.306 159.127 106.187 158.672 106.102L156.769 105.74C155.675 105.541 154.861 105.174 154.326 104.639C153.791 104.099 153.526 103.413 153.53 102.579C153.526 101.85 153.72 101.228 154.113 100.711C154.506 100.191 155.065 99.7929 155.789 99.5183C156.513 99.2436 157.368 99.1063 158.353 99.1063C159.83 99.1063 160.995 99.4165 161.847 100.037C162.699 100.652 163.171 101.5 163.261 102.579ZM48.7669 119.612V134.157H45.2512V119.612H48.7669ZM50.5739 134.157V123.248H53.8765V125.251H53.9972C54.2245 124.588 54.608 124.065 55.1478 123.682C55.6875 123.298 56.3315 123.106 57.0796 123.106C57.8372 123.106 58.4858 123.3 59.0256 123.689C59.5654 124.077 59.9087 124.598 60.0554 125.251H60.1691C60.3727 124.603 60.7704 124.084 61.3623 123.696C61.9541 123.303 62.6525 123.106 63.4574 123.106C64.4896 123.106 65.3277 123.438 65.9716 124.101C66.6156 124.759 66.9375 125.663 66.9375 126.814V134.157H63.4645V127.609C63.4645 127.065 63.3248 126.65 63.0455 126.366C62.7661 126.077 62.4039 125.933 61.9588 125.933C61.4806 125.933 61.1042 126.089 60.8296 126.402C60.5597 126.71 60.4248 127.124 60.4248 127.645V134.157H57.0867V127.574C57.0867 127.067 56.9494 126.667 56.6748 126.373C56.4001 126.08 56.0379 125.933 55.5881 125.933C55.2851 125.933 55.0176 126.006 54.7855 126.153C54.5535 126.295 54.3712 126.499 54.2387 126.764C54.1108 127.029 54.0469 127.342 54.0469 127.702V134.157H50.5739ZM68.6895 138.248V123.248H72.127V125.116H72.2336C72.3756 124.785 72.5768 124.465 72.8373 124.157C73.1024 123.85 73.4386 123.599 73.8458 123.405C74.2577 123.206 74.7501 123.106 75.323 123.106C76.0806 123.106 76.7885 123.305 77.4466 123.703C78.1095 124.101 78.6445 124.714 79.0517 125.542C79.4589 126.371 79.6625 127.427 79.6625 128.71C79.6625 129.946 79.466 130.98 79.073 131.814C78.6848 132.647 78.1592 133.272 77.4963 133.689C76.8382 134.105 76.1067 134.314 75.3017 134.314C74.7525 134.314 74.2766 134.224 73.8742 134.044C73.4717 133.864 73.1332 133.627 72.8586 133.334C72.5887 133.04 72.3803 132.725 72.2336 132.389H72.1625V138.248H68.6895ZM72.0915 128.703C72.0915 129.29 72.1696 129.801 72.3259 130.237C72.4869 130.673 72.7165 131.011 73.0148 131.253C73.3178 131.489 73.6801 131.608 74.1015 131.608C74.5276 131.608 74.8898 131.489 75.1881 131.253C75.4864 131.011 75.7113 130.673 75.8628 130.237C76.0191 129.801 76.0972 129.29 76.0972 128.703C76.0972 128.116 76.0191 127.607 75.8628 127.176C75.7113 126.745 75.4864 126.411 75.1881 126.175C74.8945 125.938 74.5323 125.819 74.1015 125.819C73.6753 125.819 73.3131 125.935 73.0148 126.167C72.7165 126.399 72.4869 126.731 72.3259 127.162C72.1696 127.593 72.0915 128.106 72.0915 128.703ZM81.0825 134.157V123.248H84.4561V125.237H84.5697C84.7686 124.517 85.0929 123.982 85.5427 123.632C85.9925 123.277 86.5157 123.099 87.1123 123.099C87.2733 123.099 87.439 123.111 87.6095 123.135C87.7799 123.154 87.9386 123.184 88.0853 123.227V126.246C87.9196 126.189 87.7018 126.144 87.4319 126.111C87.1668 126.077 86.93 126.061 86.7217 126.061C86.3098 126.061 85.9381 126.153 85.6066 126.338C85.2799 126.518 85.0219 126.771 84.8325 127.098C84.6478 127.42 84.5555 127.799 84.5555 128.234V134.157H81.0825ZM93.6264 134.363C92.4806 134.363 91.4957 134.129 90.6718 133.66C89.8527 133.187 89.2206 132.529 88.7755 131.686C88.3352 130.838 88.115 129.856 88.115 128.738C88.115 127.616 88.3352 126.634 88.7755 125.791C89.2206 124.943 89.8527 124.285 90.6718 123.817C91.4957 123.343 92.4806 123.106 93.6264 123.106C94.7722 123.106 95.7547 123.343 96.5738 123.817C97.3977 124.285 98.0298 124.943 98.4701 125.791C98.9152 126.634 99.1378 127.616 99.1378 128.738C99.1378 129.856 98.9152 130.838 98.4701 131.686C98.0298 132.529 97.3977 133.187 96.5738 133.66C95.7547 134.129 94.7722 134.363 93.6264 134.363ZM93.6477 131.743C94.0644 131.743 94.4171 131.615 94.7059 131.359C94.9948 131.103 95.2149 130.748 95.3664 130.294C95.5227 129.839 95.6008 129.314 95.6008 128.717C95.6008 128.111 95.5227 127.581 95.3664 127.126C95.2149 126.672 94.9948 126.317 94.7059 126.061C94.4171 125.805 94.0644 125.677 93.6477 125.677C93.2168 125.677 92.8522 125.805 92.5539 126.061C92.2604 126.317 92.0355 126.672 91.8792 127.126C91.7277 127.581 91.652 128.111 91.652 128.717C91.652 129.314 91.7277 129.839 91.8792 130.294C92.0355 130.748 92.2604 131.103 92.5539 131.359C92.8522 131.615 93.2168 131.743 93.6477 131.743ZM110.748 123.248L107.005 134.157H103.028L99.2917 123.248H102.949L104.959 130.763H105.073L107.09 123.248H110.748ZM116.427 134.363C115.286 134.363 114.301 134.139 113.473 133.689C112.649 133.234 112.014 132.588 111.569 131.75C111.129 130.907 110.909 129.906 110.909 128.746C110.909 127.619 111.131 126.634 111.576 125.791C112.021 124.943 112.649 124.285 113.458 123.817C114.268 123.343 115.222 123.106 116.321 123.106C117.097 123.106 117.807 123.227 118.451 123.469C119.095 123.71 119.652 124.068 120.12 124.541C120.589 125.014 120.954 125.599 121.214 126.295C121.475 126.987 121.605 127.78 121.605 128.675V129.541H112.123V127.524H118.373C118.369 127.155 118.281 126.826 118.11 126.537C117.94 126.248 117.706 126.023 117.407 125.862C117.114 125.696 116.775 125.613 116.392 125.613C116.003 125.613 115.655 125.701 115.348 125.876C115.04 126.047 114.796 126.281 114.616 126.579C114.436 126.873 114.342 127.207 114.332 127.581V129.633C114.332 130.078 114.42 130.469 114.595 130.805C114.77 131.137 115.019 131.395 115.341 131.579C115.663 131.764 116.046 131.856 116.491 131.856C116.799 131.856 117.078 131.814 117.329 131.728C117.58 131.643 117.796 131.518 117.976 131.352C118.155 131.186 118.29 130.983 118.38 130.741L121.569 130.834C121.437 131.549 121.146 132.171 120.696 132.702C120.251 133.227 119.666 133.637 118.941 133.93C118.217 134.219 117.379 134.363 116.427 134.363ZM122.979 134.157V123.248H126.281V125.251H126.402C126.629 124.588 127.013 124.065 127.552 123.682C128.092 123.298 128.736 123.106 129.484 123.106C130.242 123.106 130.891 123.3 131.43 123.689C131.97 124.077 132.313 124.598 132.46 125.251H132.574C132.777 124.603 133.175 124.084 133.767 123.696C134.359 123.303 135.057 123.106 135.862 123.106C136.894 123.106 137.732 123.438 138.376 124.101C139.02 124.759 139.342 125.663 139.342 126.814V134.157H135.869V127.609C135.869 127.065 135.73 126.65 135.45 126.366C135.171 126.077 134.809 125.933 134.364 125.933C133.885 125.933 133.509 126.089 133.234 126.402C132.964 126.71 132.829 127.124 132.829 127.645V134.157H129.491V127.574C129.491 127.067 129.354 126.667 129.079 126.373C128.805 126.08 128.443 125.933 127.993 125.933C127.69 125.933 127.422 126.006 127.19 126.153C126.958 126.295 126.776 126.499 126.643 126.764C126.516 127.029 126.452 127.342 126.452 127.702V134.157H122.979ZM146.194 134.363C145.053 134.363 144.068 134.139 143.239 133.689C142.415 133.234 141.781 132.588 141.336 131.75C140.895 130.907 140.675 129.906 140.675 128.746C140.675 127.619 140.898 126.634 141.343 125.791C141.788 124.943 142.415 124.285 143.225 123.817C144.035 123.343 144.989 123.106 146.087 123.106C146.864 123.106 147.574 123.227 148.218 123.469C148.862 123.71 149.418 124.068 149.887 124.541C150.356 125.014 150.72 125.599 150.981 126.295C151.241 126.987 151.371 127.78 151.371 128.675V129.541H141.89V127.524H148.14C148.135 127.155 148.047 126.826 147.877 126.537C147.706 126.248 147.472 126.023 147.174 125.862C146.88 125.696 146.542 125.613 146.158 125.613C145.77 125.613 145.422 125.701 145.114 125.876C144.806 126.047 144.562 126.281 144.383 126.579C144.203 126.873 144.108 127.207 144.098 127.581V129.633C144.098 130.078 144.186 130.469 144.361 130.805C144.536 131.137 144.785 131.395 145.107 131.579C145.429 131.764 145.812 131.856 146.258 131.856C146.565 131.856 146.845 131.814 147.096 131.728C147.347 131.643 147.562 131.518 147.742 131.352C147.922 131.186 148.057 130.983 148.147 130.741L151.336 130.834C151.203 131.549 150.912 132.171 150.462 132.702C150.017 133.227 149.432 133.637 148.708 133.93C147.983 134.219 147.145 134.363 146.194 134.363ZM156.218 127.936V134.157H152.745V123.248H156.048V125.251H156.168C156.41 124.584 156.822 124.06 157.404 123.682C157.986 123.298 158.68 123.106 159.485 123.106C160.252 123.106 160.917 123.279 161.481 123.625C162.049 123.966 162.489 124.444 162.802 125.059C163.119 125.67 163.275 126.385 163.271 127.204V134.157H159.798V127.886C159.802 127.28 159.648 126.807 159.336 126.466C159.028 126.125 158.6 125.954 158.05 125.954C157.686 125.954 157.364 126.035 157.084 126.196C156.81 126.352 156.597 126.577 156.445 126.871C156.298 127.164 156.223 127.519 156.218 127.936ZM171.178 123.248V125.805H164.296V123.248H171.178ZM165.738 120.635H169.211V130.727C169.211 130.94 169.244 131.113 169.311 131.246C169.382 131.373 169.483 131.466 169.616 131.523C169.749 131.575 169.907 131.601 170.092 131.601C170.224 131.601 170.364 131.589 170.511 131.565C170.662 131.537 170.776 131.513 170.852 131.494L171.377 134.001C171.212 134.049 170.977 134.108 170.674 134.179C170.376 134.25 170.018 134.295 169.602 134.314C168.787 134.352 168.089 134.257 167.507 134.03C166.929 133.798 166.486 133.438 166.178 132.95C165.875 132.462 165.729 131.849 165.738 131.111V120.635Z" fill="black"/>
<path d="M51.354 153.157V144.43H56.4165V145.146H52.1509V148.432H56.148V149.148H52.1509V152.442H56.5017V153.157H51.354ZM58.0813 153.157V146.612H58.8186V147.618H58.8867C59.0174 147.28 59.2348 147.014 59.5387 146.821C59.8455 146.625 60.2134 146.527 60.6424 146.527C61.0941 146.527 61.4649 146.633 61.7546 146.846C62.0473 147.057 62.266 147.346 62.4109 147.716H62.4663C62.614 147.352 62.8541 147.064 63.1865 146.851C63.5217 146.635 63.9279 146.527 64.4052 146.527C65.0132 146.527 65.4933 146.719 65.8455 147.102C66.1978 147.483 66.374 148.04 66.374 148.773V153.157H65.6154V148.773C65.6154 148.255 65.4833 147.868 65.2191 147.609C64.9549 147.351 64.6069 147.221 64.1751 147.221C63.6751 147.221 63.2902 147.375 63.0203 147.682C62.7504 147.988 62.6154 148.378 62.6154 148.849V153.157H61.8399V148.704C61.8399 148.261 61.7163 147.903 61.4691 147.63C61.222 147.358 60.874 147.221 60.4251 147.221C60.124 147.221 59.8527 147.295 59.6112 147.443C59.3725 147.591 59.1836 147.797 59.0444 148.061C58.908 148.322 58.8399 148.623 58.8399 148.964V153.157H58.0813ZM68.2998 153.157V144.43H69.0626V147.861H69.1308C69.216 147.665 69.3381 147.463 69.4972 147.255C69.6592 147.048 69.8708 146.875 70.1322 146.736C70.3964 146.594 70.7288 146.523 71.1293 146.523C71.6663 146.523 72.1379 146.665 72.5441 146.949C72.9504 147.23 73.2671 147.625 73.4944 148.133C73.7217 148.639 73.8353 149.228 73.8353 149.902C73.8353 150.578 73.7217 151.17 73.4944 151.679C73.27 152.187 72.9546 152.584 72.5484 152.868C72.145 153.152 71.6762 153.294 71.1421 153.294C70.7444 153.294 70.412 153.223 70.145 153.081C69.8808 152.939 69.6677 152.764 69.5058 152.557C69.3438 152.346 69.2188 152.142 69.1308 151.943H69.037V153.157H68.2998ZM69.0498 149.889C69.0498 150.417 69.1279 150.886 69.2842 151.295C69.4433 151.702 69.6705 152.021 69.966 152.254C70.2643 152.484 70.6251 152.599 71.0484 152.599C71.483 152.599 71.8509 152.48 72.1521 152.241C72.4532 152 72.6819 151.675 72.8381 151.265C72.9944 150.856 73.0725 150.398 73.0725 149.889C73.0725 149.386 72.9944 148.933 72.8381 148.53C72.6847 148.126 72.4575 147.807 72.1563 147.571C71.8552 147.332 71.4859 147.213 71.0484 147.213C70.6222 147.213 70.26 147.328 69.9617 147.558C69.6663 147.785 69.4404 148.101 69.2842 148.504C69.1279 148.905 69.0498 149.366 69.0498 149.889ZM75.2615 153.157V146.612H75.9987V147.618H76.0541C76.1848 147.288 76.4121 147.023 76.7359 146.821C77.0626 146.616 77.432 146.514 77.8439 146.514C77.9064 146.514 77.976 146.515 78.0527 146.518C78.1294 146.521 78.1933 146.524 78.2445 146.527V147.298C78.2104 147.292 78.1507 147.284 78.0655 147.273C77.9802 147.261 77.8879 147.255 77.7885 147.255C77.4476 147.255 77.1436 147.328 76.8766 147.473C76.6124 147.615 76.4035 147.812 76.2501 148.065C76.0967 148.318 76.02 148.606 76.02 148.93V153.157H75.2615ZM81.127 153.307C80.7321 153.307 80.3713 153.23 80.0446 153.077C79.7179 152.92 79.4579 152.696 79.2648 152.403C79.0716 152.108 78.975 151.75 78.975 151.329C78.975 151.005 79.0361 150.733 79.1582 150.511C79.2804 150.29 79.4537 150.108 79.6781 149.966C79.9025 149.824 80.1682 149.711 80.475 149.629C80.7818 149.547 81.1199 149.483 81.4892 149.437C81.8557 149.392 82.1653 149.352 82.4182 149.318C82.6738 149.284 82.8684 149.23 83.002 149.156C83.1355 149.082 83.2023 148.963 83.2023 148.798V148.645C83.2023 148.199 83.0687 147.848 82.8017 147.592C82.5375 147.334 82.1568 147.204 81.6596 147.204C81.188 147.204 80.8031 147.308 80.5048 147.515C80.2094 147.723 80.002 147.967 79.8827 148.248L79.1625 147.988C79.3102 147.63 79.5148 147.345 79.7761 147.132C80.0375 146.916 80.3301 146.761 80.654 146.667C80.9778 146.571 81.3059 146.523 81.6383 146.523C81.8883 146.523 82.1483 146.555 82.4182 146.621C82.6909 146.686 82.9437 146.8 83.1767 146.961C83.4096 147.121 83.5986 147.344 83.7434 147.63C83.8883 147.915 83.9608 148.275 83.9608 148.713V153.157H83.2023V152.122H83.1554C83.0645 152.315 82.9295 152.503 82.7505 152.684C82.5716 152.866 82.3471 153.015 82.0773 153.132C81.8074 153.248 81.4906 153.307 81.127 153.307ZM81.2292 152.612C81.6327 152.612 81.9821 152.523 82.2775 152.344C82.573 152.165 82.8003 151.927 82.9594 151.632C83.1213 151.334 83.2023 151.005 83.2023 150.648V149.702C83.1454 149.755 83.0503 149.804 82.9167 149.846C82.7861 149.889 82.6341 149.927 82.4608 149.961C82.2903 149.993 82.1199 150.02 81.9494 150.042C81.779 150.065 81.6255 150.085 81.4892 150.102C81.1199 150.148 80.8045 150.219 80.5432 150.315C80.2818 150.412 80.0815 150.545 79.9423 150.716C79.8031 150.883 79.7335 151.099 79.7335 151.363C79.7335 151.761 79.8755 152.069 80.1596 152.288C80.4437 152.504 80.8003 152.612 81.2292 152.612ZM88.2953 153.294C87.7101 153.294 87.2002 153.148 86.7655 152.855C86.3337 152.562 85.9985 152.162 85.7598 151.653C85.5212 151.145 85.4019 150.565 85.4019 149.915C85.4019 149.258 85.5226 148.675 85.7641 148.163C86.0084 147.652 86.3465 147.251 86.7783 146.961C87.2101 146.669 87.7115 146.523 88.2826 146.523C88.7201 146.523 89.1164 146.608 89.4715 146.778C89.8266 146.946 90.1192 147.183 90.3493 147.49C90.5823 147.794 90.7286 148.149 90.7882 148.555H90.0212C89.9417 148.186 89.7499 147.871 89.4459 147.609C89.1448 147.345 88.7613 147.213 88.2953 147.213C87.8777 147.213 87.5084 147.327 87.1874 147.554C86.8664 147.778 86.615 148.092 86.4331 148.496C86.2542 148.896 86.1647 149.361 86.1647 149.889C86.1647 150.42 86.2527 150.89 86.4289 151.3C86.605 151.706 86.8522 152.024 87.1703 152.254C87.4914 152.484 87.8664 152.599 88.2953 152.599C88.5851 152.599 88.8493 152.545 89.088 152.437C89.3294 152.327 89.5311 152.17 89.6931 151.969C89.8578 151.767 89.9686 151.527 90.0255 151.248H90.7925C90.7357 151.643 90.5951 151.996 90.3706 152.305C90.149 152.612 89.8607 152.853 89.5056 153.03C89.1533 153.206 88.7499 153.294 88.2953 153.294ZM92.1867 153.157V146.612H92.9495V153.157H92.1867ZM92.5745 145.487C92.4183 145.487 92.2848 145.434 92.174 145.329C92.0632 145.221 92.0078 145.092 92.0078 144.942C92.0078 144.791 92.0632 144.663 92.174 144.558C92.2848 144.45 92.4183 144.396 92.5745 144.396C92.7308 144.396 92.8643 144.45 92.9751 144.558C93.0859 144.663 93.1413 144.791 93.1413 144.942C93.1413 145.092 93.0859 145.221 92.9751 145.329C92.8643 145.434 92.7308 145.487 92.5745 145.487ZM95.4741 149.067V153.157H94.7156V146.612H95.4528V147.639H95.521C95.6744 147.304 95.913 147.035 96.2369 146.834C96.5636 146.629 96.967 146.527 97.4471 146.527C97.8874 146.527 98.2738 146.619 98.6062 146.804C98.9414 146.986 99.2014 147.254 99.386 147.609C99.5735 147.964 99.6673 148.4 99.6673 148.917V153.157H98.9087V148.964C98.9087 148.427 98.7582 148.003 98.457 147.69C98.1587 147.378 97.7582 147.221 97.2553 147.221C96.9116 147.221 96.6062 147.295 96.3391 147.443C96.0721 147.591 95.8604 147.804 95.7042 148.082C95.5508 148.358 95.4741 148.686 95.4741 149.067ZM103.922 155.748C103.476 155.748 103.085 155.69 102.75 155.574C102.415 155.46 102.132 155.304 101.902 155.105C101.672 154.906 101.493 154.683 101.365 154.436L101.987 154.027C102.081 154.192 102.206 154.353 102.362 154.513C102.521 154.672 102.727 154.804 102.98 154.909C103.236 155.014 103.55 155.067 103.922 155.067C104.501 155.067 104.969 154.922 105.324 154.632C105.682 154.342 105.861 153.892 105.861 153.281V151.807H105.793C105.705 152.005 105.578 152.204 105.413 152.403C105.249 152.599 105.033 152.763 104.766 152.893C104.501 153.024 104.173 153.089 103.781 153.089C103.259 153.089 102.794 152.96 102.388 152.702C101.984 152.443 101.666 152.074 101.433 151.594C101.203 151.111 101.088 150.535 101.088 149.868C101.088 149.206 101.2 148.623 101.425 148.121C101.652 147.618 101.969 147.226 102.375 146.944C102.781 146.663 103.254 146.523 103.794 146.523C104.195 146.523 104.527 146.594 104.791 146.736C105.055 146.875 105.267 147.048 105.426 147.255C105.588 147.463 105.715 147.665 105.805 147.861H105.882V146.612H106.624V153.328C106.624 153.882 106.506 154.338 106.27 154.696C106.034 155.054 105.713 155.318 105.307 155.488C104.901 155.662 104.439 155.748 103.922 155.748ZM103.871 152.395C104.291 152.395 104.651 152.294 104.949 152.092C105.247 151.888 105.476 151.595 105.635 151.214C105.794 150.834 105.874 150.38 105.874 149.855C105.874 149.344 105.796 148.89 105.639 148.496C105.483 148.098 105.256 147.785 104.957 147.558C104.662 147.328 104.3 147.213 103.871 147.213C103.433 147.213 103.064 147.331 102.763 147.567C102.462 147.802 102.234 148.121 102.081 148.521C101.928 148.919 101.851 149.363 101.851 149.855C101.851 150.355 101.929 150.797 102.085 151.18C102.242 151.561 102.47 151.859 102.771 152.075C103.073 152.288 103.439 152.395 103.871 152.395ZM111.535 153.157V146.612H112.298V153.157H111.535ZM111.923 145.487C111.767 145.487 111.633 145.434 111.523 145.329C111.412 145.221 111.356 145.092 111.356 144.942C111.356 144.791 111.412 144.663 111.523 144.558C111.633 144.45 111.767 144.396 111.923 144.396C112.079 144.396 112.213 144.45 112.324 144.558C112.434 144.663 112.49 144.791 112.49 144.942C112.49 145.092 112.434 145.221 112.324 145.329C112.213 145.434 112.079 145.487 111.923 145.487ZM114.823 149.067V153.157H114.064V146.612H114.801V147.639H114.87C115.023 147.304 115.262 147.035 115.585 146.834C115.912 146.629 116.316 146.527 116.796 146.527C117.236 146.527 117.622 146.619 117.955 146.804C118.29 146.986 118.55 147.254 118.735 147.609C118.922 147.964 119.016 148.4 119.016 148.917V153.157H118.257V148.964C118.257 148.427 118.107 148.003 117.806 147.69C117.507 147.378 117.107 147.221 116.604 147.221C116.26 147.221 115.955 147.295 115.688 147.443C115.421 147.591 115.209 147.804 115.053 148.082C114.899 148.358 114.823 148.686 114.823 149.067ZM121.532 149.067V153.157H120.773V146.612H121.511V147.639H121.579C121.732 147.304 121.971 147.035 122.295 146.834C122.621 146.629 123.025 146.527 123.505 146.527C123.945 146.527 124.332 146.619 124.664 146.804C124.999 146.986 125.259 147.254 125.444 147.609C125.631 147.964 125.725 148.4 125.725 148.917V153.157H124.967V148.964C124.967 148.427 124.816 148.003 124.515 147.69C124.217 147.378 123.816 147.221 123.313 147.221C122.969 147.221 122.664 147.295 122.397 147.443C122.13 147.591 121.918 147.804 121.762 148.082C121.609 148.358 121.532 148.686 121.532 149.067ZM130.027 153.294C129.461 153.294 128.961 153.15 128.527 152.863C128.095 152.577 127.757 152.18 127.512 151.675C127.268 151.166 127.146 150.579 127.146 149.915C127.146 149.244 127.268 148.655 127.512 148.146C127.757 147.635 128.095 147.237 128.527 146.953C128.961 146.666 129.461 146.523 130.027 146.523C130.592 146.523 131.091 146.666 131.522 146.953C131.954 147.24 132.292 147.638 132.537 148.146C132.784 148.655 132.907 149.244 132.907 149.915C132.907 150.579 132.785 151.166 132.541 151.675C132.297 152.18 131.957 152.577 131.522 152.863C131.091 153.15 130.592 153.294 130.027 153.294ZM130.027 152.599C130.481 152.599 130.866 152.477 131.181 152.233C131.497 151.988 131.735 151.663 131.897 151.257C132.062 150.851 132.145 150.403 132.145 149.915C132.145 149.426 132.062 148.977 131.897 148.568C131.735 148.159 131.497 147.831 131.181 147.584C130.866 147.336 130.481 147.213 130.027 147.213C129.575 147.213 129.19 147.336 128.872 147.584C128.556 147.831 128.316 148.159 128.152 148.568C127.99 148.977 127.909 149.426 127.909 149.915C127.909 150.403 127.99 150.851 128.152 151.257C128.316 151.663 128.556 151.988 128.872 152.233C129.187 152.477 129.572 152.599 130.027 152.599ZM139.165 146.612L136.774 153.157H135.965L133.574 146.612H134.396L136.34 152.156H136.399L138.342 146.612H139.165ZM142.038 153.307C141.643 153.307 141.282 153.23 140.955 153.077C140.629 152.92 140.369 152.696 140.176 152.403C139.982 152.108 139.886 151.75 139.886 151.329C139.886 151.005 139.947 150.733 140.069 150.511C140.191 150.29 140.364 150.108 140.589 149.966C140.813 149.824 141.079 149.711 141.386 149.629C141.693 149.547 142.031 149.483 142.4 149.437C142.766 149.392 143.076 149.352 143.329 149.318C143.585 149.284 143.779 149.23 143.913 149.156C144.046 149.082 144.113 148.963 144.113 148.798V148.645C144.113 148.199 143.98 147.848 143.712 147.592C143.448 147.334 143.068 147.204 142.57 147.204C142.099 147.204 141.714 147.308 141.416 147.515C141.12 147.723 140.913 147.967 140.793 148.248L140.073 147.988C140.221 147.63 140.426 147.345 140.687 147.132C140.948 146.916 141.241 146.761 141.565 146.667C141.889 146.571 142.217 146.523 142.549 146.523C142.799 146.523 143.059 146.555 143.329 146.621C143.602 146.686 143.855 146.8 144.087 146.961C144.32 147.121 144.509 147.344 144.654 147.63C144.799 147.915 144.872 148.275 144.872 148.713V153.157H144.113V152.122H144.066C143.975 152.315 143.84 152.503 143.661 152.684C143.482 152.866 143.258 153.015 142.988 153.132C142.718 153.248 142.401 153.307 142.038 153.307ZM142.14 152.612C142.543 152.612 142.893 152.523 143.188 152.344C143.484 152.165 143.711 151.927 143.87 151.632C144.032 151.334 144.113 151.005 144.113 150.648V149.702C144.056 149.755 143.961 149.804 143.828 149.846C143.697 149.889 143.545 149.927 143.372 149.961C143.201 149.993 143.031 150.02 142.86 150.042C142.69 150.065 142.536 150.085 142.4 150.102C142.031 150.148 141.715 150.219 141.454 150.315C141.193 150.412 140.992 150.545 140.853 150.716C140.714 150.883 140.644 151.099 140.644 151.363C140.644 151.761 140.786 152.069 141.07 152.288C141.355 152.504 141.711 152.612 142.14 152.612ZM149.227 146.612V147.273H146.104V146.612H149.227ZM147.08 145.044H147.842V151.449C147.842 151.721 147.889 151.936 147.983 152.092C148.077 152.246 148.199 152.355 148.35 152.42C148.5 152.483 148.661 152.514 148.831 152.514C148.931 152.514 149.016 152.508 149.087 152.497C149.158 152.483 149.22 152.469 149.274 152.454L149.436 153.14C149.362 153.169 149.271 153.194 149.164 153.217C149.056 153.243 148.922 153.255 148.763 153.255C148.485 153.255 148.216 153.194 147.958 153.072C147.702 152.95 147.492 152.768 147.327 152.527C147.162 152.285 147.08 151.986 147.08 151.628V145.044ZM150.719 153.157V146.612H151.481V153.157H150.719ZM151.106 145.487C150.95 145.487 150.817 145.434 150.706 145.329C150.595 145.221 150.54 145.092 150.54 144.942C150.54 144.791 150.595 144.663 150.706 144.558C150.817 144.45 150.95 144.396 151.106 144.396C151.263 144.396 151.396 144.45 151.507 144.558C151.618 144.663 151.673 144.791 151.673 144.942C151.673 145.092 151.618 145.221 151.507 145.329C151.396 145.434 151.263 145.487 151.106 145.487ZM155.791 153.294C155.226 153.294 154.726 153.15 154.291 152.863C153.86 152.577 153.522 152.18 153.277 151.675C153.033 151.166 152.911 150.579 152.911 149.915C152.911 149.244 153.033 148.655 153.277 148.146C153.522 147.635 153.86 147.237 154.291 146.953C154.726 146.666 155.226 146.523 155.791 146.523C156.357 146.523 156.855 146.666 157.287 146.953C157.719 147.24 158.057 147.638 158.301 148.146C158.549 148.655 158.672 149.244 158.672 149.915C158.672 150.579 158.55 151.166 158.306 151.675C158.061 152.18 157.722 152.577 157.287 152.863C156.855 153.15 156.357 153.294 155.791 153.294ZM155.791 152.599C156.246 152.599 156.631 152.477 156.946 152.233C157.262 151.988 157.5 151.663 157.662 151.257C157.827 150.851 157.909 150.403 157.909 149.915C157.909 149.426 157.827 148.977 157.662 148.568C157.5 148.159 157.262 147.831 156.946 147.584C156.631 147.336 156.246 147.213 155.791 147.213C155.34 147.213 154.955 147.336 154.637 147.584C154.321 147.831 154.081 148.159 153.916 148.568C153.755 148.977 153.674 149.426 153.674 149.915C153.674 150.403 153.755 150.851 153.916 151.257C154.081 151.663 154.321 151.988 154.637 152.233C154.952 152.477 155.337 152.599 155.791 152.599ZM160.856 149.067V153.157H160.097V146.612H160.834V147.639H160.903C161.056 147.304 161.295 147.035 161.619 146.834C161.945 146.629 162.349 146.527 162.829 146.527C163.269 146.527 163.656 146.619 163.988 146.804C164.323 146.986 164.583 147.254 164.768 147.609C164.955 147.964 165.049 148.4 165.049 148.917V153.157H164.29V148.964C164.29 148.427 164.14 148.003 163.839 147.69C163.54 147.378 163.14 147.221 162.637 147.221C162.293 147.221 161.988 147.295 161.721 147.443C161.454 147.591 161.242 147.804 161.086 148.082C160.933 148.358 160.856 148.686 160.856 149.067ZM55.8437 161.612V162.273H52.6264V161.612H55.8437ZM53.6321 168.157V160.653C53.6321 160.301 53.7131 160.004 53.875 159.763C54.0398 159.521 54.2543 159.338 54.5185 159.213C54.7827 159.088 55.0625 159.025 55.3579 159.025C55.5568 159.025 55.7216 159.042 55.8523 159.077C55.9858 159.108 56.0909 159.139 56.1676 159.17L55.946 159.835C55.8892 159.818 55.8196 159.798 55.7372 159.775C55.6548 159.753 55.5511 159.741 55.4261 159.741C55.0966 159.741 54.8423 159.834 54.6633 160.018C54.4844 160.203 54.3949 160.467 54.3949 160.811L54.3906 168.157H53.6321ZM59.3921 168.294C58.8268 168.294 58.3268 168.15 57.8921 167.863C57.4603 167.577 57.1222 167.18 56.8779 166.675C56.6336 166.166 56.5114 165.579 56.5114 164.915C56.5114 164.244 56.6336 163.655 56.8779 163.146C57.1222 162.635 57.4603 162.237 57.8921 161.953C58.3268 161.666 58.8268 161.523 59.3921 161.523C59.9574 161.523 60.456 161.666 60.8878 161.953C61.3197 162.24 61.6577 162.638 61.902 163.146C62.1492 163.655 62.2728 164.244 62.2728 164.915C62.2728 165.579 62.1506 166.166 61.9063 166.675C61.662 167.18 61.3225 167.577 60.8878 167.863C60.456 168.15 59.9574 168.294 59.3921 168.294ZM59.3921 167.599C59.8466 167.599 60.2316 167.477 60.5469 167.233C60.8623 166.988 61.1009 166.663 61.2628 166.257C61.4276 165.851 61.51 165.403 61.51 164.915C61.51 164.426 61.4276 163.977 61.2628 163.568C61.1009 163.159 60.8623 162.831 60.5469 162.584C60.2316 162.336 59.8466 162.213 59.3921 162.213C58.9404 162.213 58.5554 162.336 58.2373 162.584C57.9219 162.831 57.6819 163.159 57.5171 163.568C57.3552 163.977 57.2742 164.426 57.2742 164.915C57.2742 165.403 57.3552 165.851 57.5171 166.257C57.6819 166.663 57.9219 166.988 58.2373 167.233C58.5526 167.477 58.9375 167.599 59.3921 167.599ZM63.6979 168.157V161.612H64.4351V162.618H64.4905C64.6212 162.288 64.8485 162.023 65.1723 161.821C65.499 161.616 65.8684 161.514 66.2803 161.514C66.3428 161.514 66.4124 161.515 66.4891 161.518C66.5658 161.521 66.6297 161.524 66.6809 161.527V162.298C66.6468 162.292 66.5871 162.284 66.5019 162.273C66.4167 162.261 66.3243 162.255 66.2249 162.255C65.884 162.255 65.58 162.328 65.313 162.473C65.0488 162.615 64.8399 162.812 64.6865 163.065C64.5331 163.318 64.4564 163.606 64.4564 163.93V168.157H63.6979ZM73.4143 168.294C72.8489 168.294 72.3489 168.15 71.9143 167.863C71.4825 167.577 71.1444 167.18 70.9001 166.675C70.6558 166.166 70.5336 165.579 70.5336 164.915C70.5336 164.244 70.6558 163.655 70.9001 163.146C71.1444 162.635 71.4825 162.237 71.9143 161.953C72.3489 161.666 72.8489 161.523 73.4143 161.523C73.9796 161.523 74.4782 161.666 74.91 161.953C75.3418 162.24 75.6799 162.638 75.9242 163.146C76.1714 163.655 76.295 164.244 76.295 164.915C76.295 165.579 76.1728 166.166 75.9285 166.675C75.6842 167.18 75.3447 167.577 74.91 167.863C74.4782 168.15 73.9796 168.294 73.4143 168.294ZM73.4143 167.599C73.8688 167.599 74.2538 167.477 74.5691 167.233C74.8845 166.988 75.1231 166.663 75.285 166.257C75.4498 165.851 75.5322 165.403 75.5322 164.915C75.5322 164.426 75.4498 163.977 75.285 163.568C75.1231 163.159 74.8845 162.831 74.5691 162.584C74.2538 162.336 73.8688 162.213 73.4143 162.213C72.9626 162.213 72.5776 162.336 72.2595 162.584C71.9441 162.831 71.7041 163.159 71.5393 163.568C71.3774 163.977 71.2964 164.426 71.2964 164.915C71.2964 165.403 71.3774 165.851 71.5393 166.257C71.7041 166.663 71.9441 166.988 72.2595 167.233C72.5748 167.477 72.9597 167.599 73.4143 167.599ZM78.4786 164.067V168.157H77.7201V161.612H78.4573V162.639H78.5255C78.6789 162.304 78.9175 162.035 79.2414 161.834C79.5681 161.629 79.9715 161.527 80.4516 161.527C80.892 161.527 81.2783 161.619 81.6107 161.804C81.9459 161.986 82.2059 162.254 82.3905 162.609C82.578 162.964 82.6718 163.4 82.6718 163.917V168.157H81.9133V163.964C81.9133 163.427 81.7627 163.003 81.4616 162.69C81.1633 162.378 80.7627 162.221 80.2599 162.221C79.9161 162.221 79.6107 162.295 79.3437 162.443C79.0766 162.591 78.865 162.804 78.7087 163.082C78.5553 163.358 78.4786 163.686 78.4786 164.067ZM86.9265 170.748C86.4804 170.748 86.0898 170.69 85.7546 170.574C85.4194 170.46 85.1367 170.304 84.9066 170.105C84.6765 169.906 84.4975 169.683 84.3696 169.436L84.9918 169.027C85.0856 169.192 85.2106 169.353 85.3668 169.513C85.5259 169.672 85.7319 169.804 85.9847 169.909C86.2404 170.014 86.5543 170.067 86.9265 170.067C87.506 170.067 87.9733 169.922 88.3285 169.632C88.6864 169.342 88.8654 168.892 88.8654 168.281V166.807H88.7972C88.7091 167.005 88.5827 167.204 88.4179 167.403C88.2532 167.599 88.0373 167.763 87.7702 167.893C87.506 168.024 87.1779 168.089 86.7858 168.089C86.2631 168.089 85.7986 167.96 85.3924 167.702C84.989 167.443 84.6708 167.074 84.4378 166.594C84.2077 166.111 84.0927 165.535 84.0927 164.868C84.0927 164.206 84.2049 163.623 84.4293 163.121C84.6566 162.618 84.9733 162.226 85.3796 161.944C85.7858 161.663 86.2589 161.523 86.7986 161.523C87.1992 161.523 87.5316 161.594 87.7958 161.736C88.06 161.875 88.2716 162.048 88.4307 162.255C88.5927 162.463 88.7191 162.665 88.81 162.861H88.8867V161.612H89.6282V168.328C89.6282 168.882 89.5103 169.338 89.2745 169.696C89.0387 170.054 88.7177 170.318 88.3114 170.488C87.9052 170.662 87.4435 170.748 86.9265 170.748ZM86.8753 167.395C87.2958 167.395 87.6552 167.294 87.9535 167.092C88.2518 166.888 88.4804 166.595 88.6395 166.214C88.7986 165.834 88.8782 165.38 88.8782 164.855C88.8782 164.344 88.8 163.89 88.6438 163.496C88.4875 163.098 88.2603 162.785 87.962 162.558C87.6665 162.328 87.3043 162.213 86.8753 162.213C86.4378 162.213 86.0685 162.331 85.7674 162.567C85.4662 162.802 85.239 163.121 85.0856 163.521C84.9321 163.919 84.8554 164.363 84.8554 164.855C84.8554 165.355 84.9336 165.797 85.0898 166.18C85.2461 166.561 85.4748 166.859 85.7759 167.075C86.077 167.288 86.4435 167.395 86.8753 167.395ZM93.9404 168.294C93.375 168.294 92.875 168.15 92.4404 167.863C92.0086 167.577 91.6705 167.18 91.4262 166.675C91.1819 166.166 91.0597 165.579 91.0597 164.915C91.0597 164.244 91.1819 163.655 91.4262 163.146C91.6705 162.635 92.0086 162.237 92.4404 161.953C92.875 161.666 93.375 161.523 93.9404 161.523C94.5057 161.523 95.0043 161.666 95.4361 161.953C95.8679 162.24 96.206 162.638 96.4503 163.146C96.6975 163.655 96.8211 164.244 96.8211 164.915C96.8211 165.579 96.6989 166.166 96.4546 166.675C96.2103 167.18 95.8708 167.577 95.4361 167.863C95.0043 168.15 94.5057 168.294 93.9404 168.294ZM93.9404 167.599C94.3949 167.599 94.7799 167.477 95.0952 167.233C95.4105 166.988 95.6492 166.663 95.8111 166.257C95.9759 165.851 96.0583 165.403 96.0583 164.915C96.0583 164.426 95.9759 163.977 95.8111 163.568C95.6492 163.159 95.4105 162.831 95.0952 162.584C94.7799 162.336 94.3949 162.213 93.9404 162.213C93.4887 162.213 93.1037 162.336 92.7855 162.584C92.4702 162.831 92.2301 163.159 92.0654 163.568C91.9034 163.977 91.8225 164.426 91.8225 164.915C91.8225 165.403 91.9034 165.851 92.0654 166.257C92.2301 166.663 92.4702 166.988 92.7855 167.233C93.1009 167.477 93.4858 167.599 93.9404 167.599ZM98.2547 168.157V161.612H99.0175V168.157H98.2547ZM98.6425 160.487C98.4862 160.487 98.3527 160.434 98.2419 160.329C98.1311 160.221 98.0757 160.092 98.0757 159.942C98.0757 159.791 98.1311 159.663 98.2419 159.558C98.3527 159.45 98.4862 159.396 98.6425 159.396C98.7987 159.396 98.9323 159.45 99.0431 159.558C99.1539 159.663 99.2093 159.791 99.2093 159.942C99.2093 160.092 99.1539 160.221 99.0431 160.329C98.9323 160.434 98.7987 160.487 98.6425 160.487ZM101.542 164.067V168.157H100.784V161.612H101.521V162.639H101.589C101.742 162.304 101.981 162.035 102.305 161.834C102.632 161.629 103.035 161.527 103.515 161.527C103.955 161.527 104.342 161.619 104.674 161.804C105.009 161.986 105.269 162.254 105.454 162.609C105.641 162.964 105.735 163.4 105.735 163.917V168.157H104.977V163.964C104.977 163.427 104.826 163.003 104.525 162.69C104.227 162.378 103.826 162.221 103.323 162.221C102.98 162.221 102.674 162.295 102.407 162.443C102.14 162.591 101.928 162.804 101.772 163.082C101.619 163.358 101.542 163.686 101.542 164.067ZM109.99 170.748C109.544 170.748 109.153 170.69 108.818 170.574C108.483 170.46 108.2 170.304 107.97 170.105C107.74 169.906 107.561 169.683 107.433 169.436L108.055 169.027C108.149 169.192 108.274 169.353 108.43 169.513C108.589 169.672 108.795 169.804 109.048 169.909C109.304 170.014 109.618 170.067 109.99 170.067C110.569 170.067 111.037 169.922 111.392 169.632C111.75 169.342 111.929 168.892 111.929 168.281V166.807H111.861C111.773 167.005 111.646 167.204 111.481 167.403C111.317 167.599 111.101 167.763 110.834 167.893C110.569 168.024 110.241 168.089 109.849 168.089C109.327 168.089 108.862 167.96 108.456 167.702C108.052 167.443 107.734 167.074 107.501 166.594C107.271 166.111 107.156 165.535 107.156 164.868C107.156 164.206 107.268 163.623 107.493 163.121C107.72 162.618 108.037 162.226 108.443 161.944C108.849 161.663 109.322 161.523 109.862 161.523C110.263 161.523 110.595 161.594 110.859 161.736C111.123 161.875 111.335 162.048 111.494 162.255C111.656 162.463 111.783 162.665 111.873 162.861H111.95V161.612H112.692V168.328C112.692 168.882 112.574 169.338 112.338 169.696C112.102 170.054 111.781 170.318 111.375 170.488C110.969 170.662 110.507 170.748 109.99 170.748ZM109.939 167.395C110.359 167.395 110.719 167.294 111.017 167.092C111.315 166.888 111.544 166.595 111.703 166.214C111.862 165.834 111.942 165.38 111.942 164.855C111.942 164.344 111.863 163.89 111.707 163.496C111.551 163.098 111.324 162.785 111.025 162.558C110.73 162.328 110.368 162.213 109.939 162.213C109.501 162.213 109.132 162.331 108.831 162.567C108.53 162.802 108.302 163.121 108.149 163.521C107.996 163.919 107.919 164.363 107.919 164.855C107.919 165.355 107.997 165.797 108.153 166.18C108.31 166.561 108.538 166.859 108.839 167.075C109.14 167.288 109.507 167.395 109.939 167.395ZM121.993 163.048L121.298 163.244C121.23 163.048 121.133 162.871 121.008 162.711C120.883 162.552 120.72 162.426 120.518 162.332C120.319 162.238 120.072 162.192 119.777 162.192C119.333 162.192 118.97 162.297 118.686 162.507C118.402 162.717 118.26 162.988 118.26 163.321C118.26 163.602 118.356 163.831 118.549 164.007C118.745 164.18 119.046 164.318 119.453 164.42L120.441 164.663C120.99 164.797 121.4 165.008 121.673 165.298C121.948 165.588 122.086 165.952 122.086 166.389C122.086 166.758 121.984 167.086 121.779 167.373C121.575 167.66 121.289 167.886 120.923 168.051C120.559 168.213 120.137 168.294 119.657 168.294C119.018 168.294 118.491 168.15 118.076 167.863C117.662 167.574 117.396 167.156 117.279 166.611L118.008 166.432C118.102 166.821 118.285 167.115 118.558 167.314C118.833 167.513 119.196 167.612 119.644 167.612C120.147 167.612 120.549 167.5 120.85 167.275C121.152 167.048 121.302 166.764 121.302 166.423C121.302 166.159 121.214 165.937 121.038 165.758C120.862 165.577 120.595 165.443 120.237 165.358L119.167 165.102C118.599 164.966 118.179 164.75 117.906 164.454C117.633 164.159 117.497 163.792 117.497 163.355C117.497 162.994 117.595 162.677 117.791 162.405C117.987 162.129 118.257 161.913 118.6 161.757C118.944 161.601 119.336 161.523 119.777 161.523C120.376 161.523 120.855 161.659 121.213 161.932C121.573 162.202 121.833 162.574 121.993 163.048ZM127.666 165.656V161.612H128.425V168.157H127.666V167.071H127.607C127.453 167.406 127.21 167.686 126.878 167.91C126.545 168.132 126.139 168.243 125.659 168.243C125.241 168.243 124.871 168.152 124.547 167.97C124.223 167.785 123.969 167.515 123.784 167.16C123.599 166.805 123.507 166.369 123.507 165.852V161.612H124.266V165.805C124.266 166.317 124.416 166.728 124.717 167.041C125.018 167.351 125.405 167.505 125.876 167.505C126.172 167.505 126.456 167.434 126.729 167.292C127.001 167.15 127.226 166.943 127.402 166.67C127.578 166.395 127.666 166.057 127.666 165.656ZM132.75 168.294C132.164 168.294 131.655 168.148 131.22 167.855C130.788 167.562 130.453 167.162 130.214 166.653C129.976 166.145 129.856 165.565 129.856 164.915C129.856 164.258 129.977 163.675 130.218 163.163C130.463 162.652 130.801 162.251 131.233 161.961C131.664 161.669 132.166 161.523 132.737 161.523C133.174 161.523 133.571 161.608 133.926 161.778C134.281 161.946 134.574 162.183 134.804 162.49C135.037 162.794 135.183 163.149 135.243 163.555H134.476C134.396 163.186 134.204 162.871 133.9 162.609C133.599 162.345 133.216 162.213 132.75 162.213C132.332 162.213 131.963 162.327 131.642 162.554C131.321 162.778 131.069 163.092 130.888 163.496C130.709 163.896 130.619 164.361 130.619 164.889C130.619 165.42 130.707 165.89 130.883 166.3C131.059 166.706 131.307 167.024 131.625 167.254C131.946 167.484 132.321 167.599 132.75 167.599C133.039 167.599 133.304 167.545 133.542 167.437C133.784 167.327 133.986 167.17 134.147 166.969C134.312 166.767 134.423 166.527 134.48 166.248H135.247C135.19 166.643 135.049 166.996 134.825 167.305C134.603 167.612 134.315 167.853 133.96 168.03C133.608 168.206 133.204 168.294 132.75 168.294ZM139.189 168.294C138.604 168.294 138.094 168.148 137.66 167.855C137.228 167.562 136.893 167.162 136.654 166.653C136.415 166.145 136.296 165.565 136.296 164.915C136.296 164.258 136.417 163.675 136.658 163.163C136.902 162.652 137.241 162.251 137.672 161.961C138.104 161.669 138.606 161.523 139.177 161.523C139.614 161.523 140.01 161.608 140.366 161.778C140.721 161.946 141.013 162.183 141.243 162.49C141.476 162.794 141.623 163.149 141.682 163.555H140.915C140.836 163.186 140.644 162.871 140.34 162.609C140.039 162.345 139.655 162.213 139.189 162.213C138.772 162.213 138.402 162.327 138.081 162.554C137.76 162.778 137.509 163.092 137.327 163.496C137.148 163.896 137.059 164.361 137.059 164.889C137.059 165.42 137.147 165.89 137.323 166.3C137.499 166.706 137.746 167.024 138.064 167.254C138.385 167.484 138.76 167.599 139.189 167.599C139.479 167.599 139.743 167.545 139.982 167.437C140.224 167.327 140.425 167.17 140.587 166.969C140.752 166.767 140.863 166.527 140.92 166.248H141.687C141.63 166.643 141.489 166.996 141.265 167.305C141.043 167.612 140.755 167.853 140.4 168.03C140.047 168.206 139.644 168.294 139.189 168.294ZM145.719 168.294C145.108 168.294 144.579 168.152 144.133 167.868C143.687 167.581 143.342 167.184 143.098 166.679C142.856 166.17 142.736 165.585 142.736 164.923C142.736 164.264 142.856 163.679 143.098 163.167C143.342 162.653 143.679 162.251 144.108 161.961C144.54 161.669 145.038 161.523 145.604 161.523C145.959 161.523 146.301 161.588 146.631 161.719C146.96 161.846 147.256 162.044 147.517 162.311C147.781 162.575 147.99 162.909 148.143 163.312C148.297 163.713 148.373 164.187 148.373 164.736V165.111H143.26V164.442H147.598C147.598 164.021 147.513 163.643 147.342 163.308C147.175 162.97 146.94 162.703 146.639 162.507C146.341 162.311 145.996 162.213 145.604 162.213C145.189 162.213 144.824 162.324 144.508 162.545C144.193 162.767 143.946 163.059 143.767 163.423C143.591 163.787 143.501 164.184 143.498 164.616V165.017C143.498 165.537 143.588 165.991 143.767 166.38C143.949 166.767 144.206 167.067 144.538 167.28C144.871 167.493 145.264 167.599 145.719 167.599C146.028 167.599 146.3 167.551 146.533 167.454C146.768 167.358 146.966 167.228 147.125 167.067C147.287 166.902 147.409 166.721 147.491 166.525L148.211 166.76C148.112 167.035 147.949 167.29 147.721 167.523C147.497 167.755 147.216 167.943 146.878 168.085C146.542 168.224 146.156 168.294 145.719 168.294ZM154.203 163.048L153.508 163.244C153.44 163.048 153.343 162.871 153.218 162.711C153.093 162.552 152.93 162.426 152.728 162.332C152.529 162.238 152.282 162.192 151.987 162.192C151.544 162.192 151.18 162.297 150.896 162.507C150.612 162.717 150.47 162.988 150.47 163.321C150.47 163.602 150.566 163.831 150.759 164.007C150.956 164.18 151.257 164.318 151.663 164.42L152.652 164.663C153.2 164.797 153.61 165.008 153.883 165.298C154.159 165.588 154.296 165.952 154.296 166.389C154.296 166.758 154.194 167.086 153.99 167.373C153.785 167.66 153.5 167.886 153.133 168.051C152.769 168.213 152.348 168.294 151.867 168.294C151.228 168.294 150.701 168.15 150.286 167.863C149.872 167.574 149.606 167.156 149.49 166.611L150.218 166.432C150.312 166.821 150.495 167.115 150.768 167.314C151.044 167.513 151.406 167.612 151.855 167.612C152.357 167.612 152.759 167.5 153.061 167.275C153.362 167.048 153.512 166.764 153.512 166.423C153.512 166.159 153.424 165.937 153.248 165.758C153.072 165.577 152.805 165.443 152.447 165.358L151.377 165.102C150.809 164.966 150.389 164.75 150.116 164.454C149.843 164.159 149.707 163.792 149.707 163.355C149.707 162.994 149.805 162.677 150.001 162.405C150.197 162.129 150.467 161.913 150.811 161.757C151.154 161.601 151.546 161.523 151.987 161.523C152.586 161.523 153.065 161.659 153.423 161.932C153.784 162.202 154.044 162.574 154.203 163.048ZM160.115 163.048L159.42 163.244C159.352 163.048 159.256 162.871 159.131 162.711C159.006 162.552 158.842 162.426 158.641 162.332C158.442 162.238 158.195 162.192 157.899 162.192C157.456 162.192 157.092 162.297 156.808 162.507C156.524 162.717 156.382 162.988 156.382 163.321C156.382 163.602 156.479 163.831 156.672 164.007C156.868 164.18 157.169 164.318 157.575 164.42L158.564 164.663C159.112 164.797 159.523 165.008 159.795 165.298C160.071 165.588 160.209 165.952 160.209 166.389C160.209 166.758 160.106 167.086 159.902 167.373C159.697 167.66 159.412 167.886 159.045 168.051C158.682 168.213 158.26 168.294 157.78 168.294C157.141 168.294 156.614 168.15 156.199 167.863C155.784 167.574 155.518 167.156 155.402 166.611L156.131 166.432C156.224 166.821 156.408 167.115 156.68 167.314C156.956 167.513 157.318 167.612 157.767 167.612C158.27 167.612 158.672 167.5 158.973 167.275C159.274 167.048 159.425 166.764 159.425 166.423C159.425 166.159 159.337 165.937 159.16 165.758C158.984 165.577 158.717 165.443 158.359 165.358L157.29 165.102C156.722 164.966 156.301 164.75 156.028 164.454C155.756 164.159 155.619 163.792 155.619 163.355C155.619 162.994 155.717 162.677 155.913 162.405C156.109 162.129 156.379 161.913 156.723 161.757C157.067 161.601 157.459 161.523 157.899 161.523C158.499 161.523 158.977 161.659 159.335 161.932C159.696 162.202 159.956 162.574 160.115 163.048ZM162.235 168.221C162.067 168.221 161.922 168.162 161.8 168.042C161.681 167.92 161.621 167.775 161.621 167.608C161.621 167.437 161.681 167.292 161.8 167.173C161.922 167.054 162.067 166.994 162.235 166.994C162.405 166.994 162.55 167.054 162.669 167.173C162.789 167.292 162.848 167.437 162.848 167.608C162.848 167.719 162.82 167.821 162.763 167.915C162.709 168.008 162.635 168.084 162.542 168.14C162.451 168.194 162.348 168.221 162.235 168.221Z" fill="black"/>
</svg>
