<svg width="218" height="220" viewBox="0 0 218 220" fill="none" xmlns="http://www.w3.org/2000/svg">
<path d="M179.967 -0.00976562H108.086V5.59585V11.2015V208.605V214.211V219.816H179.967C200.941 219.816 217.999 202.758 217.999 181.784V38.0226C217.999 17.0485 200.941 -0.00976562 179.967 -0.00976562Z" fill="#0047FF"/>
<path d="M3.7249 39.6319C2.78616 39.6319 2.03516 38.8809 2.03516 37.9421C2.03516 37.4594 2.03518 36.9498 2.062 36.467C2.08882 35.5282 2.89346 34.8309 3.80538 34.8577C4.74412 34.8845 5.44147 35.6892 5.41465 36.6011C5.38783 37.0302 5.3878 37.4862 5.3878 37.9421C5.41462 38.8809 4.66364 39.6319 3.7249 39.6319ZM7.31897 24.7998C7.05076 24.7998 6.80933 24.7461 6.54112 24.612C5.70967 24.1829 5.38783 23.1637 5.81696 22.3591C6.03153 21.9299 6.27295 21.474 6.51434 21.0716C6.9703 20.267 7.9895 19.972 8.79414 20.4548C9.59877 20.9107 9.89375 21.9299 9.41097 22.7346C9.1964 23.1101 8.98186 23.5124 8.76729 23.9147C8.49908 24.4511 7.90904 24.7998 7.31897 24.7998ZM17.2964 13.2399C16.76 13.2399 16.2504 12.9985 15.9285 12.5425C15.3921 11.7915 15.5531 10.7455 16.3041 10.2091C16.7064 9.91405 17.1087 9.64584 17.511 9.37763C18.2888 8.86802 19.3348 9.08259 19.8444 9.86041C20.354 10.6382 20.1395 11.6842 19.3616 12.1938C18.9861 12.4352 18.6374 12.6766 18.2619 12.9448C17.9669 13.1326 17.6183 13.2399 17.2964 13.2399ZM31.4312 7.52697C30.5997 7.52697 29.9024 6.9369 29.7683 6.07863C29.6342 5.16671 30.2779 4.30843 31.1898 4.17432C31.6726 4.09386 32.1553 4.04022 32.6381 3.98658C33.5768 3.90611 34.3815 4.54982 34.4887 5.48856C34.596 6.40048 33.9255 7.23193 32.9868 7.33922C32.5577 7.39286 32.1017 7.4465 31.6725 7.50015C31.5921 7.50015 31.5116 7.52697 31.4312 7.52697ZM94.434 7.17829H93.0393C92.1006 7.17829 91.3496 6.4273 91.3496 5.48856C91.3496 4.54982 92.1006 3.79883 93.0393 3.79883H94.434C95.3727 3.79883 96.1237 4.54982 96.1237 5.48856C96.1237 6.4273 95.3727 7.17829 94.434 7.17829ZM79.0387 7.17829H77.644C76.7053 7.17829 75.9543 6.4273 75.9543 5.48856C75.9543 4.54982 76.7053 3.79883 77.644 3.79883H79.0387C79.9774 3.79883 80.7284 4.54982 80.7284 5.48856C80.7284 6.4273 79.9506 7.17829 79.0387 7.17829ZM63.6165 7.17829H62.2218C61.2831 7.17829 60.5321 6.4273 60.5321 5.48856C60.5321 4.54982 61.2831 3.79883 62.2218 3.79883H63.6165C64.5553 3.79883 65.3063 4.54982 65.3063 5.48856C65.3063 6.4273 64.5553 7.17829 63.6165 7.17829ZM48.2212 7.17829H46.8265C45.8877 7.17829 45.1368 6.4273 45.1368 5.48856C45.1368 4.54982 45.8877 3.79883 46.8265 3.79883H48.2212C49.16 3.79883 49.9109 4.54982 49.9109 5.48856C49.9109 6.4273 49.1331 7.17829 48.2212 7.17829Z" fill="#0047FF"/>
<path d="M5.11945 37.9419H2.33008V92.8716H5.11945V37.9419Z" fill="#0047FF"/>
<path d="M6.89036 92.7375C6.89036 94.4809 5.46883 95.9024 3.72546 95.9024C1.98208 95.9024 0.560547 94.4809 0.560547 92.7375C0.560547 90.9941 1.98208 89.5726 3.72546 89.5726C5.46883 89.5726 6.89036 90.9673 6.89036 92.7375Z" fill="#0047FF"/>
<path d="M108.139 215.713H36.2052C17.5377 215.713 2.33008 200.532 2.33008 181.838V126.908H5.11945V181.838C5.11945 198.977 19.0665 212.897 36.1784 212.897H108.139V215.713Z" fill="#0047FF"/>
<path d="M6.89036 127.069C6.89036 125.326 5.46883 123.904 3.72546 123.904C1.98208 123.904 0.560547 125.326 0.560547 127.069C0.560547 128.813 1.98208 130.234 3.72546 130.234C5.46883 130.234 6.89036 128.813 6.89036 127.069Z" fill="#0047FF"/>
<path d="M203.972 43.8163V175.964C203.972 192.432 190.615 205.789 174.147 205.789H41.9989C25.5307 205.789 12.1738 192.432 12.1738 175.964V43.8163C12.1738 27.3481 25.5307 13.9912 41.9989 13.9912H174.147C190.642 13.9912 203.972 27.3481 203.972 43.8163Z" fill="#F7F7F7"/>
<path d="M116.686 55.1383C116.686 61.629 111.429 66.886 104.938 66.886C98.4477 66.886 93.1908 61.629 93.1908 55.1383C93.1908 48.6476 98.4477 43.3906 104.938 43.3906C110.195 43.3906 114.648 46.8506 116.15 51.6247L104.804 55.1115L104.938 55.5138L116.257 52.027C116.552 53.0194 116.686 54.0654 116.686 55.1383Z" fill="#0047FF"/>
<path d="M104.939 69.3799C97.1605 69.3799 90.8307 63.0501 90.8307 55.272C90.8307 47.4939 97.1605 41.1641 104.939 41.1641C110.893 41.1641 116.23 44.919 118.242 50.5246L117.41 50.8197C115.533 45.5627 110.517 42.0492 104.965 42.0492C97.67 42.0492 91.7426 47.9766 91.7426 55.272C91.7426 62.5673 97.67 68.4948 104.965 68.4948C112.261 68.4948 118.188 62.5673 118.188 55.272C118.188 54.1723 118.054 53.0726 117.786 51.9998L118.644 51.7852C118.939 52.9117 119.073 54.0919 119.073 55.272C119.047 63.0501 112.717 69.3799 104.939 69.3799Z" fill="#636363"/>
<path d="M111.268 54.7093L110.195 55.0312C110.195 55.1117 110.195 55.1921 110.195 55.2458C110.195 58.1424 107.835 60.5027 104.938 60.5027C102.042 60.5027 99.6814 58.1424 99.6814 55.2458C99.6814 52.3491 102.042 49.9888 104.938 49.9888C106.789 49.9888 108.506 50.9544 109.444 52.5368L110.517 52.215C109.418 50.2034 107.299 48.916 104.938 48.916C101.425 48.916 98.5818 51.759 98.5818 55.2726C98.5818 58.7862 101.425 61.6292 104.938 61.6292C108.452 61.6292 111.295 58.7862 111.295 55.2726C111.268 55.0848 111.268 54.8971 111.268 54.7093ZM114.889 53.5828L113.843 53.9047C113.897 54.3338 113.95 54.7898 113.95 55.2458C113.95 60.2077 109.927 64.2577 104.965 64.2577C100.003 64.2577 95.9533 60.2345 95.9533 55.2458C95.9533 50.2839 100.003 46.2607 104.965 46.2607C108.452 46.2607 111.644 48.2991 113.092 51.4103L114.138 51.0885C112.529 47.5213 108.908 45.161 104.938 45.161C99.3864 45.161 94.8536 49.6938 94.8536 55.2458C94.8536 60.7977 99.3864 65.3305 104.938 65.3305C110.49 65.3305 115.023 60.7977 115.023 55.2458C115.023 54.7093 114.969 54.1461 114.889 53.5828Z" fill="white"/>
<path d="M107.165 55.2722C107.165 56.506 106.172 57.4983 104.938 57.4983C103.705 57.4983 102.712 56.506 102.712 55.2722C102.712 54.0384 103.705 53.046 104.938 53.046C105.716 53.046 106.414 53.4483 106.816 54.0652L104.322 54.843L104.697 56.05L107.165 55.2722Z" fill="white"/>
<path d="M116.284 52.0271L104.965 55.5138L104.831 55.1115L116.177 51.6248C116.203 51.7589 116.23 51.893 116.284 52.0271Z" fill="white"/>
<path d="M124.169 52.3218L123.82 52.5364L122.319 50.1493L116.311 52C116.284 51.8659 116.23 51.7318 116.203 51.5977L122.265 49.747L123.23 47.3063L123.633 47.4672L122.667 49.8811L124.169 52.3218Z" fill="#636363"/>
<path d="M87.1603 99.1952C87.113 98.6744 86.9023 98.2696 86.5282 97.9807C86.1589 97.6872 85.631 97.5404 84.9444 97.5404C84.4899 97.5404 84.1111 97.5996 83.8081 97.718C83.505 97.8363 83.2778 97.9997 83.1262 98.208C82.9747 98.4116 82.8966 98.646 82.8919 98.9111C82.8824 99.1289 82.925 99.3207 83.0197 99.4864C83.1191 99.6521 83.2612 99.7989 83.4458 99.9268C83.6352 100.05 83.8625 100.159 84.1277 100.253C84.3928 100.348 84.6911 100.431 85.0225 100.502L86.2725 100.786C86.9922 100.942 87.6267 101.151 88.176 101.411C88.7299 101.672 89.194 101.982 89.568 102.342C89.9468 102.701 90.2333 103.116 90.4274 103.584C90.6215 104.053 90.7209 104.579 90.7257 105.161C90.7209 106.08 90.4889 106.868 90.0297 107.526C89.5704 108.184 88.9099 108.689 88.0481 109.039C87.1911 109.389 86.1565 109.565 84.9444 109.565C83.7276 109.565 82.667 109.382 81.7626 109.018C80.8583 108.653 80.1551 108.099 79.6532 107.356C79.1513 106.612 78.8933 105.672 78.8791 104.536H82.2456C82.274 105.005 82.3994 105.396 82.622 105.708C82.8445 106.021 83.1499 106.257 83.5382 106.418C83.9312 106.579 84.3857 106.66 84.9018 106.66C85.3753 106.66 85.7778 106.596 86.1092 106.468C86.4454 106.34 86.7034 106.163 86.8833 105.935C87.0633 105.708 87.1556 105.448 87.1603 105.154C87.1556 104.879 87.0704 104.645 86.9047 104.451C86.7389 104.252 86.4833 104.082 86.1376 103.94C85.7967 103.793 85.3611 103.658 84.8308 103.535L83.3109 103.18C82.0514 102.891 81.0595 102.424 80.335 101.78C79.6106 101.132 79.2508 100.256 79.2555 99.1526C79.2508 98.253 79.4922 97.4646 79.9799 96.7876C80.4676 96.1105 81.1423 95.5825 82.0041 95.2037C82.8658 94.825 83.8483 94.6356 84.9515 94.6356C86.0784 94.6356 87.0562 94.8273 87.8848 95.2108C88.7181 95.5896 89.3644 96.1223 89.8237 96.8089C90.283 97.4954 90.5173 98.2909 90.5268 99.1952H87.1603ZM97.1936 109.586C96.0477 109.586 95.0629 109.351 94.239 108.883C93.4199 108.409 92.7878 107.751 92.3427 106.908C91.9024 106.061 91.6822 105.078 91.6822 103.961C91.6822 102.839 91.9024 101.856 92.3427 101.013C92.7878 100.166 93.4199 99.5077 94.239 99.039C95.0629 98.5655 96.0477 98.3287 97.1936 98.3287C98.3394 98.3287 99.3219 98.5655 100.141 99.039C100.965 99.5077 101.597 100.166 102.037 101.013C102.482 101.856 102.705 102.839 102.705 103.961C102.705 105.078 102.482 106.061 102.037 106.908C101.597 107.751 100.965 108.409 100.141 108.883C99.3219 109.351 98.3394 109.586 97.1936 109.586ZM97.2149 106.965C97.6315 106.965 97.9843 106.837 98.2731 106.582C98.5619 106.326 98.7821 105.971 98.9336 105.516C99.0899 105.062 99.168 104.536 99.168 103.94C99.168 103.333 99.0899 102.803 98.9336 102.349C98.7821 101.894 98.5619 101.539 98.2731 101.283C97.9843 101.028 97.6315 100.9 97.2149 100.9C96.784 100.9 96.4194 101.028 96.1211 101.283C95.8276 101.539 95.6027 101.894 95.4464 102.349C95.2949 102.803 95.2191 103.333 95.2191 103.94C95.2191 104.536 95.2949 105.062 95.4464 105.516C95.6027 105.971 95.8276 106.326 96.1211 106.582C96.4194 106.837 96.784 106.965 97.2149 106.965ZM109.176 109.586C108.026 109.586 107.039 109.349 106.215 108.876C105.396 108.402 104.766 107.744 104.326 106.901C103.885 106.054 103.665 105.074 103.665 103.961C103.665 102.843 103.885 101.863 104.326 101.021C104.771 100.173 105.403 99.5125 106.222 99.039C107.046 98.5655 108.028 98.3287 109.169 98.3287C110.178 98.3287 111.056 98.511 111.804 98.8756C112.557 99.2402 113.144 99.7563 113.566 100.424C113.992 101.087 114.217 101.866 114.24 102.761H110.995C110.928 102.202 110.739 101.764 110.426 101.447C110.119 101.129 109.716 100.971 109.219 100.971C108.817 100.971 108.464 101.084 108.161 101.312C107.858 101.534 107.621 101.866 107.451 102.306C107.285 102.742 107.202 103.281 107.202 103.925C107.202 104.569 107.285 105.114 107.451 105.559C107.621 105.999 107.858 106.333 108.161 106.56C108.464 106.783 108.817 106.894 109.219 106.894C109.541 106.894 109.825 106.825 110.071 106.688C110.322 106.551 110.528 106.35 110.689 106.084C110.85 105.815 110.952 105.488 110.995 105.104H114.24C114.207 106.004 113.982 106.79 113.566 107.462C113.154 108.135 112.574 108.658 111.826 109.032C111.082 109.401 110.199 109.586 109.176 109.586ZM115.618 109.38V98.4708H119.091V109.38H115.618ZM117.358 97.1995C116.87 97.1995 116.451 97.0385 116.101 96.7165C115.75 96.3898 115.575 95.9968 115.575 95.5376C115.575 95.083 115.75 94.6947 116.101 94.3728C116.451 94.0461 116.87 93.8827 117.358 93.8827C117.85 93.8827 118.269 94.0461 118.615 94.3728C118.965 94.6947 119.14 95.083 119.14 95.5376C119.14 95.9968 118.965 96.3898 118.615 96.7165C118.269 97.0385 117.85 97.1995 117.358 97.1995ZM123.977 109.565C123.281 109.565 122.663 109.449 122.123 109.217C121.588 108.98 121.164 108.625 120.852 108.151C120.544 107.673 120.39 107.074 120.39 106.354C120.39 105.748 120.496 105.237 120.709 104.82C120.923 104.404 121.216 104.065 121.59 103.805C121.964 103.544 122.395 103.348 122.883 103.215C123.37 103.078 123.891 102.985 124.445 102.938C125.066 102.881 125.565 102.822 125.944 102.761C126.323 102.694 126.597 102.602 126.768 102.484C126.943 102.36 127.031 102.188 127.031 101.965V101.93C127.031 101.565 126.905 101.283 126.654 101.084C126.403 100.886 126.065 100.786 125.638 100.786C125.179 100.786 124.81 100.886 124.531 101.084C124.251 101.283 124.074 101.558 123.998 101.908L120.795 101.795C120.889 101.132 121.133 100.54 121.526 100.019C121.924 99.4935 122.468 99.0816 123.16 98.7833C123.856 98.4803 124.691 98.3287 125.667 98.3287C126.363 98.3287 127.004 98.4116 127.592 98.5773C128.179 98.7383 128.69 98.9751 129.126 99.2876C129.561 99.5953 129.897 99.9741 130.134 100.424C130.376 100.874 130.496 101.387 130.496 101.965V109.38H127.229V107.86H127.144C126.95 108.229 126.701 108.542 126.398 108.797C126.1 109.053 125.747 109.245 125.34 109.373C124.938 109.501 124.483 109.565 123.977 109.565ZM125.049 107.292C125.423 107.292 125.759 107.216 126.057 107.065C126.361 106.913 126.602 106.705 126.782 106.44C126.962 106.17 127.052 105.857 127.052 105.502V104.465C126.952 104.517 126.832 104.565 126.69 104.607C126.552 104.65 126.401 104.69 126.235 104.728C126.069 104.766 125.899 104.799 125.724 104.827C125.548 104.856 125.38 104.882 125.219 104.905C124.893 104.958 124.613 105.038 124.381 105.147C124.154 105.256 123.979 105.398 123.856 105.573C123.737 105.744 123.678 105.947 123.678 106.184C123.678 106.544 123.806 106.818 124.062 107.008C124.322 107.197 124.651 107.292 125.049 107.292ZM135.693 94.8344V109.38H132.22V94.8344H135.693ZM40.5466 133.38V118.834H46.5551C47.6441 118.834 48.584 119.031 49.3747 119.424C50.1701 119.812 50.7833 120.371 51.2142 121.1C51.645 121.824 51.8605 122.684 51.8605 123.678C51.8605 124.687 51.6403 125.544 51.2 126.249C50.7596 126.95 50.1346 127.485 49.325 127.854C48.5153 128.219 47.5565 128.401 46.4485 128.401H42.6488V125.631H45.7951C46.3254 125.631 46.7681 125.563 47.1233 125.425C47.4831 125.283 47.7554 125.07 47.94 124.786C48.1247 124.497 48.217 124.128 48.217 123.678C48.217 123.228 48.1247 122.857 47.94 122.563C47.7554 122.265 47.4831 122.042 47.1233 121.896C46.7634 121.744 46.3207 121.668 45.7951 121.668H44.0622V133.38H40.5466ZM48.7355 126.732L52.3576 133.38H48.5224L44.9713 126.732H48.7355ZM58.2733 133.586C57.1322 133.586 56.1474 133.361 55.3188 132.911C54.4949 132.457 53.8605 131.81 53.4154 130.972C52.975 130.129 52.7549 129.128 52.7549 127.968C52.7549 126.841 52.9774 125.856 53.4225 125.013C53.8676 124.166 54.4949 123.508 55.3046 123.039C56.1142 122.565 57.0683 122.329 58.1668 122.329C58.9433 122.329 59.6535 122.449 60.2975 122.691C60.9414 122.932 61.4978 123.29 61.9665 123.763C62.4353 124.237 62.7998 124.822 63.0603 125.518C63.3207 126.209 63.4509 127.002 63.4509 127.897V128.763H53.9694V126.746H60.2194C60.2146 126.377 60.127 126.048 59.9566 125.759C59.7861 125.47 59.5517 125.245 59.2534 125.084C58.9599 124.919 58.6213 124.836 58.2378 124.836C57.8496 124.836 57.5015 124.923 57.1938 125.099C56.886 125.269 56.6422 125.503 56.4623 125.802C56.2823 126.095 56.1876 126.429 56.1782 126.803V128.856C56.1782 129.301 56.2658 129.691 56.4409 130.028C56.6161 130.359 56.8647 130.617 57.1867 130.802C57.5087 130.986 57.8922 131.079 58.3373 131.079C58.645 131.079 58.9244 131.036 59.1753 130.951C59.4263 130.866 59.6417 130.74 59.8216 130.574C60.0015 130.409 60.1365 130.205 60.2265 129.964L63.4154 130.056C63.2828 130.771 62.9916 131.394 62.5418 131.924C62.0967 132.449 61.512 132.859 60.7875 133.153C60.0631 133.441 59.225 133.586 58.2733 133.586ZM74.3488 125.802L71.1599 125.887C71.1268 125.66 71.0368 125.458 70.89 125.283C70.7432 125.103 70.5515 124.964 70.3147 124.864C70.0827 124.76 69.8128 124.708 69.5051 124.708C69.1026 124.708 68.7593 124.789 68.4752 124.949C68.1959 125.11 68.0586 125.328 68.0633 125.603C68.0586 125.816 68.1438 126.001 68.319 126.157C68.4989 126.313 68.8185 126.439 69.2778 126.533L71.3801 126.931C72.4691 127.139 73.2788 127.485 73.8091 127.968C74.3441 128.451 74.614 129.09 74.6187 129.886C74.614 130.634 74.3914 131.285 73.9511 131.839C73.5155 132.393 72.9189 132.824 72.1613 133.131C71.4038 133.434 70.5373 133.586 69.5619 133.586C68.0041 133.586 66.7754 133.266 65.8758 132.627C64.9809 131.983 64.4696 131.121 64.3417 130.042L67.7721 129.957C67.8479 130.354 68.0444 130.657 68.3616 130.866C68.6788 131.074 69.0837 131.178 69.5761 131.178C70.0212 131.178 70.3834 131.095 70.6627 130.93C70.9421 130.764 71.0841 130.544 71.0889 130.269C71.0841 130.023 70.9752 129.826 70.7622 129.68C70.5491 129.528 70.2153 129.41 69.7608 129.324L67.8574 128.962C66.7636 128.763 65.9492 128.396 65.4142 127.861C64.8791 127.322 64.614 126.635 64.6187 125.802C64.614 125.073 64.8081 124.45 65.2011 123.934C65.5941 123.413 66.1528 123.015 66.8772 122.741C67.6017 122.466 68.4563 122.329 69.4412 122.329C70.9184 122.329 72.0832 122.639 72.9355 123.259C73.7877 123.875 74.2589 124.722 74.3488 125.802ZM75.9286 137.471V122.471H79.3661V124.339H79.4726C79.6147 124.007 79.8159 123.688 80.0763 123.38C80.3415 123.072 80.6776 122.821 81.0848 122.627C81.4968 122.428 81.9892 122.329 82.5621 122.329C83.3197 122.329 84.0275 122.528 84.6857 122.925C85.3486 123.323 85.8836 123.936 86.2908 124.765C86.698 125.593 86.9016 126.649 86.9016 127.932C86.9016 129.168 86.7051 130.203 86.3121 131.036C85.9238 131.869 85.3983 132.494 84.7354 132.911C84.0773 133.328 83.3457 133.536 82.5408 133.536C81.9916 133.536 81.5157 133.446 81.1132 133.266C80.7108 133.086 80.3722 132.85 80.0976 132.556C79.8277 132.262 79.6194 131.948 79.4726 131.611H79.4016V137.471H75.9286ZM79.3306 127.925C79.3306 128.512 79.4087 129.024 79.5649 129.459C79.7259 129.895 79.9556 130.234 80.2539 130.475C80.5569 130.712 80.9191 130.83 81.3405 130.83C81.7667 130.83 82.1289 130.712 82.4272 130.475C82.7255 130.234 82.9504 129.895 83.1019 129.459C83.2581 129.024 83.3363 128.512 83.3363 127.925C83.3363 127.338 83.2581 126.829 83.1019 126.398C82.9504 125.967 82.7255 125.634 82.4272 125.397C82.1336 125.16 81.7714 125.042 81.3405 125.042C80.9144 125.042 80.5522 125.158 80.2539 125.39C79.9556 125.622 79.7259 125.953 79.5649 126.384C79.4087 126.815 79.3306 127.329 79.3306 127.925ZM93.4139 133.586C92.2681 133.586 91.2832 133.351 90.4593 132.883C89.6402 132.409 89.0081 131.751 88.563 130.908C88.1227 130.061 87.9025 129.078 87.9025 127.961C87.9025 126.839 88.1227 125.856 88.563 125.013C89.0081 124.166 89.6402 123.508 90.4593 123.039C91.2832 122.565 92.2681 122.329 93.4139 122.329C94.5597 122.329 95.5422 122.565 96.3613 123.039C97.1852 123.508 97.8173 124.166 98.2576 125.013C98.7027 125.856 98.9252 126.839 98.9252 127.961C98.9252 129.078 98.7027 130.061 98.2576 130.908C97.8173 131.751 97.1852 132.409 96.3613 132.883C95.5422 133.351 94.5597 133.586 93.4139 133.586ZM93.4352 130.965C93.8519 130.965 94.2046 130.837 94.4934 130.582C94.7823 130.326 95.0024 129.971 95.1539 129.516C95.3102 129.062 95.3883 128.536 95.3883 127.94C95.3883 127.333 95.3102 126.803 95.1539 126.349C95.0024 125.894 94.7823 125.539 94.4934 125.283C94.2046 125.028 93.8519 124.9 93.4352 124.9C93.0043 124.9 92.6397 125.028 92.3414 125.283C92.0479 125.539 91.823 125.894 91.6667 126.349C91.5152 126.803 91.4395 127.333 91.4395 127.94C91.4395 128.536 91.5152 129.062 91.6667 129.516C91.823 129.971 92.0479 130.326 92.3414 130.582C92.6397 130.837 93.0043 130.965 93.4352 130.965ZM103.777 127.158V133.38H100.304V122.471H103.607V124.474H103.728C103.969 123.806 104.381 123.283 104.963 122.904C105.546 122.521 106.239 122.329 107.044 122.329C107.811 122.329 108.477 122.502 109.04 122.847C109.608 123.188 110.049 123.666 110.361 124.282C110.678 124.893 110.835 125.608 110.83 126.427V133.38H107.357V127.109C107.362 126.503 107.208 126.029 106.895 125.688C106.588 125.347 106.159 125.177 105.61 125.177C105.245 125.177 104.923 125.257 104.644 125.418C104.369 125.574 104.156 125.799 104.005 126.093C103.858 126.387 103.782 126.742 103.777 127.158ZM122.104 125.802L118.915 125.887C118.882 125.66 118.792 125.458 118.645 125.283C118.499 125.103 118.307 124.964 118.07 124.864C117.838 124.76 117.568 124.708 117.261 124.708C116.858 124.708 116.515 124.789 116.231 124.949C115.951 125.11 115.814 125.328 115.819 125.603C115.814 125.816 115.899 126.001 116.074 126.157C116.254 126.313 116.574 126.439 117.033 126.533L119.136 126.931C120.225 127.139 121.034 127.485 121.565 127.968C122.1 128.451 122.369 129.09 122.374 129.886C122.369 130.634 122.147 131.285 121.707 131.839C121.271 132.393 120.674 132.824 119.917 133.131C119.159 133.434 118.293 133.586 117.317 133.586C115.76 133.586 114.531 133.266 113.631 132.627C112.736 131.983 112.225 131.121 112.097 130.042L115.528 129.957C115.603 130.354 115.8 130.657 116.117 130.866C116.434 131.074 116.839 131.178 117.332 131.178C117.777 131.178 118.139 131.095 118.418 130.93C118.698 130.764 118.84 130.544 118.844 130.269C118.84 130.023 118.731 129.826 118.518 129.68C118.305 129.528 117.971 129.41 117.516 129.324L115.613 128.962C114.519 128.763 113.705 128.396 113.17 127.861C112.635 127.322 112.369 126.635 112.374 125.802C112.369 125.073 112.564 124.45 112.957 123.934C113.35 123.413 113.908 123.015 114.633 122.741C115.357 122.466 116.212 122.329 117.197 122.329C118.674 122.329 119.839 122.639 120.691 123.259C121.543 123.875 122.014 124.722 122.104 125.802ZM123.684 133.38V122.471H127.157V133.38H123.684ZM125.424 121.199C124.936 121.199 124.517 121.039 124.167 120.717C123.817 120.39 123.641 119.997 123.641 119.538C123.641 119.083 123.817 118.695 124.167 118.373C124.517 118.046 124.936 117.883 125.424 117.883C125.917 117.883 126.336 118.046 126.681 118.373C127.032 118.695 127.207 119.083 127.207 119.538C127.207 119.997 127.032 120.39 126.681 120.717C126.336 121.039 125.917 121.199 125.424 121.199ZM128.968 133.38V118.834H132.441V124.339H132.512C132.654 124.007 132.855 123.688 133.115 123.38C133.381 123.072 133.717 122.821 134.124 122.627C134.536 122.428 135.028 122.329 135.601 122.329C136.359 122.329 137.067 122.528 137.725 122.925C138.388 123.323 138.923 123.936 139.33 124.765C139.737 125.593 139.941 126.649 139.941 127.932C139.941 129.168 139.744 130.203 139.351 131.036C138.963 131.869 138.437 132.494 137.774 132.911C137.116 133.328 136.385 133.536 135.58 133.536C135.031 133.536 134.555 133.446 134.152 133.266C133.75 133.086 133.411 132.85 133.137 132.556C132.867 132.262 132.658 131.948 132.512 131.611H132.405V133.38H128.968ZM132.37 127.925C132.37 128.512 132.448 129.024 132.604 129.459C132.765 129.895 132.995 130.234 133.293 130.475C133.596 130.712 133.958 130.83 134.38 130.83C134.806 130.83 135.168 130.712 135.466 130.475C135.765 130.234 135.989 129.895 136.141 129.459C136.297 129.024 136.375 128.512 136.375 127.925C136.375 127.338 136.297 126.829 136.141 126.398C135.989 125.967 135.765 125.634 135.466 125.397C135.173 125.16 134.81 125.042 134.38 125.042C133.953 125.042 133.591 125.158 133.293 125.39C132.995 125.622 132.765 125.953 132.604 126.384C132.448 126.815 132.37 127.329 132.37 127.925ZM141.361 133.38V122.471H144.834V133.38H141.361ZM143.101 121.199C142.613 121.199 142.194 121.039 141.844 120.717C141.493 120.39 141.318 119.997 141.318 119.538C141.318 119.083 141.493 118.695 141.844 118.373C142.194 118.046 142.613 117.883 143.101 117.883C143.593 117.883 144.012 118.046 144.358 118.373C144.708 118.695 144.883 119.083 144.883 119.538C144.883 119.997 144.708 120.39 144.358 120.717C144.012 121.039 143.593 121.199 143.101 121.199ZM150.117 118.834V133.38H146.644V118.834H150.117ZM151.928 133.38V122.471H155.401V133.38H151.928ZM153.668 121.199C153.18 121.199 152.761 121.039 152.411 120.717C152.06 120.39 151.885 119.997 151.885 119.538C151.885 119.083 152.06 118.695 152.411 118.373C152.761 118.046 153.18 117.883 153.668 117.883C154.16 117.883 154.579 118.046 154.925 118.373C155.275 118.695 155.451 119.083 155.451 119.538C155.451 119.997 155.275 120.39 154.925 120.717C154.579 121.039 154.16 121.199 153.668 121.199ZM163.369 122.471V125.028H156.487V122.471H163.369ZM157.929 119.857H161.402V129.949C161.402 130.163 161.435 130.335 161.501 130.468C161.572 130.596 161.674 130.688 161.807 130.745C161.939 130.797 162.098 130.823 162.282 130.823C162.415 130.823 162.555 130.811 162.701 130.788C162.853 130.759 162.967 130.735 163.042 130.717L163.568 133.224C163.402 133.271 163.168 133.33 162.865 133.401C162.567 133.472 162.209 133.517 161.792 133.536C160.978 133.574 160.28 133.479 159.697 133.252C159.12 133.02 158.677 132.66 158.369 132.172C158.066 131.685 157.919 131.072 157.929 130.333V119.857ZM166.865 137.471C166.448 137.471 166.055 137.438 165.686 137.371C165.316 137.31 164.999 137.227 164.734 137.123L165.501 134.601C165.842 134.715 166.15 134.781 166.424 134.8C166.704 134.819 166.943 134.774 167.142 134.665C167.345 134.561 167.502 134.374 167.61 134.104L167.745 133.778L163.868 122.471H167.504L169.514 130.255H169.627L171.666 122.471H175.323L171.211 134.424C171.012 135.021 170.731 135.546 170.366 136.001C170.006 136.46 169.54 136.82 168.967 137.08C168.399 137.341 167.698 137.471 166.865 137.471Z" fill="black"/>
<path d="M48.1437 152.38V143.653H53.2062V144.369H48.9406V147.654H52.9377V148.37H48.9406V151.664H53.2914V152.38H48.1437ZM57.4278 152.516C56.8426 152.516 56.3327 152.37 55.898 152.077C55.4662 151.785 55.131 151.384 54.8923 150.876C54.6537 150.367 54.5344 149.788 54.5344 149.137C54.5344 148.481 54.6551 147.897 54.8966 147.386C55.1409 146.874 55.479 146.474 55.9108 146.184C56.3426 145.891 56.844 145.745 57.4151 145.745C57.8526 145.745 58.2489 145.83 58.604 146.001C58.9591 146.168 59.2517 146.405 59.4818 146.712C59.7148 147.016 59.8611 147.371 59.9207 147.778H59.1537C59.0742 147.408 58.8824 147.093 58.5784 146.832C58.2773 146.567 57.8938 146.435 57.4278 146.435C57.0102 146.435 56.6409 146.549 56.3199 146.776C55.9989 147.001 55.7474 147.315 55.5656 147.718C55.3867 148.119 55.2972 148.583 55.2972 149.111C55.2972 149.643 55.3852 150.113 55.5614 150.522C55.7375 150.928 55.9847 151.246 56.3028 151.476C56.6239 151.707 56.9989 151.822 57.4278 151.822C57.7176 151.822 57.9818 151.768 58.2205 151.66C58.4619 151.549 58.6636 151.393 58.8256 151.191C58.9903 150.989 59.1011 150.749 59.158 150.471H59.925C59.8682 150.866 59.7276 151.218 59.5031 151.528C59.2815 151.834 58.9932 152.076 58.6381 152.252C58.2858 152.428 57.8824 152.516 57.4278 152.516ZM63.8548 152.516C63.2894 152.516 62.7894 152.373 62.3548 152.086C61.9229 151.799 61.5849 151.403 61.3405 150.897C61.0962 150.388 60.9741 149.802 60.9741 149.137C60.9741 148.467 61.0962 147.877 61.3405 147.369C61.5849 146.857 61.9229 146.459 62.3548 146.175C62.7894 145.888 63.2894 145.745 63.8548 145.745C64.4201 145.745 64.9187 145.888 65.3505 146.175C65.7823 146.462 66.1204 146.86 66.3647 147.369C66.6119 147.877 66.7354 148.467 66.7354 149.137C66.7354 149.802 66.6133 150.388 66.369 150.897C66.1246 151.403 65.7851 151.799 65.3505 152.086C64.9187 152.373 64.4201 152.516 63.8548 152.516ZM63.8548 151.822C64.3093 151.822 64.6942 151.699 65.0096 151.455C65.3249 151.211 65.5636 150.886 65.7255 150.479C65.8903 150.073 65.9726 149.626 65.9726 149.137C65.9726 148.648 65.8903 148.199 65.7255 147.79C65.5636 147.381 65.3249 147.053 65.0096 146.806C64.6942 146.559 64.3093 146.435 63.8548 146.435C63.403 146.435 63.0181 146.559 62.6999 146.806C62.3846 147.053 62.1445 147.381 61.9798 147.79C61.8178 148.199 61.7369 148.648 61.7369 149.137C61.7369 149.626 61.8178 150.073 61.9798 150.479C62.1445 150.886 62.3846 151.211 62.6999 151.455C63.0153 151.699 63.4002 151.822 63.8548 151.822ZM71.6932 148.28V148.996H68.0625V148.28H71.6932ZM76.0512 145.834V146.495H72.8339V145.834H76.0512ZM73.8396 152.38V144.876C73.8396 144.523 73.9206 144.226 74.0825 143.985C74.2473 143.744 74.4618 143.56 74.726 143.435C74.9902 143.31 75.27 143.248 75.5654 143.248C75.7643 143.248 75.9291 143.265 76.0598 143.299C76.1933 143.33 76.2984 143.361 76.3751 143.393L76.1535 144.057C76.0967 144.04 76.0271 144.021 75.9447 143.998C75.8623 143.975 75.7586 143.964 75.6336 143.964C75.3041 143.964 75.0498 144.056 74.8708 144.241C74.6919 144.425 74.6024 144.69 74.6024 145.033L74.5981 152.38H73.8396ZM77.3251 152.38V145.834H78.0623V146.84H78.1177C78.2484 146.511 78.4757 146.245 78.7995 146.043C79.1262 145.839 79.4955 145.736 79.9075 145.736C79.97 145.736 80.0396 145.738 80.1163 145.741C80.193 145.744 80.2569 145.746 80.308 145.749V146.521C80.274 146.515 80.2143 146.506 80.1291 146.495C80.0438 146.484 79.9515 146.478 79.8521 146.478C79.5112 146.478 79.2072 146.55 78.9401 146.695C78.6759 146.837 78.4671 147.035 78.3137 147.288C78.1603 147.54 78.0836 147.829 78.0836 148.153V152.38H77.3251ZM81.371 152.38V145.834H82.1337V152.38H81.371ZM81.7587 144.709C81.6025 144.709 81.469 144.657 81.3582 144.552C81.2474 144.444 81.192 144.315 81.192 144.164C81.192 144.013 81.2474 143.886 81.3582 143.78C81.469 143.672 81.6025 143.619 81.7587 143.619C81.915 143.619 82.0485 143.672 82.1593 143.78C82.2701 143.886 82.3255 144.013 82.3255 144.164C82.3255 144.315 82.2701 144.444 82.1593 144.552C82.0485 144.657 81.915 144.709 81.7587 144.709ZM86.5461 152.516C85.9353 152.516 85.4069 152.374 84.9609 152.09C84.5148 151.803 84.1697 151.407 83.9253 150.901C83.6839 150.393 83.5631 149.807 83.5631 149.146C83.5631 148.486 83.6839 147.901 83.9253 147.39C84.1697 146.876 84.5063 146.474 84.9353 146.184C85.3671 145.891 85.8657 145.745 86.431 145.745C86.7861 145.745 87.1285 145.81 87.458 145.941C87.7876 146.069 88.083 146.266 88.3444 146.533C88.6086 146.797 88.8174 147.131 88.9708 147.535C89.1242 147.935 89.2009 148.41 89.2009 148.958V149.333H84.0873V148.664H88.4253C88.4253 148.244 88.3401 147.866 88.1697 147.53C88.0021 147.192 87.7677 146.925 87.4665 146.729C87.1682 146.533 86.8231 146.435 86.431 146.435C86.0163 146.435 85.6512 146.546 85.3359 146.768C85.0205 146.989 84.7734 147.282 84.5944 147.646C84.4182 148.009 84.3288 148.407 84.3259 148.839V149.239C84.3259 149.759 84.4154 150.214 84.5944 150.603C84.7762 150.989 85.0333 151.289 85.3657 151.502C85.6981 151.715 86.0915 151.822 86.5461 151.822C86.8557 151.822 87.1271 151.773 87.36 151.677C87.5958 151.58 87.7932 151.451 87.9523 151.289C88.1143 151.124 88.2364 150.944 88.3188 150.748L89.039 150.982C88.9396 151.258 88.7762 151.512 88.5489 151.745C88.3245 151.978 88.0432 152.165 87.7052 152.307C87.3699 152.447 86.9836 152.516 86.5461 152.516ZM91.391 148.289V152.38H90.6324V145.834H91.3697V146.861H91.4378C91.5912 146.526 91.8299 146.258 92.1537 146.056C92.4804 145.851 92.8839 145.749 93.364 145.749C93.8043 145.749 94.1907 145.842 94.5231 146.026C94.8583 146.208 95.1182 146.476 95.3029 146.832C95.4904 147.187 95.5841 147.623 95.5841 148.14V152.38H94.8256V148.187C94.8256 147.65 94.6751 147.225 94.3739 146.913C94.0756 146.6 93.6751 146.444 93.1722 146.444C92.8285 146.444 92.5231 146.518 92.256 146.665C91.989 146.813 91.7773 147.026 91.6211 147.305C91.4677 147.58 91.391 147.908 91.391 148.289ZM99.6982 152.516C99.1613 152.516 98.6911 152.374 98.2877 152.09C97.8843 151.806 97.5689 151.41 97.3417 150.901C97.1172 150.393 97.005 149.8 97.005 149.124C97.005 148.451 97.1172 147.861 97.3417 147.356C97.5689 146.847 97.8857 146.452 98.2919 146.171C98.6982 145.887 99.1712 145.745 99.711 145.745C100.109 145.745 100.44 145.816 100.704 145.958C100.968 146.097 101.18 146.271 101.339 146.478C101.498 146.685 101.621 146.887 101.71 147.083H101.778V143.653H102.541V152.38H101.799V151.165H101.71C101.621 151.364 101.496 151.569 101.335 151.779C101.173 151.986 100.958 152.161 100.691 152.303C100.427 152.445 100.096 152.516 99.6982 152.516ZM99.7877 151.822C100.211 151.822 100.572 151.707 100.87 151.476C101.168 151.244 101.396 150.924 101.552 150.518C101.711 150.109 101.791 149.64 101.791 149.111C101.791 148.589 101.712 148.127 101.556 147.726C101.4 147.323 101.173 147.008 100.874 146.78C100.576 146.55 100.214 146.435 99.7877 146.435C99.3502 146.435 98.9809 146.555 98.6797 146.793C98.3814 147.029 98.1542 147.349 97.9979 147.752C97.8445 148.155 97.7678 148.609 97.7678 149.111C97.7678 149.62 97.8459 150.079 98.0022 150.488C98.1584 150.897 98.3857 151.222 98.684 151.464C98.9851 151.702 99.353 151.822 99.7877 151.822ZM105.22 143.653V152.38H104.461V143.653H105.22ZM107.515 154.834C107.364 154.834 107.224 154.82 107.093 154.792C106.963 154.763 106.859 154.732 106.782 154.698L106.987 154.029C107.245 154.109 107.475 154.137 107.677 154.114C107.879 154.094 108.058 154.003 108.214 153.842C108.37 153.682 108.509 153.438 108.632 153.109L108.87 152.444L106.463 145.834H107.285L109.228 151.378H109.288L111.231 145.834H112.053L109.284 153.415C109.167 153.731 109.024 153.994 108.853 154.204C108.683 154.417 108.485 154.574 108.261 154.677C108.039 154.782 107.791 154.834 107.515 154.834ZM116.432 154.834V145.834H117.17V147.083H117.259C117.35 146.887 117.475 146.687 117.634 146.482C117.793 146.275 118.003 146.1 118.265 145.958C118.529 145.816 118.861 145.745 119.262 145.745C119.802 145.745 120.273 145.887 120.677 146.171C121.083 146.452 121.398 146.847 121.623 147.356C121.85 147.861 121.964 148.451 121.964 149.124C121.964 149.8 121.85 150.393 121.623 150.901C121.398 151.41 121.083 151.806 120.677 152.09C120.273 152.374 119.805 152.516 119.271 152.516C118.876 152.516 118.545 152.445 118.278 152.303C118.013 152.161 117.799 151.986 117.634 151.779C117.472 151.569 117.347 151.364 117.259 151.165H117.191V154.834H116.432ZM117.182 149.111C117.182 149.64 117.261 150.109 117.417 150.518C117.576 150.924 117.803 151.244 118.099 151.476C118.397 151.707 118.758 151.822 119.181 151.822C119.616 151.822 119.982 151.702 120.28 151.464C120.582 151.222 120.81 150.897 120.967 150.488C121.126 150.079 121.205 149.62 121.205 149.111C121.205 148.609 121.127 148.155 120.971 147.752C120.817 147.349 120.59 147.029 120.289 146.793C119.988 146.555 119.619 146.435 119.181 146.435C118.755 146.435 118.393 146.55 118.094 146.78C117.796 147.008 117.569 147.323 117.413 147.726C117.259 148.127 117.182 148.589 117.182 149.111ZM123.388 152.38V145.834H124.125V146.84H124.18C124.311 146.511 124.538 146.245 124.862 146.043C125.189 145.839 125.558 145.736 125.97 145.736C126.033 145.736 126.102 145.738 126.179 145.741C126.256 145.744 126.32 145.746 126.371 145.749V146.521C126.337 146.515 126.277 146.506 126.192 146.495C126.106 146.484 126.014 146.478 125.915 146.478C125.574 146.478 125.27 146.55 125.003 146.695C124.739 146.837 124.53 147.035 124.376 147.288C124.223 147.54 124.146 147.829 124.146 148.153V152.38H123.388ZM129.253 152.529C128.858 152.529 128.498 152.452 128.171 152.299C127.844 152.143 127.584 151.918 127.391 151.626C127.198 151.33 127.101 150.972 127.101 150.552C127.101 150.228 127.162 149.955 127.284 149.734C127.407 149.512 127.58 149.33 127.804 149.188C128.029 149.046 128.294 148.934 128.601 148.851C128.908 148.769 129.246 148.705 129.615 148.66C129.982 148.614 130.292 148.574 130.544 148.54C130.8 148.506 130.995 148.452 131.128 148.378C131.262 148.305 131.329 148.185 131.329 148.021V147.867C131.329 147.421 131.195 147.07 130.928 146.815C130.664 146.556 130.283 146.427 129.786 146.427C129.314 146.427 128.929 146.53 128.631 146.738C128.336 146.945 128.128 147.19 128.009 147.471L127.289 147.211C127.436 146.853 127.641 146.567 127.902 146.354C128.164 146.138 128.456 145.984 128.78 145.89C129.104 145.793 129.432 145.745 129.765 145.745C130.015 145.745 130.275 145.778 130.544 145.843C130.817 145.908 131.07 146.022 131.303 146.184C131.536 146.343 131.725 146.566 131.87 146.853C132.015 147.137 132.087 147.498 132.087 147.935V152.38H131.329V151.344H131.282C131.191 151.538 131.056 151.725 130.877 151.907C130.698 152.089 130.473 152.238 130.204 152.354C129.934 152.471 129.617 152.529 129.253 152.529ZM129.355 151.834C129.759 151.834 130.108 151.745 130.404 151.566C130.699 151.387 130.927 151.15 131.086 150.854C131.248 150.556 131.329 150.228 131.329 149.87V148.924C131.272 148.978 131.177 149.026 131.043 149.069C130.912 149.111 130.76 149.15 130.587 149.184C130.417 149.215 130.246 149.242 130.076 149.265C129.905 149.288 129.752 149.307 129.615 149.324C129.246 149.37 128.931 149.441 128.669 149.538C128.408 149.634 128.208 149.768 128.069 149.938C127.929 150.106 127.86 150.322 127.86 150.586C127.86 150.984 128.002 151.292 128.286 151.511C128.57 151.726 128.927 151.834 129.355 151.834ZM136.422 152.516C135.836 152.516 135.326 152.37 134.892 152.077C134.46 151.785 134.125 151.384 133.886 150.876C133.647 150.367 133.528 149.788 133.528 149.137C133.528 148.481 133.649 147.897 133.89 147.386C134.135 146.874 134.473 146.474 134.905 146.184C135.336 145.891 135.838 145.745 136.409 145.745C136.846 145.745 137.243 145.83 137.598 146.001C137.953 146.168 138.245 146.405 138.476 146.712C138.709 147.016 138.855 147.371 138.914 147.778H138.147C138.068 147.408 137.876 147.093 137.572 146.832C137.271 146.567 136.888 146.435 136.422 146.435C136.004 146.435 135.635 146.549 135.314 146.776C134.993 147.001 134.741 147.315 134.559 147.718C134.38 148.119 134.291 148.583 134.291 149.111C134.291 149.643 134.379 150.113 134.555 150.522C134.731 150.928 134.978 151.246 135.297 151.476C135.618 151.707 135.993 151.822 136.422 151.822C136.711 151.822 136.976 151.768 137.214 151.66C137.456 151.549 137.657 151.393 137.819 151.191C137.984 150.989 138.095 150.749 138.152 150.471H138.919C138.862 150.866 138.721 151.218 138.497 151.528C138.275 151.834 137.987 152.076 137.632 152.252C137.28 152.428 136.876 152.516 136.422 152.516ZM142.883 145.834V146.495H139.759V145.834H142.883ZM140.735 144.266H141.498V150.671C141.498 150.944 141.545 151.158 141.638 151.315C141.732 151.468 141.854 151.577 142.005 151.643C142.155 151.705 142.316 151.736 142.486 151.736C142.586 151.736 142.671 151.731 142.742 151.719C142.813 151.705 142.875 151.691 142.929 151.677L143.091 152.363C143.018 152.391 142.927 152.417 142.819 152.44C142.711 152.465 142.577 152.478 142.418 152.478C142.14 152.478 141.871 152.417 141.613 152.295C141.357 152.172 141.147 151.991 140.982 151.749C140.817 151.508 140.735 151.208 140.735 150.85V144.266ZM144.374 152.38V145.834H145.137V152.38H144.374ZM144.762 144.709C144.605 144.709 144.472 144.657 144.361 144.552C144.25 144.444 144.195 144.315 144.195 144.164C144.195 144.013 144.25 143.886 144.361 143.78C144.472 143.672 144.605 143.619 144.762 143.619C144.918 143.619 145.051 143.672 145.162 143.78C145.273 143.886 145.328 144.013 145.328 144.164C145.328 144.315 145.273 144.444 145.162 144.552C145.051 144.657 144.918 144.709 144.762 144.709ZM149.459 152.516C148.874 152.516 148.364 152.37 147.93 152.077C147.498 151.785 147.163 151.384 146.924 150.876C146.685 150.367 146.566 149.788 146.566 149.137C146.566 148.481 146.687 147.897 146.928 147.386C147.172 146.874 147.511 146.474 147.942 146.184C148.374 145.891 148.876 145.745 149.447 145.745C149.884 145.745 150.28 145.83 150.636 146.001C150.991 146.168 151.283 146.405 151.513 146.712C151.746 147.016 151.893 147.371 151.952 147.778H151.185C151.106 147.408 150.914 147.093 150.61 146.832C150.309 146.567 149.925 146.435 149.459 146.435C149.042 146.435 148.672 146.549 148.351 146.776C148.03 147.001 147.779 147.315 147.597 147.718C147.418 148.119 147.329 148.583 147.329 149.111C147.329 149.643 147.417 150.113 147.593 150.522C147.769 150.928 148.016 151.246 148.334 151.476C148.655 151.707 149.03 151.822 149.459 151.822C149.749 151.822 150.013 151.768 150.252 151.66C150.493 151.549 150.695 151.393 150.857 151.191C151.022 150.989 151.133 150.749 151.19 150.471H151.957C151.9 150.866 151.759 151.218 151.535 151.528C151.313 151.834 151.025 152.076 150.67 152.252C150.317 152.428 149.914 152.516 149.459 152.516ZM155.989 152.516C155.378 152.516 154.849 152.374 154.403 152.09C153.957 151.803 153.612 151.407 153.368 150.901C153.126 150.393 153.006 149.807 153.006 149.146C153.006 148.486 153.126 147.901 153.368 147.39C153.612 146.876 153.949 146.474 154.378 146.184C154.81 145.891 155.308 145.745 155.874 145.745C156.229 145.745 156.571 145.81 156.901 145.941C157.23 146.069 157.526 146.266 157.787 146.533C158.051 146.797 158.26 147.131 158.413 147.535C158.567 147.935 158.643 148.41 158.643 148.958V149.333H153.53V148.664H157.868C157.868 148.244 157.783 147.866 157.612 147.53C157.445 147.192 157.21 146.925 156.909 146.729C156.611 146.533 156.266 146.435 155.874 146.435C155.459 146.435 155.094 146.546 154.778 146.768C154.463 146.989 154.216 147.282 154.037 147.646C153.861 148.009 153.771 148.407 153.768 148.839V149.239C153.768 149.759 153.858 150.214 154.037 150.603C154.219 150.989 154.476 151.289 154.808 151.502C155.141 151.715 155.534 151.822 155.989 151.822C156.298 151.822 156.57 151.773 156.802 151.677C157.038 151.58 157.236 151.451 157.395 151.289C157.557 151.124 157.679 150.944 157.761 150.748L158.481 150.982C158.382 151.258 158.219 151.512 157.991 151.745C157.767 151.978 157.486 152.165 157.148 152.307C156.812 152.447 156.426 152.516 155.989 152.516ZM164.473 147.271L163.778 147.467C163.71 147.271 163.613 147.093 163.488 146.934C163.363 146.775 163.2 146.648 162.998 146.555C162.799 146.461 162.552 146.414 162.257 146.414C161.814 146.414 161.45 146.519 161.166 146.729C160.882 146.94 160.74 147.211 160.74 147.543C160.74 147.824 160.836 148.053 161.029 148.229C161.226 148.403 161.527 148.54 161.933 148.643L162.922 148.886C163.47 149.019 163.88 149.231 164.153 149.521C164.429 149.81 164.566 150.174 164.566 150.611C164.566 150.981 164.464 151.309 164.26 151.596C164.055 151.883 163.77 152.109 163.403 152.273C163.039 152.435 162.618 152.516 162.137 152.516C161.498 152.516 160.971 152.373 160.556 152.086C160.142 151.796 159.876 151.378 159.76 150.833L160.488 150.654C160.582 151.043 160.765 151.337 161.038 151.536C161.314 151.735 161.676 151.834 162.125 151.834C162.627 151.834 163.029 151.722 163.331 151.498C163.632 151.271 163.782 150.986 163.782 150.646C163.782 150.381 163.694 150.16 163.518 149.981C163.342 149.799 163.075 149.665 162.717 149.58L161.647 149.324C161.079 149.188 160.659 148.972 160.386 148.677C160.113 148.381 159.977 148.015 159.977 147.577C159.977 147.217 160.075 146.9 160.271 146.627C160.467 146.351 160.737 146.136 161.081 145.979C161.424 145.823 161.816 145.745 162.257 145.745C162.856 145.745 163.335 145.881 163.693 146.154C164.054 146.424 164.314 146.796 164.473 147.271ZM167.249 151.187L167.172 151.643C167.124 151.949 167.055 152.288 166.967 152.657C166.879 153.026 166.788 153.377 166.695 153.709C166.601 154.042 166.52 154.309 166.452 154.511H165.868C165.905 154.317 165.952 154.072 166.009 153.773C166.068 153.475 166.129 153.144 166.192 152.78C166.254 152.42 166.311 152.047 166.362 151.664L166.422 151.187H167.249ZM55.5093 167.516C54.924 167.516 54.4141 167.37 53.9794 167.077C53.5476 166.785 53.2124 166.384 52.9737 165.876C52.7351 165.367 52.6158 164.788 52.6158 164.137C52.6158 163.481 52.7365 162.897 52.978 162.386C53.2223 161.874 53.5604 161.474 53.9922 161.184C54.424 160.891 54.9254 160.745 55.4965 160.745C55.934 160.745 56.3303 160.83 56.6854 161.001C57.0405 161.168 57.3331 161.405 57.5632 161.712C57.7962 162.016 57.9425 162.371 58.0022 162.778H57.2351C57.1556 162.408 56.9638 162.093 56.6598 161.832C56.3587 161.567 55.9752 161.435 55.5093 161.435C55.0916 161.435 54.7223 161.549 54.4013 161.776C54.0803 162.001 53.8289 162.315 53.647 162.718C53.4681 163.119 53.3786 163.583 53.3786 164.111C53.3786 164.643 53.4666 165.113 53.6428 165.522C53.8189 165.928 54.0661 166.246 54.3843 166.476C54.7053 166.707 55.0803 166.822 55.5093 166.822C55.799 166.822 56.0632 166.768 56.3019 166.66C56.5433 166.549 56.745 166.393 56.907 166.191C57.0718 165.989 57.1825 165.749 57.2394 165.471H58.0064C57.9496 165.866 57.809 166.218 57.5845 166.528C57.3629 166.834 57.0746 167.076 56.7195 167.252C56.3672 167.428 55.9638 167.516 55.5093 167.516ZM61.9362 167.516C61.3708 167.516 60.8708 167.373 60.4362 167.086C60.0043 166.799 59.6663 166.403 59.422 165.897C59.1776 165.388 59.0555 164.802 59.0555 164.137C59.0555 163.467 59.1776 162.877 59.422 162.369C59.6663 161.857 60.0043 161.459 60.4362 161.175C60.8708 160.888 61.3708 160.745 61.9362 160.745C62.5015 160.745 63.0001 160.888 63.4319 161.175C63.8637 161.462 64.2018 161.86 64.4461 162.369C64.6933 162.877 64.8168 163.467 64.8168 164.137C64.8168 164.802 64.6947 165.388 64.4504 165.897C64.206 166.403 63.8666 166.799 63.4319 167.086C63.0001 167.373 62.5015 167.516 61.9362 167.516ZM61.9362 166.822C62.3907 166.822 62.7756 166.699 63.091 166.455C63.4063 166.211 63.645 165.886 63.8069 165.479C63.9717 165.073 64.0541 164.626 64.0541 164.137C64.0541 163.648 63.9717 163.199 63.8069 162.79C63.645 162.381 63.4063 162.053 63.091 161.806C62.7756 161.559 62.3907 161.435 61.9362 161.435C61.4845 161.435 61.0995 161.559 60.7813 161.806C60.466 162.053 60.2259 162.381 60.0612 162.79C59.8992 163.199 59.8183 163.648 59.8183 164.137C59.8183 164.626 59.8992 165.073 60.0612 165.479C60.2259 165.886 60.466 166.211 60.7813 166.455C61.0967 166.699 61.4816 166.822 61.9362 166.822ZM66.242 167.38V160.834H66.9792V161.84H67.0474C67.178 161.502 67.3954 161.236 67.6994 161.043C68.0062 160.847 68.3741 160.749 68.803 160.749C69.2548 160.749 69.6255 160.856 69.9153 161.069C70.2079 161.279 70.4266 161.569 70.5715 161.938H70.6269C70.7746 161.574 71.0147 161.286 71.3471 161.073C71.6823 160.857 72.0886 160.749 72.5658 160.749C73.1738 160.749 73.6539 160.941 74.0062 161.324C74.3584 161.705 74.5346 162.262 74.5346 162.995V167.38H73.7761V162.995C73.7761 162.478 73.644 162.09 73.3798 161.832C73.1155 161.573 72.7675 161.444 72.3357 161.444C71.8357 161.444 71.4508 161.597 71.1809 161.904C70.911 162.211 70.7761 162.6 70.7761 163.072V167.38H70.0005V162.927C70.0005 162.484 69.8769 162.126 69.6298 161.853C69.3826 161.58 69.0346 161.444 68.5857 161.444C68.2846 161.444 68.0133 161.518 67.7718 161.665C67.5332 161.813 67.3442 162.019 67.205 162.283C67.0687 162.545 67.0005 162.846 67.0005 163.187V167.38H66.242ZM76.3028 167.38V160.834H77.04V161.84H77.1081C77.2388 161.502 77.4562 161.236 77.7601 161.043C78.067 160.847 78.4349 160.749 78.8638 160.749C79.3155 160.749 79.6863 160.856 79.976 161.069C80.2687 161.279 80.4874 161.569 80.6323 161.938H80.6877C80.8354 161.574 81.0755 161.286 81.4079 161.073C81.7431 160.857 82.1493 160.749 82.6266 160.749C83.2346 160.749 83.7147 160.941 84.067 161.324C84.4192 161.705 84.5954 162.262 84.5954 162.995V167.38H83.8368V162.995C83.8368 162.478 83.7047 162.09 83.4405 161.832C83.1763 161.573 82.8283 161.444 82.3965 161.444C81.8965 161.444 81.5116 161.597 81.2417 161.904C80.9718 162.211 80.8368 162.6 80.8368 163.072V167.38H80.0613V162.927C80.0613 162.484 79.9377 162.126 79.6905 161.853C79.4434 161.58 79.0954 161.444 78.6465 161.444C78.3454 161.444 78.0741 161.518 77.8326 161.665C77.5939 161.813 77.405 162.019 77.2658 162.283C77.1295 162.545 77.0613 162.846 77.0613 163.187V167.38H76.3028ZM86.3721 167.38V160.834H87.1348V167.38H86.3721ZM86.7598 159.709C86.6036 159.709 86.4701 159.657 86.3593 159.552C86.2485 159.444 86.1931 159.315 86.1931 159.164C86.1931 159.013 86.2485 158.886 86.3593 158.78C86.4701 158.672 86.6036 158.619 86.7598 158.619C86.9161 158.619 87.0496 158.672 87.1604 158.78C87.2712 158.886 87.3266 159.013 87.3266 159.164C87.3266 159.315 87.2712 159.444 87.1604 159.552C87.0496 159.657 86.9161 159.709 86.7598 159.709ZM91.479 160.834V161.495H88.3554V160.834H91.479ZM89.3313 159.266H90.0941V165.671C90.0941 165.944 90.1409 166.158 90.2347 166.315C90.3284 166.468 90.4506 166.577 90.6012 166.643C90.7517 166.705 90.9122 166.736 91.0827 166.736C91.1821 166.736 91.2674 166.731 91.3384 166.719C91.4094 166.705 91.4719 166.691 91.5259 166.677L91.6878 167.363C91.6139 167.391 91.523 167.417 91.4151 167.44C91.3071 167.465 91.1736 167.478 91.0145 167.478C90.7361 167.478 90.4676 167.417 90.2091 167.295C89.9534 167.172 89.7432 166.991 89.5784 166.749C89.4137 166.508 89.3313 166.208 89.3313 165.85V159.266ZM92.9617 167.38V160.834H93.6989V161.84H93.7671C93.8977 161.502 94.1151 161.236 94.419 161.043C94.7259 160.847 95.0938 160.749 95.5227 160.749C95.9744 160.749 96.3452 160.856 96.635 161.069C96.9276 161.279 97.1463 161.569 97.2912 161.938H97.3466C97.4943 161.574 97.7344 161.286 98.0668 161.073C98.402 160.857 98.8082 160.749 99.2855 160.749C99.8935 160.749 100.374 160.941 100.726 161.324C101.078 161.705 101.254 162.262 101.254 162.995V167.38H100.496V162.995C100.496 162.478 100.364 162.09 100.099 161.832C99.8352 161.573 99.4872 161.444 99.0554 161.444C98.5554 161.444 98.1705 161.597 97.9006 161.904C97.6307 162.211 97.4957 162.6 97.4957 163.072V167.38H96.7202V162.927C96.7202 162.484 96.5966 162.126 96.3494 161.853C96.1023 161.58 95.7543 161.444 95.3054 161.444C95.0043 161.444 94.733 161.518 94.4915 161.665C94.2528 161.813 94.0639 162.019 93.9247 162.283C93.7884 162.545 93.7202 162.846 93.7202 163.187V167.38H92.9617ZM105.669 167.516C105.058 167.516 104.53 167.374 104.084 167.09C103.637 166.803 103.292 166.407 103.048 165.901C102.807 165.393 102.686 164.807 102.686 164.146C102.686 163.486 102.807 162.901 103.048 162.39C103.292 161.876 103.629 161.474 104.058 161.184C104.49 160.891 104.988 160.745 105.554 160.745C105.909 160.745 106.251 160.81 106.581 160.941C106.91 161.069 107.206 161.266 107.467 161.533C107.731 161.797 107.94 162.131 108.093 162.535C108.247 162.935 108.324 163.41 108.324 163.958V164.333H103.21V163.664H107.548C107.548 163.244 107.463 162.866 107.292 162.53C107.125 162.192 106.89 161.925 106.589 161.729C106.291 161.533 105.946 161.435 105.554 161.435C105.139 161.435 104.774 161.546 104.459 161.768C104.143 161.989 103.896 162.282 103.717 162.646C103.541 163.009 103.451 163.407 103.449 163.839V164.239C103.449 164.759 103.538 165.214 103.717 165.603C103.899 165.989 104.156 166.289 104.488 166.502C104.821 166.715 105.214 166.822 105.669 166.822C105.978 166.822 106.25 166.773 106.483 166.677C106.718 166.58 106.916 166.451 107.075 166.289C107.237 166.124 107.359 165.944 107.441 165.748L108.162 165.982C108.062 166.258 107.899 166.512 107.672 166.745C107.447 166.978 107.166 167.165 106.828 167.307C106.493 167.447 106.106 167.516 105.669 167.516ZM110.514 163.289V167.38H109.755V160.834H110.492V161.861H110.56C110.714 161.526 110.953 161.258 111.276 161.056C111.603 160.851 112.007 160.749 112.487 160.749C112.927 160.749 113.313 160.842 113.646 161.026C113.981 161.208 114.241 161.476 114.426 161.832C114.613 162.187 114.707 162.623 114.707 163.14V167.38H113.948V163.187C113.948 162.65 113.798 162.225 113.497 161.913C113.198 161.6 112.798 161.444 112.295 161.444C111.951 161.444 111.646 161.518 111.379 161.665C111.112 161.813 110.9 162.026 110.744 162.305C110.59 162.58 110.514 162.908 110.514 163.289ZM119.042 160.834V161.495H115.919V160.834H119.042ZM116.895 159.266H117.657V165.671C117.657 165.944 117.704 166.158 117.798 166.315C117.892 166.468 118.014 166.577 118.165 166.643C118.315 166.705 118.476 166.736 118.646 166.736C118.746 166.736 118.831 166.731 118.902 166.719C118.973 166.705 119.035 166.691 119.089 166.677L119.251 167.363C119.177 167.391 119.086 167.417 118.979 167.44C118.871 167.465 118.737 167.478 118.578 167.478C118.3 167.478 118.031 167.417 117.773 167.295C117.517 167.172 117.307 166.991 117.142 166.749C116.977 166.508 116.895 166.208 116.895 165.85V159.266ZM126.238 160.834V161.495H123.115V160.834H126.238ZM124.09 159.266H124.853V165.671C124.853 165.944 124.9 166.158 124.994 166.315C125.088 166.468 125.21 166.577 125.36 166.643C125.511 166.705 125.671 166.736 125.842 166.736C125.941 166.736 126.027 166.731 126.098 166.719C126.169 166.705 126.231 166.691 126.285 166.677L126.447 167.363C126.373 167.391 126.282 167.417 126.174 167.44C126.066 167.465 125.933 167.478 125.774 167.478C125.495 167.478 125.227 167.417 124.968 167.295C124.713 167.172 124.502 166.991 124.338 166.749C124.173 166.508 124.09 166.208 124.09 165.85V159.266ZM130.195 167.516C129.629 167.516 129.129 167.373 128.695 167.086C128.263 166.799 127.925 166.403 127.68 165.897C127.436 165.388 127.314 164.802 127.314 164.137C127.314 163.467 127.436 162.877 127.68 162.369C127.925 161.857 128.263 161.459 128.695 161.175C129.129 160.888 129.629 160.745 130.195 160.745C130.76 160.745 131.259 160.888 131.69 161.175C132.122 161.462 132.46 161.86 132.705 162.369C132.952 162.877 133.075 163.467 133.075 164.137C133.075 164.802 132.953 165.388 132.709 165.897C132.464 166.403 132.125 166.799 131.69 167.086C131.259 167.373 130.76 167.516 130.195 167.516ZM130.195 166.822C130.649 166.822 131.034 166.699 131.349 166.455C131.665 166.211 131.903 165.886 132.065 165.479C132.23 165.073 132.312 164.626 132.312 164.137C132.312 163.648 132.23 163.199 132.065 162.79C131.903 162.381 131.665 162.053 131.349 161.806C131.034 161.559 130.649 161.435 130.195 161.435C129.743 161.435 129.358 161.559 129.04 161.806C128.724 162.053 128.484 162.381 128.32 162.79C128.158 163.199 128.077 163.648 128.077 164.137C128.077 164.626 128.158 165.073 128.32 165.479C128.484 165.886 128.724 166.211 129.04 166.455C129.355 166.699 129.74 166.822 130.195 166.822ZM139.089 167.38L137.111 160.834H137.912L139.464 166.234H139.519L141.066 160.834H141.871L143.405 166.221H143.465L145.016 160.834H145.817L143.84 167.38H143.056L141.505 162.015H141.424L139.873 167.38H139.089ZM149.475 167.516C148.865 167.516 148.336 167.374 147.89 167.09C147.444 166.803 147.099 166.407 146.855 165.901C146.613 165.393 146.492 164.807 146.492 164.146C146.492 163.486 146.613 162.901 146.855 162.39C147.099 161.876 147.436 161.474 147.865 161.184C148.296 160.891 148.795 160.745 149.36 160.745C149.715 160.745 150.058 160.81 150.387 160.941C150.717 161.069 151.012 161.266 151.274 161.533C151.538 161.797 151.747 162.131 151.9 162.535C152.053 162.935 152.13 163.41 152.13 163.958V164.333H147.016V163.664H151.355C151.355 163.244 151.269 162.866 151.099 162.53C150.931 162.192 150.697 161.925 150.396 161.729C150.097 161.533 149.752 161.435 149.36 161.435C148.945 161.435 148.58 161.546 148.265 161.768C147.95 161.989 147.703 162.282 147.524 162.646C147.347 163.009 147.258 163.407 147.255 163.839V164.239C147.255 164.759 147.345 165.214 147.524 165.603C147.705 165.989 147.963 166.289 148.295 166.502C148.627 166.715 149.021 166.822 149.475 166.822C149.785 166.822 150.056 166.773 150.289 166.677C150.525 166.58 150.722 166.451 150.882 166.289C151.043 166.124 151.166 165.944 151.248 165.748L151.968 165.982C151.869 166.258 151.705 166.512 151.478 166.745C151.254 166.978 150.972 167.165 150.634 167.307C150.299 167.447 149.913 167.516 149.475 167.516ZM154.32 158.653V167.38H153.562V158.653H154.32ZM156.846 158.653V167.38H156.087V158.653H156.846ZM162.146 163.28V163.996H158.515V163.28H162.146ZM92.0149 182.38V173.653H92.7777V177.083H92.8459C92.9311 176.887 93.0533 176.685 93.2124 176.478C93.3743 176.271 93.586 176.097 93.8473 175.958C94.1115 175.816 94.4439 175.745 94.8445 175.745C95.3814 175.745 95.853 175.887 96.2593 176.171C96.6655 176.452 96.9823 176.847 97.2096 177.356C97.4368 177.861 97.5505 178.451 97.5505 179.124C97.5505 179.8 97.4368 180.393 97.2096 180.901C96.9851 181.41 96.6698 181.806 96.2635 182.09C95.8601 182.374 95.3914 182.516 94.8573 182.516C94.4596 182.516 94.1272 182.445 93.8601 182.303C93.5959 182.161 93.3828 181.986 93.2209 181.779C93.059 181.569 92.934 181.364 92.8459 181.165H92.7522V182.38H92.0149ZM92.7649 179.111C92.7649 179.64 92.8431 180.109 92.9993 180.518C93.1584 180.924 93.3857 181.244 93.6811 181.476C93.9794 181.707 94.3402 181.822 94.7635 181.822C95.1982 181.822 95.5661 181.702 95.8672 181.464C96.1684 181.222 96.3971 180.897 96.5533 180.488C96.7096 180.079 96.7877 179.62 96.7877 179.111C96.7877 178.609 96.7096 178.155 96.5533 177.752C96.3999 177.349 96.1726 177.029 95.8715 176.793C95.5703 176.555 95.201 176.435 94.7635 176.435C94.3374 176.435 93.9752 176.55 93.6769 176.78C93.3814 177.008 93.1556 177.323 92.9993 177.726C92.8431 178.127 92.7649 178.589 92.7649 179.111ZM101.623 182.516C101.012 182.516 100.484 182.374 100.038 182.09C99.5917 181.803 99.2465 181.407 99.0022 180.901C98.7607 180.393 98.64 179.807 98.64 179.146C98.64 178.486 98.7607 177.901 99.0022 177.39C99.2465 176.876 99.5832 176.474 100.012 176.184C100.444 175.891 100.943 175.745 101.508 175.745C101.863 175.745 102.205 175.81 102.535 175.941C102.864 176.069 103.16 176.266 103.421 176.533C103.685 176.797 103.894 177.131 104.048 177.535C104.201 177.935 104.278 178.41 104.278 178.958V179.333H99.1642V178.664H103.502C103.502 178.244 103.417 177.866 103.247 177.53C103.079 177.192 102.845 176.925 102.543 176.729C102.245 176.533 101.9 176.435 101.508 176.435C101.093 176.435 100.728 176.546 100.413 176.768C100.097 176.989 99.8502 177.282 99.6713 177.646C99.4951 178.009 99.4056 178.407 99.4028 178.839V179.239C99.4028 179.759 99.4923 180.214 99.6713 180.603C99.8531 180.989 100.11 181.289 100.443 181.502C100.775 181.715 101.168 181.822 101.623 181.822C101.933 181.822 102.204 181.773 102.437 181.677C102.673 181.58 102.87 181.451 103.029 181.289C103.191 181.124 103.313 180.944 103.396 180.748L104.116 180.982C104.016 181.258 103.853 181.512 103.626 181.745C103.401 181.978 103.12 182.165 102.782 182.307C102.447 182.447 102.06 182.516 101.623 182.516ZM105.718 182.38V175.834H106.481V182.38H105.718ZM106.106 174.709C105.949 174.709 105.816 174.657 105.705 174.552C105.594 174.444 105.539 174.315 105.539 174.164C105.539 174.013 105.594 173.886 105.705 173.78C105.816 173.672 105.949 173.619 106.106 173.619C106.262 173.619 106.395 173.672 106.506 173.78C106.617 173.886 106.672 174.013 106.672 174.164C106.672 174.315 106.617 174.444 106.506 174.552C106.395 174.657 106.262 174.709 106.106 174.709ZM109.005 178.289V182.38H108.247V175.834H108.984V176.861H109.052C109.205 176.526 109.444 176.258 109.768 176.056C110.095 175.851 110.498 175.749 110.978 175.749C111.419 175.749 111.805 175.842 112.137 176.026C112.473 176.208 112.732 176.476 112.917 176.832C113.105 177.187 113.198 177.623 113.198 178.14V182.38H112.44V178.187C112.44 177.65 112.289 177.225 111.988 176.913C111.69 176.6 111.289 176.444 110.786 176.444C110.443 176.444 110.137 176.518 109.87 176.665C109.603 176.813 109.392 177.026 109.235 177.305C109.082 177.58 109.005 177.908 109.005 178.289ZM117.453 184.971C117.007 184.971 116.616 184.913 116.281 184.796C115.946 184.682 115.663 184.526 115.433 184.327C115.203 184.128 115.024 183.905 114.896 183.658L115.518 183.249C115.612 183.414 115.737 183.576 115.893 183.735C116.052 183.894 116.258 184.026 116.511 184.131C116.767 184.236 117.081 184.289 117.453 184.289C118.033 184.289 118.5 184.144 118.855 183.854C119.213 183.565 119.392 183.114 119.392 182.503V181.029H119.324C119.236 181.228 119.109 181.427 118.945 181.626C118.78 181.822 118.564 181.985 118.297 182.116C118.033 182.246 117.704 182.312 117.312 182.312C116.79 182.312 116.325 182.182 115.919 181.924C115.516 181.665 115.197 181.296 114.964 180.816C114.734 180.333 114.619 179.758 114.619 179.09C114.619 178.428 114.731 177.846 114.956 177.343C115.183 176.84 115.5 176.448 115.906 176.167C116.312 175.886 116.785 175.745 117.325 175.745C117.726 175.745 118.058 175.816 118.322 175.958C118.587 176.097 118.798 176.271 118.957 176.478C119.119 176.685 119.246 176.887 119.337 177.083H119.413V175.834H120.155V182.55C120.155 183.104 120.037 183.56 119.801 183.918C119.565 184.276 119.244 184.54 118.838 184.711C118.432 184.884 117.97 184.971 117.453 184.971ZM117.402 181.617C117.822 181.617 118.182 181.516 118.48 181.315C118.778 181.11 119.007 180.817 119.166 180.437C119.325 180.056 119.405 179.603 119.405 179.077C119.405 178.566 119.327 178.113 119.17 177.718C119.014 177.32 118.787 177.008 118.489 176.78C118.193 176.55 117.831 176.435 117.402 176.435C116.964 176.435 116.595 176.553 116.294 176.789C115.993 177.025 115.766 177.343 115.612 177.744C115.459 178.141 115.382 178.586 115.382 179.077C115.382 179.577 115.46 180.019 115.616 180.403C115.773 180.783 116.001 181.082 116.302 181.297C116.604 181.511 116.97 181.617 117.402 181.617ZM122.528 182.444C122.36 182.444 122.216 182.384 122.093 182.265C121.974 182.143 121.914 181.998 121.914 181.83C121.914 181.66 121.974 181.515 122.093 181.396C122.216 181.276 122.36 181.217 122.528 181.217C122.698 181.217 122.843 181.276 122.963 181.396C123.082 181.515 123.142 181.66 123.142 181.83C123.142 181.941 123.113 182.043 123.056 182.137C123.002 182.231 122.929 182.306 122.835 182.363C122.744 182.417 122.642 182.444 122.528 182.444Z" fill="black"/>
</svg>
